<?xml version="1.0" encoding="UTF-8"?>
<svg id="Layer_1" xmlns="http://www.w3.org/2000/svg" xmlns:xlink="http://www.w3.org/1999/xlink" version="1.1" viewBox="0 0 498.173 55.897">
  <!-- Generator: Adobe Illustrator 30.1.0, SVG Export Plug-In . SVG Version: 2.1.1 Build 136)  -->
  <defs>
    <linearGradient id="linear-gradient" x1="2.153" y1="27.861" x2="58.673" y2="27.861" gradientUnits="userSpaceOnUse">
      <stop offset="0" stop-color="#d40080"/>
      <stop offset=".518" stop-color="#ff0041"/>
      <stop offset="1" stop-color="#ff7200"/>
    </linearGradient>
    <linearGradient id="linear-gradient1" x1="12.94" y1="38.892" x2="42.077" y2="38.892" xlink:href="#linear-gradient"/>
    <linearGradient id="linear-gradient2" x1="1.885" y1="27.861" x2="58.942" y2="27.861" xlink:href="#linear-gradient"/>
    <linearGradient id="linear-gradient3" x1="2.421" y1="27.861" x2="58.424" y2="27.861" xlink:href="#linear-gradient"/>
    <linearGradient id="linear-gradient4" x1="12.673" y1="38.892" x2="42.345" y2="38.892" xlink:href="#linear-gradient"/>
    <linearGradient id="linear-gradient5" x1="13.21" y1="38.891" x2="41.808" y2="38.891" xlink:href="#linear-gradient"/>
    <linearGradient id="linear-gradient6" x1="107.407" y1="27.889" x2="163.02" y2="27.889" xlink:href="#linear-gradient"/>
    <linearGradient id="linear-gradient7" x1="107.14" y1="27.892" x2="163.288" y2="27.892" xlink:href="#linear-gradient"/>
    <linearGradient id="linear-gradient8" x1="107.674" y1="27.894" x2="162.753" y2="27.894" xlink:href="#linear-gradient"/>
    <linearGradient id="linear-gradient9" x1="58.148" y1="27.777" x2="107.356" y2="27.777" xlink:href="#linear-gradient"/>
    <linearGradient id="linear-gradient10" x1="74.313" y1="17.239" x2="97.528" y2="17.239" xlink:href="#linear-gradient"/>
    <linearGradient id="linear-gradient11" x1="57.88" y1="27.777" x2="107.625" y2="27.777" xlink:href="#linear-gradient"/>
    <linearGradient id="linear-gradient12" x1="58.417" y1="27.777" x2="107.087" y2="27.777" xlink:href="#linear-gradient"/>
    <linearGradient id="linear-gradient13" x1="73.971" y1="17.24" x2="97.797" y2="17.24" xlink:href="#linear-gradient"/>
    <linearGradient id="linear-gradient14" x1="74.653" y1="17.239" x2="97.261" y2="17.239" xlink:href="#linear-gradient"/>
    <linearGradient id="linear-gradient15" x1="160.855" y1="27.933" x2="213.845" y2="27.933" xlink:href="#linear-gradient"/>
    <linearGradient id="linear-gradient16" x1="160.587" y1="27.933" x2="214.113" y2="27.933" xlink:href="#linear-gradient"/>
    <linearGradient id="linear-gradient17" x1="161.123" y1="27.933" x2="213.578" y2="27.933" xlink:href="#linear-gradient"/>
    <linearGradient id="linear-gradient18" x1="331.291" y1="27.957" x2="380.186" y2="27.957" xlink:href="#linear-gradient"/>
    <linearGradient id="linear-gradient19" x1="347.487" y1="17.465" x2="370.371" y2="17.465" xlink:href="#linear-gradient"/>
    <linearGradient id="linear-gradient20" x1="331.023" y1="27.957" x2="380.455" y2="27.957" xlink:href="#linear-gradient"/>
    <linearGradient id="linear-gradient21" x1="331.56" y1="27.958" x2="379.918" y2="27.958" xlink:href="#linear-gradient"/>
    <linearGradient id="linear-gradient22" x1="347.154" y1="17.466" x2="370.639" y2="17.466" xlink:href="#linear-gradient"/>
    <linearGradient id="linear-gradient23" x1="347.819" y1="17.464" x2="370.107" y2="17.464" xlink:href="#linear-gradient"/>
    <linearGradient id="linear-gradient24" x1="281.691" y1="28.148" x2="331.531" y2="28.148" xlink:href="#linear-gradient"/>
    <linearGradient id="linear-gradient25" x1="291.574" y1="28.171" x2="321.815" y2="28.171" xlink:href="#linear-gradient"/>
    <linearGradient id="linear-gradient26" x1="281.423" y1="28.148" x2="331.799" y2="28.148" xlink:href="#linear-gradient"/>
    <linearGradient id="linear-gradient27" x1="281.965" y1="28.138" x2="331.263" y2="28.138" xlink:href="#linear-gradient"/>
    <linearGradient id="linear-gradient28" x1="291.306" y1="28.171" x2="322.083" y2="28.171" xlink:href="#linear-gradient"/>
    <linearGradient id="linear-gradient29" x1="291.842" y1="28.171" x2="321.547" y2="28.171" xlink:href="#linear-gradient"/>
    <linearGradient id="linear-gradient30" x1="380.392" y1="27.91" x2="431.092" y2="27.91" xlink:href="#linear-gradient"/>
    <linearGradient id="linear-gradient31" x1="380.124" y1="27.91" x2="431.36" y2="27.91" xlink:href="#linear-gradient"/>
    <linearGradient id="linear-gradient32" x1="380.66" y1="27.91" x2="430.825" y2="27.91" xlink:href="#linear-gradient"/>
    <linearGradient id="linear-gradient33" x1="448.805" y1="28.283" x2="496.021" y2="28.283" xlink:href="#linear-gradient"/>
    <linearGradient id="linear-gradient34" x1="448.537" y1="28.283" x2="496.289" y2="28.283" xlink:href="#linear-gradient"/>
    <linearGradient id="linear-gradient35" x1="449.073" y1="28.283" x2="495.754" y2="28.283" xlink:href="#linear-gradient"/>
    <linearGradient id="linear-gradient36" x1="240.954" y1="27.986" x2="280.397" y2="27.986" xlink:href="#linear-gradient"/>
    <linearGradient id="linear-gradient37" x1="240.686" y1="27.986" x2="280.665" y2="27.986" xlink:href="#linear-gradient"/>
    <linearGradient id="linear-gradient38" x1="241.221" y1="27.986" x2="280.13" y2="27.986" xlink:href="#linear-gradient"/>
    <linearGradient id="linear-gradient39" x1="429.263" y1="27.932" x2="450.662" y2="27.932" xlink:href="#linear-gradient"/>
    <linearGradient id="linear-gradient40" x1="428.996" y1="27.932" x2="450.93" y2="27.932" xlink:href="#linear-gradient"/>
    <linearGradient id="linear-gradient41" x1="429.524" y1="27.931" x2="450.396" y2="27.931" xlink:href="#linear-gradient"/>
    <linearGradient id="New_Gradient_Swatch_2" data-name="New Gradient Swatch 2" x1="217.884" y1="27.911" x2="236.916" y2="27.911" gradientUnits="userSpaceOnUse">
      <stop offset="0" stop-color="#f8ff00"/>
      <stop offset=".536" stop-color="#ff7e1d"/>
      <stop offset=".999" stop-color="#ff008f"/>
    </linearGradient>
    <linearGradient id="New_Gradient_Swatch_21" data-name="New Gradient Swatch 2" x1="217.705" y1="27.911" x2="237.096" y2="27.911" xlink:href="#New_Gradient_Swatch_2"/>
    <linearGradient id="New_Gradient_Swatch_22" data-name="New Gradient Swatch 2" x1="218.066" y1="27.91" x2="236.735" y2="27.91" xlink:href="#New_Gradient_Swatch_2"/>
  </defs>
  <g>
    <g>
      <g>
        <path d="M19.493,55.044c-3.711,0-7.382-.041-11.05-.124-2.135-.048-4.089-.943-5.228-2.395-.953-1.215-1.273-2.687-.926-4.256,1.408-6.361,2.632-11.675,4.488-17.327,1.612-4.911,7.706-8.283,12.387-8.353l20.158-.299c2.053-.03,4.571-1.51,5.82-2.922,1.848-2.09,2.569-4.491,1.93-6.425-.451-1.362-2.049-2.321-3.887-2.331l-22.546-.127c-.919-.005-1.66-.372-2.141-1.061-.841-1.201-.732-3.124-.275-4.402.934-2.609,3.464-4.299,6.444-4.304l20.079-.038h.071c3.057,0,5.662.363,7.965,1.108,4.994,1.993,7.013,7.024,5.287,13.134-1.626,5.753-4.984,10.189-9.482,12.544,3.667,2.561,4.641,6.985,2.979,13.505-1.702,6.681-7.758,13.575-16.038,13.825-5.49.166-10.801.248-16.032.248ZM44.816,1.214h-.07l-20.079.038c-2.752.005-5.084,1.556-5.941,3.949-.412,1.152-.523,2.869.21,3.914.384.548.958.828,1.706.833l22.546.127c2.064.011,3.87,1.121,4.392,2.698.7,2.116-.061,4.714-2.036,6.947-1.326,1.5-4.013,3.071-6.213,3.103l-20.158.299c-4.496.067-10.345,3.291-11.887,7.985-1.848,5.629-3.069,10.93-4.473,17.276-.312,1.408-.027,2.725.824,3.81,1.041,1.327,2.843,2.146,4.82,2.19h0c8.828.201,17.677.159,27.054-.124,8.015-.242,13.882-6.935,15.536-13.422,1.654-6.491.629-10.802-3.134-13.178l-.406-.257.432-.21c4.568-2.228,7.982-6.638,9.615-12.417,1.67-5.913-.181-10.581-4.953-12.486-2.231-.722-4.784-1.076-7.783-1.076Z" fill="url(#linear-gradient)"/>
        <path d="M14.276,45.913l-.045-.017c-1.02-.376-1.486-1.239-1.214-2.253l2.62-9.76c.237-.88,1.429-2.013,2.372-2.013h.003l18.427.048c2.202.006,3.881,1.295,5.099,2.418l.053.049.021.069c.734,2.4.602,4.662-.418,7.118-.842,2.03-3.206,4.196-5.927,4.212l-20.991.129ZM18.008,32.405c-.672,0-1.679.963-1.855,1.617l-2.62,9.76c-.195.73.11,1.309.838,1.595l20.893-.128c2.491-.015,4.659-2.012,5.435-3.882.96-2.312,1.093-4.439.421-6.688-1.141-1.045-2.698-2.222-4.683-2.227l-18.427-.048h-.002Z" fill="url(#linear-gradient1)"/>
      </g>
      <g>
        <path d="M19.483,55.312c-3.664,0-7.38-.042-11.046-.124-2.215-.051-4.246-.984-5.433-2.498-1.004-1.28-1.341-2.828-.976-4.479,1.41-6.369,2.636-11.691,4.496-17.353,1.647-5.019,7.863-8.466,12.636-8.537l20.158-.299c1.979-.029,4.414-1.463,5.624-2.832,1.784-2.018,2.486-4.322,1.876-6.163-.415-1.255-1.91-2.138-3.635-2.148l-22.545-.127c-1.009-.006-1.825-.412-2.359-1.175-.896-1.28-.787-3.306-.307-4.646.972-2.716,3.6-4.475,6.695-4.481l20.151-.038c3.086,0,5.718.367,8.047,1.121,5.142,2.052,7.229,7.208,5.462,13.462-1.596,5.648-4.869,10.071-9.24,12.505,3.484,2.665,4.379,7.099,2.738,13.537-1.727,6.778-7.878,13.773-16.29,14.027-5.552.167-10.802.249-16.05.249ZM44.745.946l-20.079.038c-2.866.006-5.297,1.625-6.192,4.127-.435,1.215-.545,3.034.242,4.158.43.615,1.096.942,1.924.947l22.545.127c1.951.011,3.654,1.045,4.14,2.515.67,2.024-.072,4.524-1.983,6.686-1.287,1.456-3.89,2.981-6.017,3.013l-20.158.299c-4.589.068-10.56,3.367-12.136,8.169-1.851,5.638-3.074,10.947-4.481,17.302-.329,1.489-.027,2.883.875,4.032,1.09,1.389,2.968,2.247,5.025,2.294,3.661.083,7.373.124,11.033.124,5.243,0,10.487-.082,16.034-.249,8.148-.246,14.109-7.04,15.788-13.624,1.632-6.405.693-10.73-2.873-13.22l-.361-.252.39-.204c4.428-2.317,7.748-6.713,9.349-12.379,1.686-5.968-.279-10.878-5.129-12.813-2.258-.731-4.836-1.089-7.865-1.089h-.071Z" fill="url(#linear-gradient2)"/>
        <path d="M19.476,54.776c-3.703,0-7.366-.041-11.027-.124h0c-2.056-.047-3.934-.904-5.025-2.294-.902-1.149-1.204-2.544-.875-4.032,1.405-6.352,2.628-11.659,4.481-17.302,1.576-4.802,7.548-8.101,12.136-8.169l20.158-.299c2.126-.031,4.729-1.557,6.017-3.013,1.912-2.162,2.653-4.662,1.983-6.686-.486-1.47-2.188-2.504-4.14-2.515l-22.545-.127c-.84-.005-1.488-.323-1.925-.947-.786-1.124-.676-2.944-.241-4.159.895-2.501,3.326-4.121,6.192-4.126l20.15-.038c3.027,0,5.6.356,7.865,1.089,4.929,1.968,6.84,6.756,5.129,12.814-1.654,5.855-5.119,10.324-9.756,12.585h0c3.873,2.446,4.937,6.853,3.251,13.471-1.678,6.584-7.641,13.378-15.788,13.624-5.493.166-10.806.248-16.041.248ZM8.462,54.117c8.825.2,17.669.158,27.039-.124,7.882-.238,13.656-6.831,15.285-13.22,1.621-6.365.634-10.58-3.018-12.886l-.812-.513.863-.42c4.498-2.193,7.863-6.543,9.475-12.25,1.63-5.768-.163-10.316-4.795-12.165-2.194-.709-4.712-1.057-7.683-1.057h-.07l-20.079.038c-2.638.005-4.871,1.485-5.689,3.772-.39,1.089-.501,2.703.176,3.671.336.48.823.715,1.489.719l22.545.127c2.177.012,4.087,1.197,4.645,2.882.731,2.207-.051,4.902-2.09,7.209-1.365,1.543-4.136,3.16-6.41,3.194l-20.158.299c-4.404.065-10.131,3.216-11.636,7.801-1.845,5.619-3.064,10.913-4.466,17.251-.294,1.327-.026,2.567.774,3.586.992,1.265,2.717,2.046,4.616,2.089h0Z" fill="url(#linear-gradient3)"/>
        <path d="M14.228,46.182l-.093-.035c-1.142-.42-1.684-1.43-1.378-2.572l2.621-9.761c.261-.975,1.552-2.211,2.63-2.211l18.43.048c2.295.006,4.027,1.333,5.279,2.49l.106.098.043.137c.754,2.464.618,4.783-.426,7.3-.875,2.109-3.336,4.36-6.172,4.377l-21.041.129ZM18.01,32.138c-.824,0-1.907,1.039-2.115,1.815l-2.621,9.761c-.236.881.156,1.604,1.049,1.931h0s20.943-.128,20.943-.128c2.606-.016,4.872-2.097,5.681-4.047.994-2.396,1.124-4.6.409-6.937h0c-1.181-1.09-2.808-2.342-4.917-2.348l-18.428-.048Z" fill="url(#linear-gradient4)"/>
        <path d="M14.321,45.645l-.048-.019c-.843-.332-1.226-1.065-.999-1.912l2.621-9.761c.203-.759,1.306-1.815,2.113-1.815h.002l18.428.048c2.094.006,3.698,1.231,4.863,2.297l.054.05.021.071c.692,2.312.555,4.495-.43,6.867-.81,1.95-3.075,4.031-5.681,4.047l-20.944.128ZM18.008,32.405v.268c-.537,0-1.451.88-1.596,1.419l-2.621,9.761c-.153.573.071,1.018.632,1.257l20.839-.127c2.375-.015,4.446-1.926,5.19-3.717.925-2.229,1.063-4.277.432-6.438-1.088-.989-2.57-2.102-4.448-2.107l-18.428-.048v-.268Z" fill="url(#linear-gradient5)"/>
      </g>
    </g>
    <g>
      <path d="M111.93,55.139h-.044c-1.31-.008-2.964-.391-3.705-1.23-1.033-1.171-.845-3.011-.506-4.349l10.942-43.182c.721-2.845,3.213-4.963,6.201-5.272,2.58-.267,5.705.41,6.735,3.108l12.683,33.227c2.763-9.674,5.348-19.821,8.112-31.848.344-1.495,1.186-2.935,2.198-3.757,1.681-1.366,4.901-1.603,6.889-.507,1.148.633,1.702,1.63,1.561,2.807-.355,2.969-1.134,5.855-1.958,8.911-.272,1.008-.546,2.024-.806,3.05l-8.406,33.203c-.694,2.744-2.785,4.833-5.456,5.453-3.229.748-6.143-.571-7.252-3.282l-13.122-32.069-5.117,19.091-2.923,11.836c-.7,2.926-3.064,4.812-6.029,4.812ZM125.861,1.587c-.334,0-.665.018-.987.051-2.766.285-5.072,2.243-5.738,4.871l-10.942,43.182c-.307,1.213-.489,2.868.389,3.863.628.711,2.154,1.043,3.306,1.05h.04c2.709,0,4.869-1.724,5.509-4.403l2.925-11.845,5.529-20.628,13.724,33.539c1.006,2.459,3.672,3.651,6.635,2.964,2.475-.574,4.414-2.514,5.059-5.063l8.406-33.203c.26-1.028.535-2.046.808-3.058.819-3.036,1.593-5.904,1.944-8.835.145-1.213-.62-1.906-1.288-2.275-1.788-.985-4.788-.77-6.294.453-.924.751-1.696,2.078-2.014,3.462-2.84,12.356-5.49,22.73-8.34,32.646l-.221.77-13.255-34.725c-.798-2.089-3.056-2.818-5.193-2.818Z" fill="url(#linear-gradient6)"/>
      <g>
        <path d="M111.929,55.407h-.042c-1.372-.009-3.111-.421-3.905-1.321-1.11-1.258-.919-3.191-.564-4.592l10.942-43.182c.748-2.953,3.333-5.152,6.433-5.472,2.679-.28,5.929.44,7.013,3.28l12.396,32.475c2.681-9.441,5.194-19.337,7.888-31.06.356-1.55,1.234-3.047,2.29-3.905,1.757-1.427,5.117-1.676,7.188-.533,1.25.689,1.852,1.781,1.697,3.073-.358,2.988-1.138,5.883-1.965,8.948-.272,1.01-.545,2.023-.805,3.047l-8.406,33.203c-.719,2.841-2.886,5.005-5.655,5.648-3.365.779-6.399-.605-7.56-3.442l-12.822-31.334-4.911,18.324-2.922,11.83c-.728,3.046-3.197,5.016-6.289,5.016ZM125.857,1.319c-.342,0-.681.018-1.011.052-2.877.297-5.275,2.336-5.969,5.072l-10.942,43.182c-.323,1.276-.508,3.024.447,4.106.682.773,2.295,1.133,3.506,1.14l.041.268v-.268c2.836,0,5.1-1.808,5.769-4.607l2.923-11.838,5.324-19.863,13.423,32.804c1.057,2.586,3.847,3.841,6.943,3.123,2.573-.596,4.588-2.611,5.258-5.258l8.406-33.203c.26-1.026.534-2.042.806-3.05.822-3.05,1.598-5.927,1.951-8.876.127-1.062-.379-1.964-1.424-2.541-1.905-1.05-4.985-.825-6.592.48-.968.787-1.775,2.17-2.106,3.61-2.77,12.053-5.349,22.176-8.116,31.861l-.221.773-12.97-33.977c-.846-2.217-3.214-2.991-5.447-2.991Z" fill="url(#linear-gradient7)"/>
        <path d="M111.93,54.872h-.001c-1.292-.008-2.861-.364-3.546-1.14-.955-1.082-.771-2.83-.447-4.106l10.942-43.182c.693-2.736,3.092-4.774,5.97-5.072.337-.035.678-.053,1.016-.053,2.733,0,4.717,1.09,5.442,2.991l12.969,33.976h0c2.848-9.906,5.497-20.276,8.337-32.633.33-1.439,1.137-2.822,2.106-3.609,1.578-1.283,4.72-1.512,6.592-.48.74.408,1.588,1.18,1.425,2.541-.354,2.955-1.13,5.831-1.952,8.876-.28,1.039-.55,2.04-.805,3.051l-8.406,33.203c-.67,2.646-2.684,4.661-5.258,5.258-3.096.715-5.886-.537-6.943-3.123l-13.423-32.804-5.323,19.861-2.924,11.84c-.669,2.798-2.933,4.607-5.768,4.607ZM125.862,1.854c-.319,0-.642.017-.96.05-2.655.274-4.868,2.152-5.506,4.671l-10.942,43.182c-.292,1.151-.471,2.713.33,3.62.547.62,1.977.952,3.107.96h.001c2.617,0,4.676-1.647,5.286-4.198l2.925-11.847,5.736-21.4,14.024,34.274c.954,2.334,3.499,3.464,6.327,2.804,2.377-.551,4.239-2.416,4.86-4.868l8.406-33.203c.256-1.013.526-2.017.796-3.014.828-3.07,1.599-5.928,1.949-8.845.102-.855-.285-1.53-1.152-2.009-1.707-.941-4.564-.736-5.996.427-.88.716-1.617,1.986-1.922,3.314-2.842,12.367-5.493,22.745-8.344,32.66l-.443,1.541-13.54-35.473c-.912-2.389-3.76-2.647-4.942-2.647Z" fill="url(#linear-gradient8)"/>
      </g>
    </g>
    <g>
      <g>
        <path d="M62.321,55.074c-1.457,0-2.695-.499-3.439-1.397-.712-.861-.911-2.009-.574-3.322l8.078-31.531c2.102-8.206,8.992-14.996,17.555-17.299,5.304-1.427,10.006-1.394,14.375.101,6.799,2.325,10.337,8.776,8.604,15.686l-8.414,33.538c-.299,1.193-1.585,2.616-2.36,3.202-1.031.78-3.107,1.031-4.149.904-1.322-.152-2.321-.675-2.885-1.512-.543-.805-.653-1.868-.319-3.074l4.013-15.888-20.277-.003-4.236,16.352c-.621,2.397-2.804,4.057-5.56,4.23-.139.009-.277.013-.412.013ZM91.313,1.015c-2.289,0-4.69.342-7.234,1.027-8.379,2.254-15.121,8.893-17.175,16.916l-8.078,31.531c-.292,1.14-.13,2.124.468,2.848.702.849,1.941,1.28,3.405,1.191,2.521-.158,4.513-1.661,5.075-3.83l4.341-16.753,21.378.003-4.183,16.56c-.292,1.056-.207,1.966.246,2.638.475.704,1.34,1.146,2.504,1.28.978.118,2.877-.13,3.763-.799.724-.548,1.911-1.898,2.163-2.906l8.414-33.538c1.663-6.629-1.733-12.817-8.258-15.049-2.177-.744-4.442-1.117-6.829-1.117Z" fill="url(#linear-gradient9)"/>
        <path d="M95.793,24.982l-21.481-.032.306-1.246c.404-1.651.753-3.077,1.179-4.506,1.728-5.797,7.395-9.87,13.493-9.696,2.94.086,5.354,1.143,6.8,2.975,1.323,1.677,1.745,3.898,1.218,6.421-.394,1.89-.912,3.831-1.461,5.885l-.053.199ZM74.995,24.416l20.388.03c.527-1.974,1.024-3.843,1.402-5.658.493-2.363.107-4.431-1.115-5.98-1.345-1.706-3.616-2.689-6.395-2.771-5.85-.17-11.304,3.746-12.964,9.313-.423,1.416-.77,2.837-1.172,4.481l-.144.584Z" fill="url(#linear-gradient10)"/>
      </g>
      <g>
        <path d="M62.321,55.342c-1.553,0-2.847-.531-3.645-1.494-.769-.929-.986-2.16-.628-3.558l8.078-31.531c2.126-8.298,9.091-15.164,17.745-17.492,5.357-1.441,10.111-1.406,14.532.107,6.936,2.372,10.545,8.954,8.776,16.004l-8.414,33.538c-.319,1.269-1.63,2.723-2.458,3.35-1.101.834-3.231,1.094-4.342.957-1.401-.16-2.465-.723-3.075-1.628-.587-.872-.71-2.012-.354-3.295l3.927-15.549-19.726-.003-4.185,16.151c-.651,2.511-2.928,4.25-5.802,4.43-.144.009-.288.014-.429.014ZM91.313.747c-2.312,0-4.735.345-7.303,1.035-8.471,2.279-15.287,8.994-17.366,17.108l-8.078,31.531c-.314,1.226-.134,2.292.522,3.085.758.917,2.064,1.384,3.627,1.287,2.64-.165,4.727-1.747,5.318-4.029l4.289-16.553,20.827.003-4.097,16.221c-.314,1.134-.216,2.121.282,2.859.52.77,1.451,1.253,2.693,1.396,1.02.123,3.017-.141,3.957-.851.774-.585,1.99-1.972,2.262-3.054l8.414-33.538c1.699-6.769-1.768-13.088-8.43-15.367-2.206-.754-4.5-1.132-6.916-1.132Z" fill="url(#linear-gradient11)"/>
        <path d="M62.328,54.806c-1.381,0-2.548-.464-3.239-1.3-.655-.792-.836-1.859-.522-3.084l8.078-31.531c2.079-8.114,8.895-14.829,17.366-17.107,2.553-.687,5.01-1.036,7.302-1.036,2.395,0,4.722.381,6.917,1.132,6.662,2.278,10.129,8.598,8.43,15.367l-8.414,33.538c-.271,1.081-1.488,2.469-2.262,3.054-.977.739-2.96.972-3.957.851-1.241-.142-2.173-.625-2.693-1.396-.497-.738-.595-1.726-.281-2.858l4.097-16.221-20.827-.003-4.289,16.553c-.591,2.283-2.678,3.864-5.317,4.029-.131.008-.261.012-.389.012ZM91.312,1.283c-2.245,0-4.656.342-7.163,1.017-8.287,2.229-14.954,8.794-16.986,16.724l-8.078,31.531c-.27,1.053-.126,1.956.415,2.611.646.779,1.804,1.179,3.183,1.094,2.403-.151,4.3-1.575,4.832-3.629l4.394-16.954,21.928.003-4.267,16.893c-.272.983-.199,1.818.208,2.423.43.637,1.229,1.04,2.312,1.163.908.11,2.751-.126,3.571-.746.708-.536,1.837-1.845,2.065-2.758l8.414-33.539c1.628-6.488-1.696-12.545-8.084-14.73-2.169-.742-4.374-1.103-6.743-1.103Z" fill="url(#linear-gradient12)"/>
        <path d="M95.999,25.25l-22.027-.033.384-1.562c.406-1.66.757-3.094,1.186-4.533,1.762-5.909,7.54-10.069,13.757-9.887,3.02.089,5.507,1.181,7.002,3.077,1.374,1.742,1.814,4.038,1.271,6.641-.393,1.886-.909,3.819-1.456,5.864l-.116.434ZM74.654,24.683l20.934.031c.554-2.074,1.068-3.999,1.459-5.871.51-2.442.106-4.587-1.167-6.2-1.395-1.769-3.738-2.789-6.597-2.873-5.95-.176-11.534,3.824-13.228,9.504-.425,1.427-.775,2.855-1.18,4.508l-.221.901Z" fill="url(#linear-gradient13)"/>
        <path d="M95.588,24.714l-20.934-.031.222-.901c.402-1.646.75-3.068,1.179-4.508,1.658-5.56,7.031-9.51,12.864-9.51.121,0,.242.002.363.005,2.86.084,5.203,1.104,6.598,2.873,1.273,1.614,1.676,3.757,1.167,6.2-.39,1.872-.906,3.804-1.405,5.673l-.053.199ZM75.336,24.149l19.841.029c.481-1.799.972-3.653,1.346-5.444.476-2.283.108-4.274-1.064-5.759-1.295-1.642-3.495-2.59-6.193-2.669-5.709-.156-11.075,3.674-12.699,9.122-.425,1.428-.772,2.844-1.173,4.483l-.059.239Z" fill="url(#linear-gradient14)"/>
      </g>
    </g>
    <g>
      <path d="M178.227,54.958c-.067,0-.134,0-.202,0l-13.624-.057c-1.161-.005-2.157-.467-2.805-1.303-.696-.896-.914-2.126-.6-3.376l6.391-25.392c.731-2.903,3.343-4.77,6.495-4.658,1.52.057,2.725.58,3.395,1.472.621.829.776,1.958.446,3.265l-5.143,20.39c.643.005,1.276.013,1.903.02,3.029.037,5.889.073,8.886-.244,6.664-.702,12.865-4.846,16.183-10.813,2.573-4.628,3.781-8.983,3.591-12.944-.296-6.187-5.046-10.546-11.55-10.6l-16.654-.14c-1.152-.01-2.058-.416-2.622-1.173-.685-.921-.821-2.334-.373-3.875.665-2.283,2.683-4.589,5.693-4.594l16.744-.029h.022c2.306,0,4.482.588,6.587,1.157,7.508,2.028,12.295,7.968,12.805,15.887.694,10.767-5.658,26.017-18.797,33.073-4.927,2.646-10.415,3.934-16.771,3.934ZM161.515,50.353c-.274,1.089-.09,2.152.503,2.917.545.702,1.392,1.091,2.384,1.096l13.624.057c.066,0,.134,0,.2,0,6.266,0,11.67-1.266,16.518-3.87,12.942-6.951,19.199-21.967,18.515-32.567-.502-7.795-5.026-13.41-12.411-15.406-2.071-.56-4.212-1.138-6.447-1.138h-.021l-16.744.029c-2.718.005-4.591,2.185-5.18,4.209-.401,1.379-.297,2.621.287,3.406.466.627,1.205.949,2.197.957l16.654.14c6.803.056,11.77,4.625,12.08,11.11.195,4.062-1.036,8.513-3.658,13.23-3.401,6.117-9.759,10.365-16.594,11.085-3.029.32-5.905.284-8.949.247-.735-.009-1.481-.018-2.24-.022l-.341-.002,5.31-21.052c.293-1.161.173-2.107-.356-2.813-.57-.761-1.631-1.208-2.986-1.258-2.963-.119-5.279,1.56-5.956,4.254l-6.391,25.392Z" fill="url(#linear-gradient15)"/>
      <g>
        <path d="M178.227,55.226l-13.827-.058c-1.245-.005-2.316-.504-3.016-1.406-.746-.961-.982-2.275-.648-3.605l6.391-25.392c.761-3.017,3.474-4.959,6.764-4.86,1.604.06,2.882.621,3.601,1.58.671.896.841,2.103.491,3.49l-5.06,20.059c.527.005,1.048.011,1.563.018,3.017.038,5.864.073,8.854-.242,6.579-.694,12.701-4.785,15.977-10.677,2.548-4.583,3.745-8.891,3.558-12.802-.29-6.037-4.93-10.291-11.285-10.345l-16.655-.139c-1.239-.01-2.219-.454-2.835-1.282-.735-.988-.887-2.486-.415-4.109.82-2.814,3.266-4.783,5.95-4.787l16.744-.029c2.363,0,4.556.593,6.678,1.166,7.624,2.06,12.485,8.09,13.003,16.129.699,10.85-5.7,26.217-18.937,33.326-4.968,2.668-10.495,3.966-16.897,3.966ZM173.628,20.435c-2.916,0-5.304,1.768-5.983,4.46l-6.391,25.392c-.294,1.169-.093,2.317.551,3.147.597.769,1.518,1.195,2.595,1.199l13.825.058c6.312,0,11.756-1.276,16.644-3.902,13.04-7.003,19.345-22.137,18.656-32.82-.502-7.8-5.216-13.649-12.609-15.647-2.088-.564-4.247-1.147-6.514-1.147l-16.767.029c-2.447.004-4.683,1.814-5.436,4.402-.425,1.46-.305,2.787.33,3.64.511.688,1.344,1.056,2.409,1.066l16.655.139c6.653.056,11.512,4.52,11.815,10.855.192,4.013-1.028,8.416-3.625,13.088-3.359,6.042-9.639,10.238-16.388,10.949-3.022.318-5.885.283-8.917.245-.626-.008-1.259-.016-1.902-.02l-.341-.003,5.227-20.72c.309-1.226.17-2.276-.401-3.039-.62-.826-1.753-1.311-3.191-1.365-.082-.003-.163-.004-.244-.004Z" fill="url(#linear-gradient16)"/>
        <path d="M178.227,54.691l-13.825-.058c-1.077-.005-1.998-.43-2.595-1.199-.645-.831-.846-1.977-.552-3.147l6.391-25.392c.711-2.824,3.171-4.573,6.226-4.456,1.438.053,2.571.538,3.191,1.365.58.774.715,1.796.401,3.039l-5.227,20.721c.708.004,1.403.013,2.089.02l.153.002c3.037.038,5.904.073,8.917-.245,6.749-.711,13.029-4.907,16.388-10.949,2.597-4.672,3.817-9.075,3.625-13.088-.304-6.335-5.162-10.798-11.815-10.855l-16.655-.139c-1.079-.009-1.89-.367-2.41-1.065-.635-.854-.755-2.18-.33-3.64.616-2.116,2.58-4.397,5.436-4.402l16.744-.029c2.291,0,4.45.583,6.538,1.148,7.503,2.027,12.098,7.73,12.608,15.646.689,10.683-5.615,25.817-18.656,32.82-4.889,2.625-10.333,3.902-16.644,3.902ZM161.775,50.418c-.254,1.008-.088,1.988.455,2.688.493.636,1.265.988,2.174.992l13.823.058c6.22,0,11.582-1.255,16.391-3.838,12.844-6.898,19.053-21.797,18.375-32.314-.494-7.673-4.946-13.2-12.214-15.165-2.054-.555-4.178-1.129-6.376-1.129l-16.766.029c-2.581.005-4.361,2.085-4.923,4.016-.378,1.298-.289,2.454.245,3.171.414.556,1.081.842,1.984.85l16.655.139c6.951.059,12.028,4.732,12.345,11.365.197,4.113-1.045,8.612-3.692,13.373-3.442,6.192-9.879,10.492-16.799,11.221-3.045.321-5.929.286-8.98.248l-.153-.002c-.685-.008-1.379-.017-2.086-.02l-.683-.004,5.395-21.382c.272-1.079.167-1.95-.311-2.587-.521-.695-1.509-1.104-2.782-1.151-2.799-.117-5.04,1.483-5.687,4.051l-6.39,25.392Z" fill="url(#linear-gradient17)"/>
      </g>
    </g>
  </g>
  <g>
    <g>
      <g>
        <path d="M335.051,55.064c-1.168,0-2.198-.397-2.896-1.147-.819-.88-1.066-2.147-.697-3.568l8.338-32.068c1.937-7.448,8.484-13.96,16.293-16.203,5.292-1.519,10.156-1.631,14.457-.331,6.932,2.096,10.774,8.483,9.343,15.531-1.798,8.849-4.131,17.671-6.388,26.203-.647,2.442-1.294,4.891-1.933,7.352-.709,2.731-3.441,4.151-5.668,4.108-1.502.136-2.761-.275-3.51-1.164-.708-.839-.898-2.048-.537-3.404l4.003-15.851-20.26-.03-4.127,16.345c-.879,2.536-2.942,4.109-5.39,4.13-.35.065-.694.098-1.027.098ZM364.256,1.385c-2.534,0-5.214.403-8.02,1.208-7.633,2.193-14.031,8.551-15.922,15.823l-8.338,32.068c-.322,1.238-.12,2.328.57,3.068.759.815,2.062,1.147,3.481.883,2.262-.023,4.133-1.459,4.929-3.752l4.222-16.728,21.364.032-4.172,16.519c-.32,1.203-.171,2.213.429,2.925.634.752,1.726,1.099,3.083.975.032,0,.064.001.096.001,2.024,0,4.442-1.283,5.072-3.71.639-2.461,1.287-4.911,1.934-7.354,2.255-8.524,4.587-17.339,6.381-26.173,1.374-6.767-2.315-12.899-8.973-14.912-1.931-.583-3.981-.875-6.136-.875Z" fill="url(#linear-gradient18)"/>
        <path d="M347.487,25.045l.071-.326c.433-1.977.839-3.759,1.426-5.543,1.899-5.776,7.513-9.598,13.644-9.271,2.761.143,4.932,1.074,6.279,2.694,1.203,1.446,1.679,3.416,1.377,5.696-.229,1.733-.73,3.554-1.31,5.663l-.29,1.057-21.196.03ZM361.916,10.422c-5.624,0-10.672,3.589-12.425,8.921-.546,1.663-.936,3.332-1.34,5.165l20.122-.028.182-.665c.575-2.089,1.071-3.893,1.296-5.591.286-2.159-.137-3.937-1.258-5.284-1.249-1.502-3.288-2.367-5.895-2.502-.228-.011-.457-.017-.684-.017Z" fill="url(#linear-gradient19)"/>
      </g>
      <g>
        <path d="M335.051,55.332c-1.255,0-2.353-.437-3.092-1.232-.883-.949-1.153-2.305-.759-3.818l8.338-32.068c1.96-7.537,8.582-14.124,16.478-16.392,5.343-1.535,10.259-1.646,14.609-.33,7.069,2.137,10.987,8.651,9.527,15.84-1.799,8.854-4.132,17.677-6.389,26.209-.647,2.445-1.295,4.896-1.934,7.36-.742,2.853-3.633,4.363-5.932,4.308-1.574.149-2.902-.301-3.709-1.259-.766-.907-.976-2.202-.592-3.645l3.919-15.515-19.708-.029-4.076,16.142c-.92,2.659-3.082,4.311-5.648,4.332-.317.063-.679.098-1.029.098ZM364.257,1.117c-2.559,0-5.264.407-8.094,1.219-7.721,2.218-14.193,8.653-16.107,16.013l-8.338,32.068c-.346,1.329-.121,2.508.633,3.318.82.882,2.193,1.245,3.678.969,2.38-.024,4.349-1.538,5.187-3.955l4.172-16.525,20.812.031-4.087,16.184c-.338,1.273-.166,2.396.483,3.166.692.82,1.859,1.198,3.281,1.07,2.134.024,4.761-1.321,5.434-3.909.64-2.464,1.288-4.916,1.935-7.362,2.255-8.525,4.587-17.339,6.382-26.179,1.403-6.908-2.363-13.167-9.157-15.222-1.956-.592-4.031-.887-6.213-.887Z" fill="url(#linear-gradient20)"/>
        <path d="M335.073,54.794c-1.097,0-2.083-.371-2.723-1.059-.754-.81-.978-1.989-.632-3.318l8.338-32.068c1.913-7.36,8.386-13.795,16.107-16.013,5.217-1.498,10.072-1.612,14.307-.332,6.794,2.054,10.56,8.314,9.157,15.222-1.793,8.828-4.122,17.633-6.374,26.149l-.274-.008.259.068c-.644,2.437-1.291,4.879-1.928,7.333-.672,2.588-3.308,3.927-5.432,3.909-1.41.129-2.59-.249-3.282-1.07-.659-.781-.826-1.876-.483-3.166l4.087-16.184-20.812-.031-4.172,16.525c-.839,2.424-2.824,3.93-5.186,3.954-.324.061-.645.091-.957.091ZM364.256,1.652c-2.504,0-5.177.404-7.946,1.199-7.545,2.168-13.869,8.45-15.736,15.633l-8.338,32.068c-.298,1.146-.119,2.147.506,2.818.697.749,1.905,1.05,3.236.802,2.175-.026,3.968-1.395,4.725-3.577l4.267-16.908,21.916.033-4.256,16.852c-.297,1.117-.167,2.045.374,2.687.577.684,1.594.997,2.854.881,1.956.015,4.33-1.186,4.934-3.509.638-2.455,1.284-4.898,1.929-7.334l.016-.06c2.25-8.508,4.577-17.305,6.367-26.118,1.346-6.627-2.268-12.631-8.787-14.603-1.898-.573-3.936-.864-6.058-.864Z" fill="url(#linear-gradient21)"/>
        <path d="M347.154,25.313l.142-.651c.434-1.981.841-3.768,1.434-5.57,1.937-5.891,7.665-9.775,13.912-9.455,2.837.147,5.074,1.112,6.47,2.791,1.251,1.504,1.748,3.545,1.437,5.902-.233,1.754-.735,3.582-1.318,5.699l-.344,1.253-21.733.031ZM361.914,10.154c-5.737,0-10.887,3.663-12.676,9.106-.585,1.778-.988,3.55-1.419,5.516h0s20.66-.028,20.66-.028l.236-.861c.578-2.098,1.076-3.909,1.303-5.627.292-2.205-.164-4.103-1.318-5.49-1.297-1.56-3.402-2.459-6.087-2.598-.234-.012-.467-.018-.699-.018Z" fill="url(#linear-gradient22)"/>
        <path d="M347.819,24.777l.072-.326c.368-1.675.776-3.454,1.347-5.191,1.862-5.664,7.297-9.42,13.376-9.087,2.683.139,4.788,1.037,6.086,2.598,1.17,1.407,1.613,3.254,1.317,5.49-.227,1.715-.725,3.528-1.303,5.627l-.236.861-20.66.029ZM361.916,10.689c-5.561,0-10.452,3.511-12.17,8.738-.526,1.601-.914,3.248-1.261,4.813l19.584-.027.129-.468c.572-2.08,1.067-3.876,1.288-5.555.276-2.082-.127-3.79-1.198-5.078-1.2-1.443-3.172-2.275-5.702-2.406-.225-.011-.448-.017-.671-.017Z" fill="url(#linear-gradient23)"/>
      </g>
    </g>
    <g>
      <g>
        <path d="M299.481,55.418c-3.341,0-6.412-.595-9.097-1.779-7.598-3.351-10.599-12.22-7.466-22.069.597-3.068,1.302-5.737,2.031-8.424,2.529-9.317,9.154-17.057,17.288-20.201,6.931-2.678,14.618-2.758,20.562-.213,5.85,2.505,9.025,8.201,8.71,15.63-.22,5.165-3.173,16.321-6.308,21.977-3.958,7.142-10.425,12.267-17.744,14.06l-.064-.26.064.26c-2.778.681-5.455,1.02-7.977,1.02ZM313.186,1.412c-3.556,0-7.252.679-10.755,2.033-7.979,3.083-14.479,10.686-16.965,19.842-.727,2.678-1.428,5.336-2.03,8.416-3.054,9.605-.171,18.212,7.164,21.448,4.537,2.001,10.48,2.259,16.73.729,7.174-1.758,13.517-6.788,17.403-13.799,3.102-5.597,6.024-16.632,6.241-21.741.305-7.193-2.751-12.702-8.386-15.114-2.822-1.209-6.051-1.812-9.403-1.812Z" fill="url(#linear-gradient24)"/>
        <path d="M301.959,46.129c-2.265,0-4.598-.456-6.604-1.777-2.933-1.932-4.311-5.784-3.596-10.051.802-4.786,1.901-9.132,3.267-12.92,2.45-6.789,8.7-11.168,15.93-11.168h.05c7.575.021,9.923,3.593,10.559,6.586.723,3.403-.264,7.231-1.22,10.934l-.095.368c-1.858,7.214-4.53,15.091-12.772,17.256-1.612.423-3.54.772-5.52.772ZM310.956,10.748c-7.002,0-13.053,4.24-15.426,10.814-1.355,3.757-2.447,8.073-3.243,12.827-.679,4.055.609,7.701,3.362,9.515,3.592,2.368,8.341,1.815,11.692.935,7.962-2.092,10.57-9.806,12.39-16.872l.095-.368c.94-3.643,1.911-7.41,1.214-10.69-1.078-5.073-6.053-6.15-10.036-6.161h-.049Z" fill="url(#linear-gradient25)"/>
      </g>
      <g>
        <path d="M299.481,55.686c-3.397,0-6.494-.606-9.205-1.802-7.729-3.409-10.789-12.409-7.612-22.395.592-3.052,1.297-5.723,2.028-8.413,2.551-9.397,9.237-17.207,17.449-20.381,6.996-2.703,14.758-2.781,20.765-.21,5.958,2.551,9.191,8.342,8.872,15.888-.221,5.193-3.19,16.409-6.341,22.095-3.993,7.207-10.523,12.379-17.914,14.19-2.782.682-5.488,1.028-8.041,1.028ZM313.187,1.145c-3.59,0-7.32.685-10.852,2.05-8.057,3.114-14.619,10.786-17.126,20.021-.728,2.681-1.431,5.341-2.026,8.405-3.097,9.742-.156,18.479,7.311,21.773,4.639,2.045,10.536,2.305,16.902.744,7.248-1.776,13.653-6.853,17.574-13.929,3.119-5.627,6.057-16.722,6.274-21.859.31-7.311-2.806-12.914-8.548-15.373-2.855-1.223-6.119-1.833-9.508-1.833Z" fill="url(#linear-gradient26)"/>
        <path d="M299.523,55.131c-3.333,0-6.411-.582-9.03-1.737-7.466-3.293-10.404-12.044-7.311-21.773.595-3.061,1.298-5.724,2.026-8.405,2.507-9.236,9.069-16.908,17.126-20.022,3.472-1.341,7.225-2.05,10.852-2.05,3.419,0,6.706.634,9.508,1.833,5.742,2.459,8.858,8.062,8.548,15.373-.218,5.136-3.156,16.232-6.274,21.859-3.922,7.077-10.327,12.154-17.574,13.929-2.71.663-5.363.993-7.872.993ZM313.187,1.679c-3.562,0-7.248.697-10.66,2.014-7.901,3.054-14.34,10.588-16.803,19.662-.725,2.671-1.426,5.324-2.025,8.397-3.014,9.486-.194,17.974,7.009,21.152,4.483,1.977,10.363,2.23,16.558.713,7.102-1.74,13.383-6.722,17.233-13.669,3.086-5.567,5.993-16.542,6.207-21.622.301-7.076-2.697-12.492-8.224-14.858-2.735-1.171-5.95-1.79-9.296-1.79Z" fill="url(#linear-gradient27)"/>
        <path d="M301.959,46.397c-2.645,0-4.916-.613-6.75-1.821-3.023-1.992-4.445-5.946-3.713-10.319.804-4.802,1.908-9.165,3.279-12.967,2.487-6.892,8.839-11.344,16.182-11.344,7.803.021,10.213,3.708,10.87,6.797.736,3.466-.261,7.329-1.225,11.064l-.093.361c-1.876,7.288-4.581,15.247-12.964,17.448-1.973.518-3.853.781-5.587.781ZM311.006,10.481c-7.163,0-13.317,4.314-15.727,10.991-1.361,3.772-2.456,8.103-3.255,12.874-.697,4.161.636,7.909,3.479,9.783,1.745,1.15,3.918,1.733,6.456,1.733,1.689,0,3.523-.257,5.452-.763,8.102-2.128,10.742-9.924,12.581-17.064l.093-.36c.949-3.677,1.93-7.477,1.22-10.821-.616-2.896-2.903-6.353-10.298-6.374Z" fill="url(#linear-gradient28)"/>
        <path d="M301.958,45.862c-2.22,0-4.501-.445-6.455-1.734-2.843-1.872-4.177-5.621-3.479-9.782.8-4.773,1.895-9.105,3.255-12.874,2.41-6.677,8.564-10.991,15.678-10.991h.048c4.083.011,9.183,1.126,10.298,6.374.71,3.343-.27,7.142-1.218,10.816l-.094.364c-1.838,7.14-4.478,14.935-12.581,17.064-1.593.418-3.499.763-5.452.763ZM310.957,10.748v.268c-6.887,0-12.843,4.176-15.175,10.638-1.35,3.739-2.437,8.039-3.231,12.781-.662,3.949.582,7.492,3.246,9.246,3.508,2.313,8.178,1.766,11.477.9,7.822-2.055,10.398-9.687,12.198-16.68l.093-.36c.934-3.619,1.898-7.356,1.214-10.576-1.041-4.898-5.891-5.939-9.775-5.949l-.048-.268Z" fill="url(#linear-gradient29)"/>
      </g>
    </g>
    <g>
      <path d="M394.549,54.966c-1.858,0-3.716-.041-5.622-.083-1.531-.034-3.072-.068-4.637-.08-2.509-.019-3.894-1.19-3.899-3.298-.003-1.231.437-2.608.862-3.939.209-.652.424-1.326.581-1.965l5.202-21.184c.577-2.347,3.013-4.163,5.668-4.222,1.764-.039,3.042.305,3.766,1.024.726.721.978,2.225.613,3.656l-5.192,20.372c.555.008,1.105.017,1.652.027,3.035.054,5.901.106,8.966-.201,6.709-.674,13.042-5.677,15.4-12.165,1.468-4.039,2.339-7.357,2.741-10.44.394-3.013-.313-5.728-2.044-7.85-1.828-2.241-4.659-3.609-7.97-3.85-3.563-.26-7.188-.233-10.698-.206-1.687.012-3.432.025-5.155.007-1.17-.013-2.087-.399-2.653-1.117-.652-.828-.819-2.041-.482-3.505.535-2.323,2.469-4.861,5.45-4.945,5.509-.156,11.38-.276,17.261.122,5.443.368,10.077,2.574,13.047,6.211,3.013,3.689,4.213,8.552,3.472,14.064-.503,3.743-1.511,7.707-3.173,12.473-3.97,11.387-14.921,19.969-26.631,20.869-2.227.172-4.376.227-6.526.227ZM387.556,24.544l-5.202,21.184c-.162.658-.379,1.34-.591,2-.413,1.292-.84,2.628-.837,3.776.004,1.817,1.137,2.747,3.368,2.764,1.568.012,3.111.046,4.645.08,4.098.089,7.969.175,12.095-.142,11.504-.885,22.264-9.32,26.167-20.513,1.649-4.731,2.649-8.661,3.148-12.368.721-5.362-.44-10.083-3.356-13.655-2.875-3.521-7.375-5.657-12.669-6.015-5.854-.396-11.712-.277-17.209-.121-2.697.076-4.453,2.402-4.944,4.53-.299,1.301-.168,2.357.381,3.054.468.595,1.222.902,2.238.913,1.718.019,3.46.006,5.145-.007,3.519-.026,7.157-.053,10.741.208,3.46.252,6.424,1.689,8.346,4.046,1.826,2.239,2.573,5.094,2.16,8.257-.408,3.124-1.287,6.477-2.769,10.554-2.426,6.674-8.944,11.82-15.85,12.514-3.096.311-5.977.259-9.029.204-.658-.011-1.32-.024-1.989-.032l-.34-.004,5.361-21.03c.315-1.238.117-2.56-.472-3.145-.608-.604-1.77-.91-3.377-.869-2.421.054-4.639,1.694-5.16,3.814Z" fill="url(#linear-gradient30)"/>
      <g>
        <path d="M394.549,55.234c-1.836,0-3.641-.04-5.552-.082l-.076-.002c-1.53-.034-3.069-.068-4.633-.08-2.641-.02-4.159-1.319-4.164-3.565-.003-1.271.442-2.665.872-4.014.209-.653.423-1.321.579-1.955l5.202-21.184c.604-2.461,3.15-4.364,5.923-4.426,1.842-.047,3.183.331,3.96,1.102.79.784,1.071,2.393.684,3.912l-5.109,20.044c.441.006.879.014,1.314.022,3.034.054,5.889.106,8.935-.2,6.61-.664,12.851-5.595,15.176-11.99,1.461-4.022,2.328-7.321,2.727-10.383.384-2.939-.303-5.582-1.986-7.646-1.781-2.184-4.544-3.517-7.782-3.752-3.563-.26-7.18-.233-10.678-.206-1.697.012-3.437.025-5.158.007-1.253-.014-2.243-.435-2.86-1.22-.705-.895-.889-2.184-.533-3.73.558-2.42,2.58-5.064,5.704-5.153,5.522-.156,11.405-.275,17.286.122,5.518.373,10.218,2.613,13.236,6.308,3.061,3.748,4.281,8.682,3.529,14.269-.505,3.764-1.518,7.745-3.186,12.526-4.004,11.484-15.051,20.139-26.863,21.047-2.011.156-4.091.228-6.546.228ZM392.97,20.459c-.085,0-.171.001-.259.003-2.538.056-4.866,1.784-5.414,4.018l-5.202,21.184c-.16.652-.377,1.33-.586,1.985-.42,1.315-.852,2.669-.849,3.856.006,2.483,1.979,3.018,3.633,3.031,1.566.012,3.108.046,4.64.08l.076.002c1.908.042,3.711.082,5.54.082,2.441,0,4.508-.072,6.505-.226,11.607-.893,22.462-9.401,26.399-20.691,1.655-4.746,2.659-8.693,3.161-12.42.731-5.436-.449-10.229-3.414-13.859-2.922-3.579-7.488-5.75-12.857-6.112-5.856-.396-11.725-.278-17.234-.121-2.839.08-4.684,2.512-5.197,4.738-.318,1.382-.169,2.516.431,3.279.514.653,1.359,1.005,2.446,1.016,1.719.019,3.454.006,5.133-.007,3.522-.026,7.151-.054,10.736.207,3.386.247,6.283,1.649,8.158,3.948,1.778,2.181,2.505,4.965,2.102,8.053-.405,3.102-1.28,6.437-2.755,10.497-2.392,6.581-8.818,11.656-15.625,12.339-3.077.309-5.948.258-8.988.203-.557-.01-1.107-.019-1.661-.027l-.34-.005,5.276-20.701c.337-1.323.109-2.753-.543-3.401-.636-.63-1.749-.95-3.312-.95Z" fill="url(#linear-gradient31)"/>
        <path d="M394.548,54.699c-1.856,0-3.711-.041-5.615-.083-1.533-.034-3.074-.068-4.641-.08-2.997-.022-3.63-1.661-3.633-3.031-.003-1.191.431-2.546.849-3.856.216-.679.429-1.346.586-1.985l5.202-21.184c.549-2.234,2.876-3.961,5.414-4.018,1.673-.043,2.902.283,3.571.947.662.657.885,2.056.543,3.401l-5.276,20.701c.601.007,1.195.018,1.785.028l.205.004c3.075.055,5.935.104,8.997-.203,6.807-.684,13.233-5.758,15.625-12.339,1.474-4.058,2.35-7.393,2.755-10.497.404-3.088-.324-5.873-2.102-8.053-1.875-2.299-4.773-3.702-8.158-3.948-3.57-.26-7.201-.233-10.715-.208h-.18c-1.63.012-3.312.025-4.974.007-1.102-.012-1.925-.354-2.446-1.016-.601-.763-.75-1.897-.432-3.279.513-2.226,2.358-4.658,5.197-4.738,5.503-.156,11.367-.275,17.234.121,5.368.363,9.935,2.533,12.858,6.112,2.964,3.63,4.145,8.422,3.414,13.859-.501,3.728-1.505,7.675-3.161,12.42-3.936,11.29-14.792,19.798-26.399,20.691-2.219.171-4.363.226-6.506.226ZM387.816,24.607l-5.202,21.184c-.161.656-.376,1.332-.585,1.986-.417,1.305-.837,2.619-.835,3.726.004,1.664,1.019,2.481,3.102,2.497,1.569.012,3.114.046,4.648.08,4.091.09,7.954.176,12.069-.141,11.401-.877,22.066-9.239,25.934-20.334,1.643-4.711,2.639-8.624,3.136-12.315.71-5.286-.43-9.937-3.299-13.45-2.828-3.463-7.26-5.564-12.479-5.917-5.843-.396-11.693-.276-17.183-.12-2.555.072-4.223,2.291-4.691,4.323-.281,1.219-.167,2.197.33,2.828.416.528,1.099.802,2.032.812,1.654.018,3.337.006,4.963-.006h.175c3.53-.027,7.172-.055,10.764.208,3.534.258,6.565,1.729,8.534,4.143,1.873,2.298,2.64,5.223,2.218,8.461-.411,3.144-1.295,6.516-2.783,10.611-2.46,6.768-9.07,11.985-16.075,12.689-3.094.312-5.968.26-9.012.207l-.254-.005c-.59-.01-1.183-.021-1.782-.028l-.681-.008,5.445-21.359c.289-1.134.116-2.376-.401-2.889-.555-.55-1.683-.833-3.181-.791-2.305.051-4.415,1.604-4.908,3.61Z" fill="url(#linear-gradient32)"/>
      </g>
    </g>
    <g>
      <path d="M471.518,54.999c-2.764,0-5.563-.049-8.346-.182-4.831-.231-8.346-1.499-10.745-3.875-3.223-3.191-4.347-8.074-3.164-13.751,1.076-5.17,2.405-10.129,3.812-15.379l.065-.243c2.51-9.366,10.5-19.535,22.113-19.728l16.42-.272c1.659-.036,2.986.4,3.621,1.174.79.964.937,2.367.436,4.172-.487,1.758-1.828,3.893-4.002,4.129l-.727.082c-.937.108-1.999.23-2.896.241l-14.001.179c-4.293.055-8.552,3.477-9.907,7.961l-1.293,4.28,21.483.16c1.307.009,2.335.483,2.971,1.37.729,1.017.854,2.487.341,4.036-.821,2.483-2.961,4.164-5.324,4.184l-21.881.185c-.811,2.191-1.856,6.082-.367,8.774.718,1.297,1.954,2.129,3.674,2.474,1.503.302,3.27.455,5.402.47l6.171.044,6.018-.016h.024c1.765,0,3.106.561,3.684,1.541.575.975.564,2.341-.032,4.058-.642,1.847-2.494,3.747-4.79,3.804-2.837.07-5.779.127-8.762.127ZM491.822,2.103c-.047,0-.093,0-.14.001l-16.42.272c-11.335.188-19.145,10.153-21.604,19.331l-.065.242c-1.405,5.243-2.732,10.194-3.805,15.349-1.144,5.493-.073,10.203,3.016,13.262,2.302,2.279,5.702,3.497,10.394,3.721,5.766.275,11.612.189,17.069.054,2.053-.051,3.716-1.771,4.297-3.444.543-1.562.569-2.777.077-3.611-.479-.813-1.653-1.278-3.222-1.278h-.023l-6.021.016-6.173-.044c-2.167-.016-3.967-.172-5.504-.481-1.881-.377-3.24-1.299-4.037-2.74-1.633-2.953-.451-7.153.399-9.394l.065-.171,22.248-.188c2.134-.018,4.071-1.551,4.82-3.817.457-1.384.36-2.68-.269-3.556-.532-.742-1.41-1.138-2.54-1.147l-22.198-.166,1.5-4.965c1.419-4.698,5.895-8.284,10.412-8.341l14.001-.179c.869-.011,1.872-.126,2.842-.238l.73-.083c1.785-.193,3.067-2.017,3.544-3.74.451-1.627.339-2.868-.335-3.689-.506-.617-1.644-.98-3.058-.98Z" fill="url(#linear-gradient33)"/>
      <g>
        <path d="M471.518,55.266c-3.058,0-5.792-.06-8.359-.183-4.9-.234-8.472-1.527-10.92-3.952-3.29-3.257-4.44-8.228-3.237-13.996,1.078-5.181,2.406-10.135,3.812-15.381l.068-.255c2.536-9.461,10.616-19.732,22.368-19.926l16.42-.272c1.736-.016,3.149.438,3.833,1.273.849,1.035,1.012,2.519.487,4.412-.509,1.838-1.923,4.074-4.231,4.324l-.721.082c-.943.109-2.012.232-2.926.244l-14.001.179c-4.182.054-8.332,3.395-9.654,7.771l-1.19,3.938,21.126.158c1.396.01,2.498.523,3.186,1.482.779,1.087.917,2.646.378,4.276-.857,2.591-3.097,4.346-5.575,4.367l-21.696.183c-.758,2.105-1.731,5.829-.32,8.379.678,1.225,1.853,2.013,3.493,2.341,1.485.298,3.236.45,5.352.465l6.171.044,6.016-.016c1.885,0,3.312.61,3.939,1.673.617,1.046.613,2.486-.01,4.282-.672,1.934-2.618,3.923-5.036,3.983-2.397.059-5.56.127-8.769.127ZM491.81,1.835c-.044,0-.089,0-.133.001l-16.42.272c-11.474.19-19.374,10.257-21.859,19.529l-.068.255c-1.404,5.238-2.73,10.185-3.806,15.351-1.163,5.585-.066,10.382,3.09,13.507,2.351,2.328,5.808,3.57,10.57,3.798,2.558.122,5.284.182,8.333.182,3.203,0,6.361-.068,8.755-.127,2.175-.054,3.932-1.864,4.544-3.624.57-1.64.589-2.93.055-3.834-.528-.896-1.788-1.41-3.454-1.41l-6.042.016-6.173-.044c-2.15-.015-3.934-.171-5.453-.476-1.801-.361-3.097-1.238-3.855-2.607-1.553-2.808-.447-6.842.35-8.997l.064-.173,22.067-.186c2.249-.019,4.287-1.627,5.072-4,.485-1.466.374-2.85-.305-3.796-.584-.814-1.537-1.25-2.756-1.259l-21.841-.163,1.397-4.623c1.387-4.59,5.754-8.094,10.159-8.151l14.001-.179c.888-.011,1.942-.133,2.873-.24l.723-.082c2.042-.221,3.309-2.257,3.774-3.935.476-1.715.347-3.037-.385-3.93-.564-.688-1.754-1.078-3.277-1.078Z" fill="url(#linear-gradient34)"/>
        <path d="M471.513,54.731c-2.761,0-5.554-.049-8.328-.181-4.762-.228-8.219-1.47-10.57-3.798-3.156-3.125-4.254-7.922-3.09-13.507,1.076-5.166,2.402-10.113,3.805-15.351l.069-.255c2.484-9.273,10.384-19.34,21.858-19.529l16.564-.274c1.514,0,2.704.393,3.266,1.078.732.892.862,2.215.385,3.93-.502,1.81-1.863,3.728-3.773,3.935l-.724.082c-.985.113-1.992.228-2.873.24l-14.001.179c-4.405.056-8.773,3.561-10.159,8.151l-1.397,4.623,21.841.163c1.218.009,2.171.444,2.755,1.259.678.946.79,2.33.305,3.796-.785,2.374-2.823,3.981-5.072,4l-22.066.186c-.834,2.198-1.996,6.312-.415,9.169.757,1.369,2.054,2.246,3.855,2.607,1.518.305,3.301.46,5.453.476l6.173.044,6.019-.016c1.69,0,2.948.514,3.477,1.41.533.904.514,2.194-.055,3.834-.612,1.76-2.369,3.57-4.544,3.624-2.838.07-5.779.126-8.76.126ZM491.822,2.37l-.134.002-16.422.272c-11.196.186-18.915,10.048-21.349,19.133l-.069.256c-1.401,5.23-2.725,10.17-3.798,15.321-1.125,5.401-.08,10.025,2.943,13.017,2.253,2.231,5.595,3.423,10.218,3.645,5.753.274,11.594.189,17.049.054,1.932-.048,3.5-1.678,4.051-3.264.516-1.485.55-2.624.1-3.387-.43-.729-1.52-1.146-2.992-1.146l-6.044.016-6.176-.044c-2.186-.016-4.003-.175-5.555-.486-1.962-.393-3.381-1.359-4.218-2.873-1.685-3.047-.483-7.334.383-9.619l.13-.342,22.432-.189c2.019-.017,3.855-1.477,4.568-3.633.43-1.302.345-2.51-.232-3.316-.48-.669-1.284-1.027-2.324-1.035l-22.556-.168,1.604-5.307c1.451-4.804,6.035-8.472,10.664-8.532l14.001-.179c.854-.011,1.848-.125,2.808-.235l.737-.084c1.662-.179,2.863-1.91,3.317-3.546.427-1.538.331-2.698-.284-3.447-.453-.553-1.519-.883-2.852-.883Z" fill="url(#linear-gradient35)"/>
      </g>
    </g>
    <g>
      <path d="M266.594,55.183c-.302,0-.598-.026-.886-.079h0c-1.278-.236-2.735-1.323-3.045-2.945l-2.348-12.314c-1.273-6.669-6.969-6.417-11.996-6.195-2.975.132-5.545.246-6.726-1.154-.655-.776-.805-1.934-.457-3.54,1.269-5.871,5.847-5.603,11.15-5.291,3.858.225,8.232.483,12.491-1.334,2.097-.895,3.931-2.628,4.672-4.415.94-2.268.731-4.245-.573-5.425-1.27-1.15-3.401-1.896-5.43-1.899l-17.926-.031c-1.131-.002-2.037-.389-2.621-1.12-.677-.847-.876-2.089-.561-3.497.672-3.001,3.231-5.102,6.224-5.109l17.219-.044h.06c9.012,0,13.743,5.059,14.436,10.084.697,5.049-1.686,11.116-6.07,15.458-1.308,1.296-2.868,2.337-4.377,3.345-.559.373-1.134.757-1.685,1.147,1.483,2.773,2.392,5.417,2.856,8.301l1.595,9.902c.236,1.466-.288,3.58-1.996,4.761-1.323.915-2.716,1.395-4.006,1.395ZM251.062,33.033c4.288,0,8.663.864,9.779,6.71l2.348,12.314c.264,1.386,1.516,2.317,2.616,2.519h0c1.379.256,2.976-.182,4.491-1.229,1.517-1.049,1.981-2.931,1.771-4.236l-1.594-9.902c-.466-2.895-1.391-5.544-2.911-8.338l-.113-.208.192-.138c.615-.442,1.264-.875,1.891-1.294,1.488-.994,3.026-2.021,4.298-3.28,4.269-4.227,6.591-10.117,5.917-15.004-.92-6.669-7.656-9.625-13.966-9.622l-17.219.044c-2.741.007-5.086,1.936-5.702,4.691-.28,1.247-.118,2.328.456,3.046.479.599,1.241.917,2.204.918l17.926.031c2.187.004,4.405.785,5.788,2.038,1.481,1.341,1.739,3.538.708,6.027-.792,1.91-2.737,3.756-4.956,4.703-4.374,1.866-8.814,1.606-12.732,1.376-5.469-.321-9.424-.554-10.596,4.869-.309,1.433-.197,2.441.343,3.082,1.012,1.199,3.46,1.09,6.294.964.894-.039,1.828-.081,2.766-.081Z" fill="url(#linear-gradient36)"/>
      <g>
        <path d="M266.595,55.45c-.318,0-.632-.028-.935-.083-1.369-.252-2.928-1.419-3.259-3.159l-2.349-12.314c-1.229-6.443-6.803-6.195-11.72-5.978-3.049.137-5.678.252-6.943-1.249-.712-.844-.881-2.077-.514-3.769,1.318-6.098,6.227-5.81,11.428-5.501,3.832.225,8.172.48,12.37-1.313,2.036-.869,3.813-2.545,4.529-4.271.894-2.157.71-4.025-.505-5.125-1.242-1.125-3.254-1.826-5.251-1.829l-17.926-.031c-1.214-.002-2.193-.424-2.829-1.219-.729-.912-.947-2.234-.614-3.724.7-3.123,3.367-5.31,6.485-5.318l17.282-.044c9.172,0,13.991,5.18,14.699,10.315.708,5.129-1.704,11.286-6.147,15.685-1.326,1.312-2.895,2.36-4.412,3.374-.503.337-1.005.672-1.49,1.011,1.432,2.724,2.314,5.328,2.773,8.176l1.594,9.902c.249,1.545-.304,3.776-2.107,5.023-1.365.944-2.803,1.443-4.158,1.443ZM251.15,33.298c4.265,0,8.352.856,9.428,6.496l2.349,12.314c.287,1.504,1.641,2.513,2.83,2.732,1.445.265,3.124-.189,4.692-1.273,1.612-1.115,2.107-3.114,1.884-4.499l-1.594-9.902c-.461-2.86-1.359-5.471-2.828-8.218l-.112-.208.193-.136c.548-.388,1.121-.77,1.677-1.142,1.514-1.011,3.061-2.045,4.351-3.322,4.326-4.284,6.679-10.263,5.993-15.231-.676-4.904-5.32-9.853-14.169-9.853h-.062l-17.219.044c-2.866.007-5.319,2.022-5.963,4.9-.297,1.328-.117,2.49.509,3.273.531.664,1.365,1.017,2.412,1.019l17.926.031c2.124.004,4.273.758,5.609,1.968,1.392,1.261,1.626,3.348.64,5.727-.766,1.848-2.656,3.638-4.813,4.559-4.313,1.842-8.72,1.583-12.608,1.355-5.399-.32-9.657-.57-10.878,5.079-.329,1.519-.198,2.602.4,3.311,1.096,1.299,3.603,1.189,6.506,1.059.937-.042,1.896-.084,2.847-.084Z" fill="url(#linear-gradient37)"/>
        <path d="M266.597,54.916c-.286,0-.567-.025-.84-.076-1.189-.218-2.543-1.227-2.83-2.732l-2.349-12.314c-1.091-5.721-5.423-6.493-9.516-6.493-.913,0-1.821.04-2.7.078l-.055.003c-2.905.129-5.412.241-6.51-1.059-.597-.708-.729-1.791-.4-3.311,1.221-5.646,5.48-5.399,10.872-5.08,3.89.228,8.296.488,12.613-1.355,2.158-.92,4.047-2.71,4.813-4.559.986-2.378.753-4.465-.64-5.727-1.336-1.211-3.486-1.965-5.609-1.968l-17.926-.031c-1.046-.002-1.88-.354-2.412-1.019-.625-.782-.806-1.944-.509-3.273.644-2.877,3.096-4.892,5.963-4.9l17.219-.044c6.434,0,13.292,3.047,14.231,9.853.685,4.968-1.667,10.946-5.993,15.231-1.29,1.277-2.839,2.312-4.336,3.312-.623.416-1.266.846-1.885,1.29h0c1.534,2.819,2.468,5.496,2.94,8.424l1.594,9.902c.223,1.385-.272,3.384-1.884,4.499-1.278.884-2.617,1.348-3.851,1.348ZM251.062,32.766c4.312,0,8.878.823,10.042,6.928l2.349,12.314c.242,1.268,1.391,2.12,2.402,2.306,1.309.244,2.833-.179,4.29-1.186,1.421-.983,1.857-2.749,1.66-3.974l-1.594-9.902c-.462-2.866-1.378-5.489-2.882-8.253l-.226-.415.384-.276c.626-.45,1.303-.902,1.9-1.3,1.476-.986,3.003-2.006,4.257-3.247,4.21-4.17,6.503-9.971,5.839-14.777-.895-6.487-7.5-9.391-13.649-9.391l-17.27.044c-2.615.007-4.853,1.85-5.442,4.482-.261,1.167-.118,2.168.405,2.821.427.534,1.116.816,1.995.818l17.926.031c2.251.004,4.537.811,5.968,2.107,1.57,1.422,1.852,3.728.775,6.328-.817,1.972-2.818,3.874-5.098,4.846-4.433,1.893-8.907,1.629-12.853,1.397-5.539-.324-9.195-.539-10.32,4.659-.291,1.346-.197,2.279.286,2.853.929,1.099,3.315.992,6.078.87l.055-.003c.884-.039,1.799-.079,2.723-.079Z" fill="url(#linear-gradient38)"/>
      </g>
    </g>
    <g>
      <path d="M433.309,55.041c-.131,0-.26-.005-.389-.014-2.661-.197-3.786-1.532-3.646-4.33l11.535-45.487c.665-2.62,3.024-4.383,5.87-4.387h.007c1.375,0,2.714.503,3.415,1.282.636.707.687,2.415.371,3.658l-11.498,45.117c-.681,2.672-3.338,4.162-5.665,4.162ZM446.686,1.357h-.006c-2.598.004-4.749,1.605-5.353,3.984l-11.527,45.435c-.117,2.45.796,3.542,3.16,3.716,2.147.159,4.854-1.229,5.495-3.746l11.498-45.117c.311-1.221.197-2.672-.25-3.169-.594-.661-1.806-1.104-3.017-1.104Z" fill="url(#linear-gradient39)"/>
      <g>
        <path d="M433.309,55.309c-.137,0-.273-.005-.408-.015-2.804-.207-4.041-1.672-3.894-4.61l11.543-45.54c.695-2.74,3.158-4.585,6.129-4.589,1.456,0,2.874.538,3.622,1.37.721.803.761,2.61.431,3.903l-11.498,45.117c-.73,2.865-3.532,4.364-5.924,4.364ZM446.689,1.09c-2.731.004-4.986,1.686-5.62,4.186l-11.535,45.488c-.124,2.6.892,3.811,3.407,3.996,2.271.164,5.075-1.2,5.775-3.947l11.498-45.117c.293-1.15.258-2.782-.31-3.414-.651-.724-1.912-1.192-3.214-1.192Z" fill="url(#linear-gradient40)"/>
        <path d="M433.3,54.773c-.121,0-.241-.004-.36-.013-2.512-.185-3.531-1.38-3.406-3.996l.008-.053,11.527-45.435c.634-2.499,2.889-4.182,5.612-4.186h.008c1.281,0,2.573.479,3.214,1.192.507.564.647,2.096.31,3.414l-11.498,45.117c-.642,2.517-3.231,3.96-5.415,3.96ZM430.067,50.816c-.102,2.292.716,3.248,2.913,3.41,2.04.162,4.607-1.157,5.216-3.545l11.498-45.117c.308-1.209.154-2.541-.19-2.924-.546-.607-1.678-1.015-2.816-1.015h-.007c-2.473.004-4.52,1.524-5.094,3.782l-11.52,45.409Z" fill="url(#linear-gradient41)"/>
      </g>
    </g>
  </g>
  <g>
    <path d="M221.713,43.168c-.07,0-.14-.014-.204-.043-.216-.1-.394-.351-.313-.641l3.133-11.27-5.889-.002c-.204,0-.412-.139-.488-.268-.095-.162-.101-.451.056-.638l14.685-17.506c.074-.088.189-.14.324-.145.156-.007.343.054.439.151.204.206.161.47.111.652l-3.099,11.137,5.898.024c.144.012.369.083.463.23.11.173.136.452-.031.65l-14.645,17.463c-.112.134-.278.208-.439.208ZM233.041,13.015s-.01,0-.015,0c-.034.002-.053.011-.057.016l-14.685,17.506c-.05.061-.044.184-.021.222.019.029.113.09.176.09l6.365.002-3.261,11.728c-.029.106.053.187.115.216.047.021.148.014.217-.068l14.645-17.462c.063-.075.024-.19.003-.223-.015-.016-.101-.057-.176-.064l-6.356-.024,3.226-11.594c.053-.193.022-.258-.02-.301-.017-.016-.086-.044-.157-.044Z" fill="url(#New_Gradient_Swatch_2)"/>
    <g>
      <path d="M221.713,43.349c-.099,0-.193-.02-.28-.06-.287-.132-.52-.467-.412-.854l3.069-11.04-5.651-.002c-.281,0-.541-.184-.643-.356-.129-.219-.137-.595.072-.846l14.685-17.507c.107-.128.269-.203.455-.21.215-.007.444.072.575.205.302.305.192.698.156.827l-3.035,10.909,5.662.023c.211.018.486.111.614.315.145.227.177.596-.044.861l-14.646,17.463c-.143.17-.359.272-.577.272ZM233.045,12.834c-.006,0-.013,0-.019,0-.085.004-.153.032-.194.081l-14.685,17.507c-.11.132-.092.338-.038.43.043.073.193.178.332.178l6.127.002-3.197,11.499c-.059.215.096.374.215.428.133.06.323.01.43-.116l14.645-17.463c.109-.13.09-.322.017-.436-.049-.078-.208-.138-.327-.148l-6.12-.024,3.162-11.365c.062-.224.043-.367-.065-.476-.048-.049-.167-.098-.282-.098Z" fill="url(#New_Gradient_Swatch_21)"/>
      <path d="M221.713,42.987c-.047,0-.091-.009-.128-.026-.148-.068-.268-.237-.215-.429l3.197-11.499-6.127-.002c-.124,0-.276-.091-.328-.172-.067-.113-.064-.319.034-.436l14.685-17.507c.052-.061.129-.077.184-.08h.026c.103-.001.221.038.279.091.143.144.113.333.072.482l-3.162,11.366,6.119.023c.109.009.246.057.305.119l.023.029c.058.091.104.29-.017.435l-14.645,17.463c-.084.1-.199.143-.301.143ZM218.425,30.66c.01.005.019.009.024.01l6.592.002-3.324,11.957,14.65-17.462c-.013-.004-.026-.007-.037-.008l-6.577-.025,3.29-11.822c.016-.058.021-.094.022-.114h0l-14.643,17.456s.002.001.003.006Z" fill="url(#New_Gradient_Swatch_22)"/>
    </g>
  </g>
</svg>