<?xml version="1.0" encoding="UTF-8"?>
<svg id="Layer_1" xmlns="http://www.w3.org/2000/svg" version="1.1" viewBox="0 0 500 55.475">
  <!-- Generator: Adobe Illustrator 30.1.0, SVG Export Plug-In . SVG Version: 2.1.1 Build 136)  -->
  <g>
    <path d="M55.784,14.61c1.746-6.181-.316-11.277-5.398-13.305-2.302-.745-4.903-1.108-7.953-1.108l-19.916.037c-3.059.006-5.656,1.745-6.617,4.429-.474,1.325-.582,3.327.304,4.592.528.754,1.334,1.156,2.332,1.161l22.283.126c1.705.01,3.182.882,3.592,2.123.602,1.82-.091,4.097-1.855,6.092-1.196,1.353-3.602,2.77-5.558,2.799l-19.924.296c-4.717.07-10.861,3.477-12.489,8.438-1.838,5.596-3.05,10.856-4.443,17.151-.361,1.631-.027,3.162.965,4.427,1.174,1.497,3.181,2.419,5.37,2.469,3.623.082,7.296.123,10.917.123,5.187,0,10.376-.081,15.863-.246,8.315-.252,14.394-7.165,16.101-13.864,1.622-6.363.737-10.746-2.706-13.379,4.32-2.406,7.555-6.777,9.132-12.36ZM45.4,26.43l-.853.415.803.507c3.609,2.28,4.585,6.446,2.983,12.736-1.61,6.315-7.317,12.831-15.107,13.066-9.261.279-18.002.32-26.725.123-1.876-.042-3.582-.814-4.562-2.064-.79-1.007-1.055-2.233-.765-3.544,1.386-6.264,2.591-11.496,4.414-17.05,1.488-4.532,7.148-7.646,11.501-7.71l19.924-.296c2.247-.033,4.986-1.631,6.335-3.156,2.015-2.28,2.788-4.943,2.065-7.125-.551-1.665-2.438-2.836-4.591-2.848l-22.283-.126c-.659-.004-1.14-.236-1.472-.71-.67-.957-.559-2.551-.174-3.628.808-2.26,3.016-3.723,5.623-3.728l19.845-.037h.069c2.936,0,5.425.344,7.594,1.045,4.579,1.828,6.351,6.323,4.739,12.023-1.593,5.64-4.919,9.939-9.364,12.107Z" fill="#00acee"/>
    <path d="M39.475,33.63l-.105-.097c-1.238-1.143-2.95-2.455-5.218-2.461l-18.216-.047c-1.066,0-2.342,1.222-2.6,2.186l-2.591,9.647c-.302,1.129.233,2.127,1.362,2.542l.091.035,20.796-.128c2.804-.017,5.236-2.242,6.101-4.327,1.032-2.488,1.166-4.78.421-7.215l-.042-.136ZM38.119,40.576c-.735,1.77-2.782,3.659-5.129,3.674l-20.597.126c-.554-.236-.776-.676-.625-1.242l2.591-9.648c.143-.533,1.047-1.402,1.577-1.402v-.264.264s18.214.047,18.214.047c1.856.005,3.32,1.104,4.396,2.082.624,2.136.487,4.16-.427,6.363Z" fill="#00acee"/>
    <path d="M159.501,3.911c.153-1.278-.442-2.357-1.677-3.038-2.047-1.129-5.367-.883-7.104.527-1.044.848-1.911,2.327-2.263,3.86-2.663,11.587-5.146,21.368-7.797,30.699l-12.252-32.097c-1.071-2.807-4.283-3.518-6.931-3.242-3.063.317-5.619,2.491-6.358,5.409l-10.815,42.68c-.351,1.384-.539,3.296.558,4.539.785.89,2.504,1.297,3.86,1.306h.042c3.057,0,5.497-1.947,6.216-4.957l2.888-11.693,4.853-18.111,12.673,30.97c1.147,2.804,4.146,4.172,7.472,3.402,2.736-.635,4.878-2.774,5.589-5.582l8.308-32.817c.257-1.012.526-2.013.796-3.011.817-3.029,1.589-5.891,1.942-8.844ZM156.525,12.527c-.266.986-.533,1.978-.786,2.979l-8.308,32.817c-.614,2.423-2.454,4.267-4.804,4.811-2.795.652-5.31-.465-6.253-2.772l-13.861-33.875-5.669,21.151-2.891,11.709c-.602,2.521-2.638,4.149-5.224,4.149h-.001c-1.117-.007-2.53-.335-3.071-.948-.792-.896-.615-2.44-.326-3.578l10.815-42.68c.631-2.49,2.818-4.346,5.442-4.617.315-.033.634-.049.949-.049,1.169,0,3.984.255,4.885,2.616l13.383,35.061.438-1.523c2.818-9.8,5.438-20.058,8.247-32.28.302-1.313,1.03-2.569,1.9-3.276,1.415-1.149,4.239-1.351,5.926-.422.857.473,1.239,1.141,1.139,1.985-.346,2.883-1.108,5.707-1.926,8.742Z" fill="#00acee"/>
    <path d="M95.395,1.148c-4.369-1.495-9.068-1.53-14.363-.105-8.553,2.301-15.438,9.087-17.539,17.288l-7.984,31.164c-.354,1.382-.139,2.598.62,3.517.788.953,2.067,1.477,3.602,1.477.139,0,.282-.004.424-.013,2.841-.178,5.092-1.896,5.735-4.378l4.136-15.963,19.496.003-3.882,15.368c-.351,1.268-.23,2.394.35,3.257.603.894,1.655,1.451,3.04,1.609,1.098.136,3.203-.121,4.291-.945.819-.619,2.114-2.057,2.43-3.311l8.316-33.148c1.748-6.968-1.819-13.473-8.674-15.818ZM103.042,16.708l-8.316,33.149c-.226.903-1.341,2.196-2.041,2.726-.811.613-2.632.846-3.53.738-1.07-.122-1.861-.52-2.285-1.15-.402-.597-.474-1.423-.206-2.394l4.218-16.697-21.672-.003-4.343,16.757c-.525,2.03-2.4,3.438-4.775,3.587-1.363.083-2.508-.312-3.146-1.082-.535-.647-.677-1.539-.41-2.58l7.984-31.164c2.008-7.838,8.598-14.326,16.788-16.529,2.479-.667,4.861-1.005,7.08-1.005,2.341,0,4.521.356,6.665,1.09,6.314,2.16,9.599,8.147,7.99,14.559Z" fill="#00acee"/>
    <path d="M86.396,8.918c-6.144-.18-11.855,3.932-13.597,9.772-.424,1.423-.771,2.84-1.172,4.48l-.379,1.544,21.771.033.115-.429c.54-2.021,1.05-3.931,1.439-5.796.537-2.573.102-4.843-1.256-6.564-1.477-1.873-3.935-2.953-6.92-3.041ZM93.537,18.306c-.369,1.77-.855,3.603-1.33,5.381l-19.61-.028.058-.236c.396-1.62.739-3.02,1.159-4.431,1.605-5.384,6.909-9.17,12.551-9.016,2.667.078,4.841,1.015,6.121,2.638,1.158,1.468,1.521,3.436,1.051,5.692Z" fill="#00acee"/>
    <path d="M209.708,17.517c-.512-7.946-5.316-13.905-12.851-15.941-2.097-.567-4.266-1.153-6.601-1.153l-16.549.028c-2.652.004-5.07,1.95-5.88,4.732-.466,1.604-.317,3.084.41,4.061.608.818,1.577,1.256,2.802,1.267l16.461.137c6.281.053,10.867,4.258,11.154,10.225.184,3.866-.999,8.123-3.517,12.653-3.239,5.824-9.289,9.868-15.791,10.553-2.955.311-5.769.276-8.751.239-.509-.006-1.024-.013-1.545-.018l5.001-19.826c.346-1.371.178-2.564-.485-3.45-.711-.947-1.974-1.502-3.559-1.561-3.252-.098-5.934,1.822-6.685,4.804l-6.317,25.097c-.33,1.315-.097,2.613.641,3.564.692.891,1.75,1.384,2.981,1.39l13.666.057c6.328,0,11.791-1.282,16.701-3.919,13.083-7.026,19.408-22.215,18.717-32.938ZM190.491,49.523c-4.753,2.553-10.053,3.793-16.201,3.793l-13.662-.057c-.898-.004-1.661-.352-2.149-.981-.537-.692-.701-1.66-.45-2.656l6.316-25.097c.64-2.539,2.854-4.119,5.621-4.004,1.258.046,2.235.45,2.75,1.138.473.63.576,1.491.307,2.557l-5.332,21.134.675.004c.698.004,1.384.012,2.062.02l.151.002c3.015.037,5.866.072,8.876-.245,6.839-.721,13.201-4.97,16.604-11.09,2.616-4.706,3.844-9.153,3.649-13.218-.314-6.556-5.331-11.175-12.202-11.232l-16.461-.137c-.892-.008-1.552-.29-1.961-.84-.527-.709-.616-1.851-.242-3.134.555-1.908,2.315-3.964,4.866-3.969l16.57-.028c2.172,0,4.272.567,6.301,1.116,7.183,1.941,11.583,7.404,12.071,14.988.671,10.395-5.467,25.121-18.161,31.938Z" fill="#00acee"/>
  </g>
  <g>
    <path d="M373.971,1.265c-4.3-1.3-9.158-1.191-14.439.326-7.804,2.242-14.349,8.753-16.286,16.202l-8.241,31.695c-.388,1.495-.122,2.835.751,3.773.73.785,1.816,1.218,3.056,1.218.346,0,.704-.034,1.017-.097,2.536-.021,4.673-1.653,5.582-4.282l4.029-15.954,19.479.029-3.873,15.335c-.379,1.427-.172,2.706.585,3.603.798.947,2.111,1.392,3.666,1.244,2.273.054,5.13-1.438,5.863-4.258.632-2.436,1.272-4.858,1.912-7.275,2.231-8.433,4.537-17.153,6.315-25.904,1.442-7.105-2.43-13.544-9.417-15.656ZM369.26,53.302c-1.245.115-2.25-.195-2.821-.87-.535-.634-.663-1.551-.369-2.655l4.207-16.656-21.661-.033-4.217,16.711c-.748,2.156-2.52,3.509-4.67,3.535-1.315.244-2.51-.053-3.198-.793-.617-.663-.795-1.653-.5-2.786l8.241-31.695c1.845-7.1,8.096-13.309,15.553-15.452,2.737-.786,5.379-1.185,7.854-1.185,2.097,0,4.112.287,5.988.854,6.444,1.949,10.015,7.883,8.685,14.433-1.769,8.71-4.069,17.406-6.293,25.815l-.015.059c-.637,2.408-1.275,4.823-1.906,7.249-.596,2.296-2.943,3.483-4.876,3.468Z" fill="#ec2b7b"/>
    <path d="M366.081,9.317c-6.174-.317-11.836,3.522-13.75,9.345-.586,1.781-.988,3.546-1.417,5.505l-.141.643,21.48-.03.34-1.238c.575-2.092,1.072-3.899,1.302-5.632.308-2.329-.183-4.347-1.42-5.833-1.38-1.659-3.591-2.613-6.395-2.758ZM371.573,23.26l-.127.463-19.356.026c.343-1.547.726-3.175,1.246-4.757,1.698-5.165,6.532-8.636,12.029-8.636.22,0,.441.006.663.017,2.501.13,4.449.952,5.636,2.378,1.059,1.273,1.457,2.961,1.184,5.019-.219,1.659-.708,3.434-1.273,5.49Z" fill="#ec2b7b"/>
    <path d="M326.807,2.247c-5.937-2.542-13.608-2.465-20.523.207-8.117,3.137-14.725,10.856-17.246,20.144-.722,2.659-1.42,5.298-2.004,8.315-3.139,9.87-.116,18.764,7.524,22.134,2.679,1.182,5.74,1.781,9.098,1.781,2.524,0,5.198-.342,7.947-1.016,7.306-1.79,13.759-6.902,17.706-14.025,3.115-5.62,6.049-16.705,6.267-21.838.316-7.458-2.881-13.182-8.769-15.703ZM326.39,3.22c5.463,2.339,8.425,7.691,8.128,14.685-.212,5.021-3.085,15.868-6.135,21.371-3.805,6.866-10.013,11.79-17.032,13.51-6.123,1.499-11.935,1.249-16.365-.705-7.12-3.141-9.907-11.531-6.928-20.906.592-3.038,1.284-5.659,2.001-8.3,2.434-8.969,8.798-16.415,16.607-19.433,3.372-1.302,7.015-1.991,10.536-1.991,3.308,0,6.485.612,9.188,1.769Z" fill="#ec2b7b"/>
    <path d="M299.005,20.833c-1.356,3.758-2.446,8.07-3.241,12.816-.724,4.322.682,8.23,3.669,10.199,1.813,1.194,4.058,1.8,6.672,1.8,1.715,0,3.573-.26,5.522-.772,8.285-2.176,10.958-10.042,12.813-17.245l.091-.356c.953-3.692,1.939-7.509,1.211-10.935-.649-3.053-3.032-6.697-10.744-6.718-7.258,0-13.535,4.401-15.994,11.212ZM314.998,10.679v-.264l.047.264c3.839.01,8.632,1.039,9.661,5.88.676,3.182-.277,6.876-1.2,10.453l-.092.355c-1.779,6.912-4.325,14.455-12.056,16.486-3.26.855-7.876,1.397-11.343-.89-2.633-1.734-3.863-5.236-3.209-9.139.785-4.687,1.86-8.937,3.194-12.632,2.304-6.387,8.191-10.514,14.998-10.514Z" fill="#ec2b7b"/>
    <path d="M430.298,6.871c-2.982-3.651-7.628-5.865-13.082-6.234-5.812-.393-11.627-.275-17.084-.121-3.087.087-5.086,2.701-5.638,5.093-.352,1.528-.17,2.803.526,3.687.61.775,1.588,1.192,2.827,1.206,1.702.018,3.421.005,5.098-.007,3.458-.027,7.032-.053,10.554.204,3.2.232,5.931,1.55,7.691,3.709,1.663,2.04,2.342,4.653,1.963,7.557-.394,3.026-1.251,6.287-2.695,10.262-2.298,6.321-8.466,11.194-14.999,11.851-3.011.302-5.832.251-8.831.197-.43-.008-.863-.015-1.299-.022l5.049-19.811c.383-1.501.105-3.091-.676-3.866-.768-.763-2.093-1.135-3.914-1.09-2.74.061-5.256,1.941-5.854,4.374l-5.141,20.938c-.154.627-.365,1.287-.572,1.933-.425,1.333-.865,2.711-.862,3.967.005,2.22,1.505,3.504,4.116,3.524,1.546.012,3.067.045,4.579.079l.075.002c1.889.041,3.673.081,5.487.081,2.426,0,4.483-.071,6.47-.225,11.675-.898,22.592-9.452,26.55-20.802,1.648-4.726,2.649-8.66,3.149-12.38.743-5.522-.463-10.399-3.488-14.103ZM398.958,21.325c.511.508.682,1.735.397,2.856l-5.381,21.111.673.008c.592.007,1.179.018,1.762.028l.251.005c3.009.052,5.849.103,8.907-.205,6.923-.695,13.456-5.852,15.888-12.541,1.471-4.048,2.345-7.38,2.751-10.487.417-3.2-.34-6.091-2.192-8.362-1.947-2.386-4.942-3.84-8.435-4.095-3.55-.259-7.15-.232-10.638-.206h-.173c-1.607.012-3.271.025-4.906.007-.922-.01-1.597-.28-2.008-.802-.491-.624-.604-1.59-.326-2.795.462-2.008,2.11-4.202,4.636-4.272,5.426-.154,11.208-.273,16.983.119,5.158.348,9.539,2.425,12.334,5.848,2.835,3.472,3.962,8.068,3.26,13.293-.491,3.648-1.475,7.515-3.099,12.172-3.824,10.966-14.365,19.231-25.633,20.098-4.067.313-7.885.228-11.928.139-1.517-.034-3.044-.067-4.594-.079-2.059-.015-3.062-.823-3.066-2.468-.003-1.094.413-2.393.825-3.682.206-.646.419-1.315.578-1.963l5.141-20.938c.488-1.983,2.573-3.518,4.851-3.568,1.481-.042,2.596.238,3.144.782Z" fill="#ec2b7b"/>
    <path d="M497.395,2.335c-.676-.825-2.072-1.274-3.788-1.258l-16.228.269c-11.615.192-19.601,10.344-22.107,19.694l-.067.252c-1.389,5.185-2.702,10.081-3.768,15.202-1.188,5.701-.052,10.614,3.2,13.833,2.42,2.397,5.951,3.675,10.793,3.906,2.537.122,5.239.181,8.261.181,3.171,0,6.297-.067,8.666-.126,2.39-.059,4.313-2.026,4.977-3.937.616-1.775.62-3.198.01-4.232-.62-1.051-2.03-1.654-3.894-1.654l-5.946.016-6.099-.043c-2.091-.015-3.822-.165-5.289-.46-1.621-.324-2.782-1.103-3.452-2.314-1.394-2.519-.433-6.2.317-8.281l21.444-.181c2.449-.021,4.663-1.755,5.511-4.316.533-1.611.397-3.152-.374-4.226-.68-.948-1.769-1.455-3.149-1.465l-20.88-.156,1.176-3.892c1.306-4.325,5.408-7.627,9.542-7.68l13.838-.177c.904-.011,1.96-.133,2.892-.241l.712-.081c2.281-.247,3.679-2.456,4.182-4.273.52-1.871.358-3.338-.481-4.361ZM464.112,24.087l22.293.166c1.028.008,1.823.362,2.297,1.023.571.797.655,1.991.229,3.278-.705,2.131-2.519,3.574-4.515,3.591l-22.171.187-.128.338c-.856,2.258-2.044,6.496-.378,9.507.827,1.496,2.23,2.451,4.169,2.839,1.534.308,3.329.465,5.49.48l6.104.043,5.973-.016c1.455,0,2.533.413,2.958,1.133.444.754.411,1.88-.099,3.348-.544,1.567-2.095,3.179-4.004,3.226-5.392.133-11.165.217-16.851-.053-4.569-.219-7.873-1.397-10.1-3.602-2.987-2.958-4.02-7.527-2.908-12.866,1.061-5.091,2.369-9.973,3.754-15.143l.068-.253c2.406-8.979,10.035-18.727,21.101-18.91l16.231-.269.133-.002c1.317,0,2.371.326,2.819.873.608.741.702,1.887.281,3.407-.448,1.617-1.636,3.327-3.278,3.505l-.728.083c-.95.109-1.932.221-2.776.232l-13.838.177c-4.574.059-9.106,3.684-10.54,8.432l-1.585,5.246Z" fill="#ec2b7b"/>
    <path d="M270.409.307l-17.081.043c-3.082.008-5.718,2.17-6.409,5.256-.329,1.472-.114,2.779.606,3.681.629.786,1.596,1.203,2.796,1.205l17.718.03c1.974.004,3.962.696,5.19,1.808,1.201,1.088,1.382,2.934.499,5.066-.707,1.706-2.464,3.363-4.476,4.222-4.149,1.772-8.439,1.52-12.226,1.298-5.14-.305-9.993-.589-11.295,5.437-.362,1.672-.196,2.89.508,3.725,1.251,1.483,3.849,1.37,6.863,1.234,4.86-.214,10.369-.459,11.584,5.908l2.322,12.171c.328,1.72,1.869,2.872,3.222,3.122.299.054.609.082.924.082,1.34,0,2.761-.493,4.11-1.426,1.783-1.233,2.329-3.438,2.083-4.965l-1.576-9.787c-.453-2.815-1.326-5.389-2.741-8.081.479-.335.975-.666,1.473-.999,1.5-1.002,3.051-2.037,4.361-3.335,4.391-4.348,6.775-10.433,6.075-15.502-.7-5.075-5.464-10.195-14.528-10.195ZM272.033,29.746l-.379.273.223.41c1.487,2.732,2.392,5.324,2.849,8.157l1.575,9.787c.195,1.211-.236,2.957-1.64,3.928-1.44.995-2.946,1.413-4.24,1.172-.999-.183-2.135-1.025-2.374-2.279l-2.322-12.171c-1.15-6.033-5.663-6.847-9.925-6.847-.914,0-1.817.04-2.691.078l-.054.003c-2.73.121-5.089.227-6.007-.86-.477-.567-.57-1.489-.283-2.82,1.112-5.137,4.725-4.924,10.2-4.604,3.9.229,8.321.49,12.703-1.38,2.253-.961,4.23-2.841,5.038-4.79,1.065-2.569.786-4.849-.766-6.254-1.414-1.281-3.674-2.079-5.899-2.083l-17.718-.03c-.868-.002-1.55-.281-1.971-.808-.516-.645-.658-1.635-.4-2.788.582-2.602,2.794-4.423,5.378-4.43l17.069-.043c6.077,0,12.606,2.87,13.49,9.281.656,4.751-1.61,10.484-5.771,14.605-1.239,1.227-2.748,2.235-4.207,3.209-.59.394-1.259.841-1.878,1.285Z" fill="#ec2b7b"/>
    <path d="M452.72,1.693c-.739-.822-2.141-1.354-3.58-1.354-2.936.004-5.371,1.827-6.058,4.536l-11.409,45.01c-.145,2.904,1.078,4.352,3.849,4.556.133.01.268.014.403.014,2.364,0,5.134-1.482,5.855-4.313l11.364-44.592c.326-1.278.287-3.064-.426-3.858ZM432.722,50.015l11.386-44.88c.567-2.232,2.59-3.735,5.034-3.738h.007c1.125,0,2.244.403,2.783,1.003.34.379.492,1.695.188,2.89l-11.364,44.592c-.602,2.36-3.139,3.664-5.156,3.504-2.172-.16-2.981-1.105-2.88-3.37Z" fill="#ec2b7b"/>
  </g>
  <g>
    <path d="M218.799,49.708c-.103,0-.205-.021-.299-.064-.317-.146-.576-.514-.458-.938l4.585-16.495-8.619-.004c-.299,0-.603-.204-.714-.392-.139-.237-.148-.661.082-.934l21.493-25.623c.108-.129.277-.205.474-.213.229-.011.502.079.642.221.299.302.236.689.162.954l-4.536,16.301,8.633.035c.21.018.54.122.677.337.162.253.198.661-.045.951l-21.435,25.559c-.164.196-.407.304-.643.304ZM235.38,5.575c-.007,0-.015,0-.022,0-.049.003-.077.016-.084.024l-21.493,25.623c-.074.089-.064.269-.031.325.028.043.165.131.258.131l9.315.004-4.772,17.165c-.043.155.077.273.169.316.069.031.216.021.317-.1l21.435-25.558c.092-.11.035-.277.004-.326-.022-.023-.148-.084-.257-.094l-9.302-.036,4.722-16.969c.078-.282.032-.378-.029-.44-.025-.023-.126-.065-.229-.065Z" fill="#414042"/>
    <g>
      <path d="M218.8,49.972c-.145,0-.282-.029-.409-.087-.419-.193-.761-.684-.603-1.25l4.492-16.159-8.271-.004c-.411,0-.792-.269-.941-.521-.189-.32-.201-.87.105-1.238l21.494-25.624c.157-.188.394-.297.666-.307.315-.01.65.105.841.3.442.446.281,1.021.228,1.21l-4.443,15.967,8.287.033c.309.027.711.163.899.461.213.333.259.873-.065,1.261l-21.436,25.56c-.209.25-.525.399-.845.399ZM235.385,5.31c-.009,0-.019,0-.028,0-.124.005-.224.047-.285.119l-21.494,25.623c-.161.193-.135.495-.055.63.063.106.283.261.486.261l8.967.004-4.679,16.83c-.087.314.14.547.314.627.194.088.473.015.629-.17l21.435-25.559c.159-.19.131-.471.025-.637-.072-.114-.305-.201-.478-.217l-8.957-.035,4.629-16.634c.091-.329.063-.537-.096-.697-.071-.072-.244-.144-.413-.144Z" fill="#414042"/>
      <path d="M218.799,49.442c-.069,0-.134-.013-.188-.038-.216-.1-.392-.347-.315-.628l4.679-16.83-8.967-.004c-.182,0-.403-.133-.48-.252-.098-.165-.094-.467.05-.639l21.494-25.623c.076-.089.189-.113.27-.118l.039-.002c.151,0,.323.057.408.135.21.211.166.488.105.706l-4.629,16.636,8.956.034c.159.013.36.084.447.175l.033.042c.084.134.152.425-.025.637l-21.435,25.559c-.122.146-.291.209-.441.209ZM213.988,31.401c.014.007.027.013.036.015l9.649.003-4.866,17.5,21.443-25.558c-.019-.006-.038-.01-.054-.012l-9.626-.036,4.815-17.303c.024-.085.03-.137.032-.166h0l-21.432,25.549s.004.002.004.008Z" fill="#414042"/>
    </g>
  </g>
</svg>