<?xml version="1.0" encoding="UTF-8"?>
<svg id="Layer_1" xmlns="http://www.w3.org/2000/svg" xmlns:xlink="http://www.w3.org/1999/xlink" version="1.1" viewBox="0 0 891.969 156.034">
  <!-- Generator: Adobe Illustrator 30.1.0, SVG Export Plug-In . SVG Version: 2.1.1 Build 136)  -->
  <defs>
    <linearGradient id="linear-gradient" x1="3.268" y1="50.659" x2="107.248" y2="50.659" gradientUnits="userSpaceOnUse">
      <stop offset="0" stop-color="#d31280"/>
      <stop offset=".518" stop-color="#ee1f47"/>
      <stop offset="1" stop-color="#f37321"/>
    </linearGradient>
    <linearGradient id="linear-gradient1" x1="22.647" y1="70.47" x2="77.438" y2="70.47" xlink:href="#linear-gradient"/>
    <linearGradient id="linear-gradient2" x1="192.31" y1="50.72" x2="294.648" y2="50.72" xlink:href="#linear-gradient"/>
    <linearGradient id="linear-gradient3" x1="103.836" y1="50.507" x2="194.681" y2="50.507" xlink:href="#linear-gradient"/>
    <linearGradient id="linear-gradient4" x1="132.737" y1="31.582" x2="177.028" y2="31.582" xlink:href="#linear-gradient"/>
    <linearGradient id="linear-gradient5" x1="288.299" y1="50.787" x2="385.93" y2="50.787" xlink:href="#linear-gradient"/>
    <linearGradient id="linear-gradient6" x1="594.401" y1="50.831" x2="684.683" y2="50.831" xlink:href="#linear-gradient"/>
    <linearGradient id="linear-gradient7" x1="623.373" y1="31.989" x2="667.053" y2="31.989" xlink:href="#linear-gradient"/>
    <linearGradient id="linear-gradient8" x1="505.317" y1="51.176" x2="597.296" y2="51.176" xlink:href="#linear-gradient"/>
    <linearGradient id="linear-gradient9" x1="523.071" y1="51.216" x2="579.846" y2="51.216" xlink:href="#linear-gradient"/>
    <linearGradient id="linear-gradient10" x1="682.588" y1="50.747" x2="776.107" y2="50.747" xlink:href="#linear-gradient"/>
    <linearGradient id="linear-gradient11" x1="805.456" y1="51.417" x2="892.72" y2="51.417" xlink:href="#linear-gradient"/>
    <linearGradient id="linear-gradient12" x1="432.157" y1="50.884" x2="505.457" y2="50.884" xlink:href="#linear-gradient"/>
    <linearGradient id="linear-gradient13" x1="770.361" y1="50.785" x2="811.257" y2="50.785" xlink:href="#linear-gradient"/>
    <linearGradient id="linear-gradient14" x1="390.133" y1="50.748" x2="427.961" y2="50.748" xlink:href="#linear-gradient"/>
  </defs>
  <g>
    <path d="M106.107,27.753c3.286-11.633-.643-21.243-10.3-25.095-4.26-1.38-9.063-2.05-14.685-2.05l-36.191.068c-5.878.011-10.875,3.365-12.729,8.544-.925,2.584-1.118,6.511.644,9.028,1.104,1.578,2.781,2.418,4.848,2.43l40.491.228c2.781.016,5.175,1.391,5.821,3.343,1.009,3.05-.194,6.915-3.22,10.337-2.066,2.337-6.203,4.783-9.549,4.833l-36.204.538c-8.83.131-20.337,6.531-23.395,15.849-3.352,10.203-5.558,19.779-8.094,31.238-.705,3.191-.05,6.188,1.896,8.669,2.269,2.893,6.131,4.678,10.332,4.774,6.595.148,13.275.223,19.855.223,9.422,0,18.858-.146,28.848-.447,15.48-.468,26.791-13.312,29.962-25.757,2.895-11.355,1.479-19.351-4.33-24.394,7.545-4.566,13.206-12.461,16.002-22.359ZM86.19,48.353l-1.551.755c-.245.119-.406.361-.421.633-.015.271.119.53.349.676l1.459.922c6.249,3.947,7.915,11.249,5.094,22.324-2.857,11.204-12.961,22.763-26.747,23.179-16.839.508-32.711.581-48.523.223-3.187-.071-6.072-1.366-7.717-3.464-1.293-1.648-1.725-3.66-1.247-5.816,2.515-11.364,4.7-20.856,8.001-30.91,2.604-7.931,12.546-13.381,20.198-13.495l36.205-.538c4.29-.063,9.502-3.095,12.062-5.989,3.841-4.345,5.3-9.459,3.903-13.679-1.1-3.327-4.821-5.666-9.049-5.689l-40.492-.229c-.948-.005-1.604-.313-2.064-.971-1.016-1.452-.882-4.072-.225-5.91,1.361-3.804,5.095-6.268,9.513-6.276l36.061-.068h.125c5.255,0,9.693.609,13.521,1.845,7.927,3.165,10.98,10.995,8.168,20.947-2.836,10.04-8.74,17.686-16.623,21.53Z" fill="url(#linear-gradient)"/>
    <path d="M76.467,61.888c-.04-.126-.111-.24-.208-.329l-.19-.175c-2.349-2.168-5.607-4.659-9.988-4.67l-33.103-.085c-2.281,0-4.902,2.49-5.448,4.527l-4.708,17.531c-.646,2.415.535,4.632,2.935,5.516l.167.062c.084.032.174.048.264.048h.004l37.79-.231c5.418-.033,10.11-4.314,11.774-8.325,1.946-4.69,2.197-9.018.789-13.622l-.077-.247ZM72.594,74.445c-1.242,2.994-4.69,6.188-8.632,6.213l-37.261.227c-.562-.282-.738-.691-.573-1.311l4.708-17.532c.204-.761,1.615-1.991,2.141-1.991l33.096.085c3.055.007,5.509,1.815,7.328,3.446,1.016,3.635.758,7.093-.807,10.862Z" fill="url(#linear-gradient1)"/>
    <path d="M291.051,24.372c1.491-5.526,2.899-10.746,3.549-16.176.313-2.607-.937-4.891-3.43-6.266-3.957-2.183-10.38-1.702-13.745,1.032-2.021,1.642-3.695,4.487-4.371,7.427-4.64,20.189-8.96,37.284-13.543,53.571l-21.457-56.211c-2.102-5.505-8.288-6.899-13.373-6.369-5.878.607-10.782,4.783-12.203,10.391l-19.651,77.556c-.682,2.691-1.03,6.424,1.179,8.928,1.688,1.914,5.134,2.611,7.577,2.627h.076c5.914,0,10.634-3.762,12.024-9.579l5.244-21.232,8.243-30.761,22.186,54.217c2.229,5.448,8.031,8.111,14.442,6.627,5.248-1.217,9.353-5.313,10.713-10.689l15.098-59.632c.465-1.835.955-3.651,1.442-5.461ZM286.292,28.992l-15.098,59.632c-1.046,4.13-4.177,7.27-8.172,8.196-4.706,1.101-8.926-.747-10.498-4.59l-25.187-61.556c-.123-.298-.422-.482-.742-.464-.321.021-.594.244-.677.554l-10.305,38.449-5.256,21.283c-1.011,4.23-4.451,6.964-8.761,6.964-2.102-.014-4.308-.659-5.023-1.47-1.287-1.456-.821-4.272-.429-5.821l19.652-77.555c1.07-4.222,4.783-7.367,9.24-7.828.548-.057,1.102-.085,1.647-.085,1.968,0,6.705.416,8.176,4.271l24.318,63.71c.115.301.403.507.732.482.322-.014.6-.232.689-.542l.796-2.768c5.12-17.807,9.885-36.459,14.997-58.697.512-2.231,1.736-4.353,3.193-5.538,2.327-1.888,7.154-2.224,9.933-.691,1.28.707,1.832,1.643,1.687,2.861-.623,5.192-2.01,10.334-3.48,15.779-.484,1.795-.971,3.602-1.432,5.424Z" fill="url(#linear-gradient2)"/>
    <path d="M177.608,2.377c-8.086-2.768-16.767-2.835-26.536-.207-15.799,4.25-28.518,16.792-32.402,31.953l-14.507,56.63c-.705,2.754-.264,5.193,1.276,7.055,1.578,1.906,4.107,2.956,7.124,2.956.269,0,.543-.008.817-.026,5.492-.344,9.849-3.687,11.1-8.517l7.37-28.446,33.885.005-6.813,26.975c-.699,2.522-.444,4.783.737,6.538,1.222,1.812,3.317,2.936,6.054,3.249,2.037.253,6.101-.166,8.343-1.864,1.467-1.11,4.038-3.838,4.689-6.432l15.111-60.235c3.275-13.057-3.405-25.243-16.247-29.635ZM190.534,31.177l-15.111,60.236c-.365,1.459-2.278,3.662-3.434,4.537-1.26.952-4.379,1.373-5.877,1.193-1.72-.196-2.97-.806-3.616-1.763-.605-.898-.7-2.189-.269-3.749l7.664-30.34c.057-.224.007-.462-.135-.645-.142-.182-.36-.289-.592-.289l-39.382-.004c-.342,0-.64.231-.726.562l-7.891,30.45c-.872,3.369-4.011,5.707-7.998,5.957-2.232.13-4.088-.482-5.093-1.695-.813-.983-1.02-2.375-.597-4.025l14.507-56.63c3.583-13.984,15.349-25.563,29.976-29.498,4.441-1.195,8.704-1.801,12.67-1.801,4.171,0,8.053.635,11.868,1.94,11.088,3.794,16.86,14.306,14.034,25.563Z" fill="url(#linear-gradient3)"/>
    <path d="M161.036,16.456c-11.463-.347-22.188,7.357-25.449,18.293-.78,2.62-1.41,5.195-2.14,8.177l-.689,2.806c-.055.224-.004.46.138.641.142.181.359.287.589.288l39.561.059h0c.339,0,.637-.228.725-.556l.224-.835c.979-3.664,1.902-7.125,2.609-10.516,1.022-4.899.183-9.237-2.427-12.545-2.825-3.581-7.492-5.645-13.142-5.811ZM173.255,34.112c-.608,2.914-1.383,5.895-2.259,9.18l-34.104-.049c.667-2.726,1.259-5.116,1.975-7.518,2.819-9.454,12.088-16.12,22.067-15.848,4.62.135,8.369,1.736,10.555,4.508,1.962,2.487,2.573,5.851,1.765,9.727Z" fill="url(#linear-gradient4)"/>
    <path d="M361.931,3.138c-3.858-1.042-7.848-2.12-12.192-2.12l-30.072.052c-5.149.008-9.839,3.766-11.405,9.139-.914,3.141-.599,6.07.863,8.036,1.25,1.683,3.217,2.583,5.687,2.604l29.912.25c10.995.093,19.024,7.44,19.525,17.865.329,6.882-1.79,14.483-6.297,22.592-5.769,10.373-16.543,17.575-28.119,18.795-5.33.561-10.423.499-15.814.431l-1.857-.021,8.855-35.104c.686-2.718.337-5.105-1.009-6.903-1.43-1.906-3.93-3.02-7.044-3.136-6.28-.21-11.449,3.548-12.898,9.296l-11.479,45.605c-.656,2.614-.183,5.208,1.299,7.118,1.401,1.805,3.534,2.805,6.006,2.815l24.833.104h.003c11.625,0,21.668-2.359,30.703-7.211,24.05-12.916,35.676-40.843,34.405-60.563-.952-14.774-9.889-25.856-23.905-29.644ZM349.813,90.33c-8.525,4.579-18.039,6.804-29.081,6.804l-24.826-.104c-1.396-.005-2.573-.535-3.314-1.492-.833-1.074-1.083-2.599-.683-4.183,0,0,0,0,0,0l11.477-45.605c1.039-4.123,4.534-6.72,8.979-6.72.159,0,.32.003.481.01,2.057.076,3.628.704,4.425,1.768.716.955.861,2.305.431,4.013l-9.688,38.403c-.057.224-.007.46.134.643s.358.29.588.291l1.227.008c1.078.005,2.139.018,3.188.03l.828.01c5.504.069,10.702.133,16.216-.45,12.667-1.335,24.448-9.203,30.748-20.535,4.823-8.675,7.086-16.891,6.725-24.418-.59-12.33-10.013-21.017-22.915-21.125l-29.912-.25c-1.374-.012-2.373-.424-2.968-1.224-.817-1.098-.935-2.935-.322-5.038.934-3.208,3.874-6.664,8.124-6.672l30.109-.051c3.848,0,7.613,1.018,11.255,2.001,12.724,3.438,20.518,13.12,21.383,26.56,1.203,18.655-9.816,45.087-32.608,57.327Z" fill="url(#linear-gradient5)"/>
    <path d="M666.492,2.582c-7.954-2.405-16.925-2.207-26.661.59-14.427,4.144-26.528,16.188-30.113,29.972l-14.975,57.595c-.773,2.973-.227,5.656,1.54,7.556,1.472,1.581,3.639,2.451,6.103,2.451.646,0,1.327-.062,1.925-.176,4.906-.071,9.031-3.239,10.794-8.346l7.178-28.424,33.85.05-6.8,26.924c-.754,2.836-.322,5.402,1.215,7.223,1.619,1.919,4.206,2.817,7.218,2.528,4.427.083,9.96-2.767,11.398-8.299,1.147-4.425,2.312-8.826,3.474-13.216,4.056-15.334,8.25-31.19,11.485-47.113,2.701-13.307-4.549-25.362-17.63-29.316ZM680.767,31.216c-3.211,15.809-7.386,31.597-11.425,46.868l-.176.666c-1.108,4.192-2.22,8.395-3.316,12.616-.973,3.742-4.878,5.745-8.153,5.745-.017,0-.034,0-.051,0-2.025.186-3.609-.283-4.483-1.318-1.02-1.21-.846-2.924-.518-4.158l7.645-30.267c.057-.224.007-.461-.136-.644-.142-.182-.359-.289-.591-.29l-39.361-.06h0c-.344,0-.644.233-.728.566l-7.645,30.305c-1.252,3.608-4.235,5.877-7.786,5.919-.043,0-.086.005-.128.013-2.134.395-4.05-.058-5.126-1.214-.94-1.012-1.2-2.561-.731-4.362l14.975-57.595c3.289-12.653,14.438-23.723,27.743-27.545,4.907-1.409,9.64-2.124,14.064-2.124,3.738,0,7.326.511,10.664,1.52,11.324,3.425,17.601,13.853,15.264,25.359Z" fill="url(#linear-gradient6)"/>
    <path d="M651.978,17.181c-11.563-.591-22.155,6.601-25.735,17.495-1.073,3.258-1.811,6.492-2.596,10.077l-.256,1.168c-.049.222.006.454.148.631.143.177.357.279.584.279h0l39.033-.055c.338,0,.633-.226.723-.552l.619-2.258c1.052-3.825,1.961-7.128,2.385-10.328.588-4.445-.362-8.31-2.748-11.178-2.645-3.18-6.849-5.006-12.158-5.281ZM663.489,33.192c-.39,2.952-1.266,6.14-2.293,9.876l-.08.291-33.665.045c.564-2.506,1.209-5.131,2.04-7.659,2.984-9.078,11.481-15.177,21.145-15.177.387,0,.775.01,1.166.03,4.33.225,7.686,1.626,9.703,4.052,1.784,2.145,2.451,5.019,1.984,8.542Z" fill="url(#linear-gradient7)"/>
    <path d="M580.867,4.395c-10.963-4.693-25.116-4.557-37.858.366-14.968,5.786-27.149,20.004-31.792,37.107-1.318,4.852-2.589,9.663-3.633,15.079-5.826,18.318-.167,34.849,14.083,41.135,4.964,2.19,10.628,3.301,16.835,3.301,4.645,0,9.563-.628,14.62-1.868,13.478-3.302,25.379-12.724,32.652-25.85,5.705-10.295,11.082-30.607,11.481-40.014.588-13.881-5.386-24.544-16.389-29.256ZM593.835,33.504c-.383,9.043-5.559,28.585-11.056,38.501-6.813,12.295-17.92,21.11-30.473,24.185-10.967,2.683-21.357,2.244-29.257-1.239-12.568-5.544-17.461-20.444-12.155-37.159,1.072-5.501,2.326-10.248,3.625-15.029,4.362-16.072,15.751-29.41,29.724-34.81,6.043-2.334,12.569-3.568,18.874-3.568,5.912,0,11.584,1.091,16.402,3.155,9.623,4.12,14.841,13.583,14.315,25.963Z" fill="url(#linear-gradient8)"/>
    <path d="M559.114,17.732c-13.508,0-25.192,8.192-29.769,20.87-2.479,6.869-4.473,14.749-5.924,23.419-1.366,8.151,1.313,15.54,6.995,19.283,3.419,2.252,7.637,3.395,12.536,3.395,3.178,0,6.618-.48,10.225-1.427,15.45-4.057,20.396-18.581,23.819-31.876l.168-.657c1.753-6.789,3.564-13.809,2.205-20.204-1.237-5.819-5.755-12.763-20.256-12.803ZM573.849,49.896l-.167.646c-3.18,12.353-7.717,25.831-21.372,29.419-5.778,1.517-13.94,2.484-20.01-1.518-4.533-2.984-6.642-9.06-5.503-15.856,1.42-8.472,3.36-16.151,5.769-22.824,4.078-11.305,14.499-18.61,26.549-18.61.015,0,.028,0,.043,0,.013,0,.026,0,.04,0,6.7.018,15.059,1.784,16.825,10.091,1.192,5.613-.519,12.241-2.174,18.651Z" fill="url(#linear-gradient9)"/>
    <path d="M769.212,13.011c-5.553-6.797-14.184-10.918-24.302-11.602-10.602-.717-21.184-.503-31.117-.221-6.008.17-9.89,5.217-10.954,9.836-.691,3.005-.312,5.541,1.098,7.332,1.254,1.593,3.231,2.45,5.719,2.477,3.021.032,6.086.009,9.051-.011h.228c6.249-.051,12.716-.101,19.117.366,5.606.408,10.384,2.704,13.45,6.465,2.889,3.543,4.065,8.094,3.402,13.161-.708,5.439-2.251,11.314-4.857,18.488-4.081,11.226-15.03,19.88-26.626,21.045-5.428.544-10.544.454-15.958.355l-1.412-.023,8.94-35.08c.77-3.02.197-6.132-1.426-7.743-1.559-1.546-4.127-2.281-7.658-2.197-5.307.118-10.186,3.781-11.349,8.52l-9.342,38.046c-.277,1.127-.657,2.314-1.028,3.472-.79,2.474-1.605,5.033-1.6,7.43.011,4.439,3.085,7.113,8.223,7.151,2.806.021,5.566.083,8.311.144l.174.003c3.423.075,6.657.146,9.95.146,4.432,0,8.186-.131,11.814-.412,21.503-1.654,41.609-17.404,48.896-38.302,3.014-8.638,4.843-15.833,5.757-22.644,1.379-10.245-.868-19.306-6.5-26.203ZM772.322,38.758c-.885,6.576-2.663,13.557-5.597,21.97-6.854,19.655-25.739,34.467-45.928,36.021-7.33.562-14.232.411-21.602.25-2.76-.061-5.537-.122-8.358-.144-4.272-.032-4.824-2.014-4.827-3.736-.005-1.869.74-4.2,1.464-6.462.377-1.185.768-2.41,1.064-3.616l9.342-38.047c.808-3.286,4.291-5.828,8.107-5.913,2.433-.064,4.323.37,5.164,1.203.637.633,1.018,2.523.522,4.472l-9.779,38.361c-.057.223-.009.459.132.642.14.183.355.291.585.293l1.224.015c1.074.013,2.14.032,3.195.05l.539.01c5.463.094,10.619.185,16.191-.377,12.856-1.291,24.987-10.863,29.5-23.278,2.69-7.401,4.291-13.507,5.038-19.216.785-6.025-.648-11.477-4.146-15.767-3.668-4.497-9.299-7.237-15.854-7.715-6.463-.472-13.01-.423-19.391-.376l-.428.002c-2.882.02-5.865.042-8.788.01-1.435-.016-2.468-.41-3.068-1.172-.746-.948-.902-2.485-.451-4.446.777-3.377,3.523-7.064,7.715-7.182,9.854-.279,20.348-.492,30.789.215,9.166.619,16.937,4.295,21.882,10.353,5.018,6.142,7.01,14.296,5.763,23.581Z" fill="url(#linear-gradient10)"/>
    <path d="M891.135,4.768c-1.359-1.659-4.075-2.597-7.477-2.561l-29.489.489c-21.493.355-36.26,19.089-40.885,36.344l-.156.584c-2.514,9.387-4.889,18.254-6.821,27.539-2.213,10.616-.074,19.787,6.021,25.822,4.535,4.492,11.111,6.884,20.104,7.314,4.611.222,9.533.33,15.048.33,5.754,0,11.449-.122,15.768-.228,4.684-.117,8.442-3.941,9.733-7.658,1.196-3.442,1.182-6.241-.043-8.317-1.265-2.144-4.079-3.374-7.724-3.374l-10.797.029-11.081-.079c-3.755-.027-6.853-.295-9.471-.821-2.719-.544-4.657-1.834-5.764-3.833-2.303-4.161-.794-10.328.451-13.939l38.439-.324c4.772-.041,9.08-3.399,10.72-8.357,1.045-3.159.761-6.203-.781-8.353-1.382-1.927-3.569-2.956-6.326-2.976l-36.939-.276,1.847-6.113c2.284-7.56,9.433-13.33,16.63-13.423l25.146-.321c1.684-.021,3.622-.245,5.33-.442l1.292-.146c4.52-.489,7.264-4.783,8.24-8.31,1.014-3.649.671-6.543-1.017-8.601ZM888.854,12.453c-.747,2.693-2.68,5.539-5.318,5.824l-1.325.15c-1.7.195-3.458.397-4.968.417l-25.146.321c-8.626.111-17.164,6.928-19.859,15.856l-2.881,9.532c-.068.226-.026.471.114.662.14.19.361.303.598.305l40.511.302c1.618.012,2.854.547,3.571,1.545.896,1.25,1.011,3.177.314,5.284-1.181,3.568-4.193,5.983-7.498,6.01l-40.289.34c-.31.002-.586.195-.695.484l-.232.614c-1.602,4.225-3.815,12.168-.643,17.904,1.614,2.919,4.335,4.781,8.085,5.532,2.835.569,6.145.859,10.118.888l11.099.079,10.854-.029c2.337,0,4.104.631,4.728,1.689.691,1.171.609,3.007-.242,5.456-.905,2.605-3.458,5.282-6.586,5.358-9.763.241-20.222.396-30.566-.096-8.11-.389-13.952-2.459-17.861-6.329-5.241-5.19-7.044-13.25-5.078-22.694,1.92-9.213,4.289-18.058,6.812-27.473l.125-.461c4.301-16.053,17.911-33.479,37.632-33.807l29.489-.489.237-.003c2.137,0,3.874.503,4.536,1.312.941,1.146,1.064,3.001.367,5.515Z" fill="url(#linear-gradient11)"/>
    <path d="M493.977,48.785c8.14-8.06,12.558-19.367,11.255-28.805-1.316-9.543-10.22-19.172-27.145-19.172l-31.039.079c-5.953.016-11.042,4.185-12.377,10.138-.648,2.901-.205,5.501,1.248,7.32,1.29,1.613,3.249,2.468,5.665,2.472l32.196.056c3.409.006,6.83,1.19,8.929,3.091,1.933,1.751,2.194,4.799.717,8.362-1.214,2.929-4.251,5.782-7.736,7.269-7.38,3.152-15.083,2.697-21.877,2.299-9.244-.549-18.799-1.115-21.302,10.47-.71,3.28-.356,5.705,1.083,7.41,2.516,2.983,7.409,2.762,13.083,2.508,8.943-.395,18.188-.803,20.272,10.128l4.219,22.117c.66,3.456,3.746,5.77,6.457,6.27.589.107,1.199.162,1.812.162,2.588,0,5.318-.942,7.895-2.724,3.507-2.425,4.583-6.758,4.099-9.758l-2.863-17.784c-.804-4.999-2.318-9.568-4.75-14.324.697-.479,1.41-.955,2.124-1.433,2.755-1.84,5.604-3.742,8.035-6.15ZM480.601,54.444l-.689.496c-.307.221-.401.635-.221.967l.406.746c2.66,4.887,4.278,9.521,5.094,14.583l2.862,17.784c.318,1.976-.381,4.821-2.666,6.401-2.454,1.696-4.992,2.409-7.144,2.009-1.563-.287-3.34-1.596-3.712-3.543l-4.219-22.117c-1.159-6.076-4.339-13.051-18.772-13.051-1.664,0-3.301.071-4.923.142-.001,0-.116.006-.117.006-4.557.203-8.863.393-10.291-1.296-.698-.83-.818-2.338-.355-4.482,1.884-8.704,7.858-8.355,17.769-7.776,7.165.42,15.29.898,23.411-2.568,4.264-1.819,8.015-5.394,9.554-9.107,2.064-4.979,1.488-9.428-1.581-12.207-2.701-2.448-7-3.972-11.22-3.979l-32.196-.055c-1.342-.002-2.379-.413-2.998-1.188-.793-.991-.999-2.566-.581-4.435.981-4.383,4.7-7.452,9.043-7.463l31.016-.079c10.718,0,22.225,5.015,23.77,16.218,1.161,8.407-2.872,18.575-10.272,25.904-2.201,2.179-4.912,3.99-7.534,5.741-1.073.716-2.289,1.528-3.435,2.351Z" fill="url(#linear-gradient12)"/>
    <path d="M809.933,3.575c-1.479-1.646-4.252-2.709-7.063-2.709-5.685.008-10.4,3.547-11.733,8.808l-20.73,81.79c-.013.048-.021.097-.022.146-.286,5.697,2.229,8.663,7.688,9.065.261.019.522.028.788.028,4.585,0,9.961-2.886,11.366-8.403l20.65-81.03c.656-2.573.543-6.043-.942-7.697ZM807.56,10.428l-20.65,81.03c-1.002,3.927-5.23,6.069-8.588,5.804-3.535-.26-4.688-1.591-4.541-5.267l20.671-81.479c.944-3.719,4.33-6.221,8.435-6.228,1.816,0,3.667.647,4.5,1.573.357.398.703,2.486.174,4.566Z" fill="url(#linear-gradient13)"/>
    <path d="M425.278,43.015c-.041-.004-.082-.005-.124-.006l-8.202-.033,4.925-17.698c.431-1.545-.228-2.507-.659-2.942-.499-.508-1.267-.814-2.052-.814-.016,0-.077,0-.093.001-.776.031-1.453.355-1.921.913l-26.374,31.442c-.742.89-.856,2.253-.273,3.244.406.687,1.32,1.379,2.448,1.379l8.175.004-4.983,17.928c-.369,1.326.286,2.713,1.559,3.298.357.163.735.244,1.128.244.831,0,1.648-.383,2.187-1.026l26.304-31.364c.773-.925.852-2.289.194-3.319-.442-.698-1.28-1.168-2.237-1.251ZM402.138,70.915l4.117-14.806c.126-.452.033-.936-.251-1.309-.284-.373-.725-.592-1.194-.593l-8.697-.002,19.832-23.643-4.117,14.796c-.125.451-.033.934.249,1.307.282.373.723.593,1.19.595l8.689.033-19.818,23.622Z" fill="url(#linear-gradient14)"/>
  </g>
  <g>
    <path d="M152.679,139.287l-6.601-7.314v7.314h-2.093v-16.031h2.093v7.429l6.624-7.429h2.645l-7.268,8.027,7.337,8.004h-2.737Z" fill="#fff"/>
    <path d="M170.918,133.767h-10.074c.077,1.242.502,2.212,1.276,2.91s1.714,1.046,2.818,1.046c.904,0,1.66-.21,2.265-.632.606-.422,1.031-.985,1.277-1.691h2.254c-.337,1.211-1.012,2.197-2.024,2.956-1.012.759-2.27,1.139-3.772,1.139-1.196,0-2.266-.268-3.208-.805-.943-.537-1.683-1.299-2.22-2.289-.537-.989-.805-2.135-.805-3.438s.261-2.445.782-3.427c.521-.981,1.253-1.736,2.196-2.266.943-.529,2.028-.793,3.255-.793,1.196,0,2.254.261,3.174.782s1.629,1.238,2.127,2.15c.498.913.748,1.943.748,3.093,0,.399-.023.821-.069,1.265ZM168.296,130.006c-.353-.575-.832-1.012-1.438-1.311-.606-.299-1.276-.449-2.013-.449-1.058,0-1.959.337-2.702,1.012-.744.675-1.169,1.61-1.277,2.806h7.958c0-.797-.176-1.483-.529-2.058Z" fill="#fff"/>
    <path d="M186.903,133.767h-10.074c.077,1.242.502,2.212,1.276,2.91s1.714,1.046,2.818,1.046c.904,0,1.66-.21,2.265-.632.606-.422,1.031-.985,1.277-1.691h2.254c-.337,1.211-1.012,2.197-2.024,2.956-1.012.759-2.27,1.139-3.772,1.139-1.196,0-2.266-.268-3.208-.805-.943-.537-1.683-1.299-2.22-2.289-.537-.989-.805-2.135-.805-3.438s.261-2.445.782-3.427c.521-.981,1.253-1.736,2.196-2.266.943-.529,2.028-.793,3.255-.793,1.196,0,2.254.261,3.174.782s1.629,1.238,2.127,2.15c.498.913.748,1.943.748,3.093,0,.399-.023.821-.069,1.265ZM184.281,130.006c-.353-.575-.832-1.012-1.438-1.311-.606-.299-1.276-.449-2.013-.449-1.058,0-1.959.337-2.702,1.012-.744.675-1.169,1.61-1.277,2.806h7.958c0-.797-.176-1.483-.529-2.058Z" fill="#fff"/>
    <path d="M195.401,127.2c.82-.483,1.775-.725,2.864-.725,1.119,0,2.135.269,3.047.805.912.537,1.629,1.292,2.15,2.265.521.974.782,2.104.782,3.393,0,1.273-.261,2.408-.782,3.404-.521.997-1.238,1.771-2.15,2.323-.913.552-1.928.828-3.047.828-1.074,0-2.021-.242-2.841-.725s-1.445-1.084-1.875-1.806v8.303h-2.093v-18.584h2.093v2.323c.414-.721,1.031-1.323,1.852-1.806ZM201.531,130.455c-.384-.705-.901-1.242-1.553-1.61-.652-.368-1.369-.552-2.15-.552-.767,0-1.476.188-2.127.563-.652.376-1.173.92-1.564,1.633-.391.713-.587,1.537-.587,2.472,0,.951.196,1.783.587,2.496.391.713.912,1.257,1.564,1.633.651.375,1.36.563,2.127.563.782,0,1.499-.188,2.15-.563.651-.376,1.169-.92,1.553-1.633.383-.713.575-1.552.575-2.519,0-.95-.192-1.778-.575-2.484Z" fill="#fff"/>
    <path d="M208.799,124.222c-.276-.276-.414-.613-.414-1.012s.138-.736.414-1.012.613-.414,1.012-.414c.383,0,.709.138.978.414.268.276.402.613.402,1.012s-.134.736-.402,1.012c-.269.276-.595.414-.978.414-.399,0-.736-.138-1.012-.414ZM210.823,126.683v12.604h-2.093v-12.604h2.093Z" fill="#fff"/>
    <path d="M225.98,127.844c.95.928,1.426,2.266,1.426,4.013v7.429h-2.07v-7.13c0-1.257-.314-2.22-.943-2.887s-1.487-1-2.576-1c-1.104,0-1.982.345-2.634,1.035s-.978,1.694-.978,3.013v6.969h-2.093v-12.604h2.093v1.794c.414-.644.978-1.142,1.691-1.495.713-.353,1.499-.529,2.357-.529,1.533,0,2.775.464,3.726,1.392Z" fill="#fff"/>
    <path d="M240.619,127.188c.82.476,1.43,1.074,1.829,1.794v-2.3h2.116v12.88c0,1.15-.245,2.174-.736,3.071s-1.192,1.598-2.104,2.104c-.913.506-1.975.759-3.186.759-1.656,0-3.036-.391-4.14-1.173-1.104-.782-1.756-1.848-1.955-3.197h2.07c.23.767.705,1.384,1.426,1.852s1.587.702,2.599.702c1.15,0,2.089-.36,2.817-1.081.728-.721,1.093-1.733,1.093-3.036v-2.645c-.414.736-1.027,1.35-1.84,1.84-.812.491-1.763.736-2.852.736-1.12,0-2.136-.276-3.048-.828-.912-.552-1.629-1.326-2.15-2.323-.521-.997-.782-2.131-.782-3.404,0-1.288.261-2.418.782-3.393.521-.973,1.238-1.729,2.15-2.265s1.928-.805,3.048-.805c1.088,0,2.043.238,2.863.713ZM241.873,130.478c-.383-.705-.901-1.246-1.552-1.622-.652-.375-1.369-.563-2.151-.563s-1.495.184-2.139.552c-.644.368-1.158.905-1.541,1.61-.384.706-.575,1.534-.575,2.484,0,.966.191,1.806.575,2.519.383.713.897,1.257,1.541,1.633.644.375,1.357.563,2.139.563s1.499-.188,2.151-.563c.651-.376,1.169-.92,1.552-1.633s.575-1.544.575-2.496-.192-1.778-.575-2.484Z" fill="#fff"/>
    <path d="M268.92,123.256l-5.221,9.982v6.049h-2.093v-6.049l-5.244-9.982h2.323l3.956,8.119,3.956-8.119h2.323Z" fill="#fff"/>
    <path d="M275.142,138.688c-.958-.537-1.71-1.299-2.254-2.289-.544-.989-.817-2.135-.817-3.438,0-1.288.28-2.426.84-3.416.56-.989,1.322-1.748,2.289-2.277.966-.529,2.047-.793,3.243-.793s2.277.265,3.243.793c.966.529,1.729,1.285,2.289,2.266.56.981.839,2.124.839,3.427s-.288,2.45-.862,3.438c-.575.989-1.354,1.752-2.334,2.289-.981.537-2.07.805-3.266.805-1.181,0-2.25-.268-3.208-.805ZM280.466,137.125c.659-.353,1.192-.881,1.599-1.587.406-.705.609-1.564.609-2.576s-.199-1.87-.598-2.576c-.399-.705-.92-1.23-1.564-1.576-.644-.345-1.342-.518-2.093-.518-.767,0-1.468.173-2.104.518-.636.345-1.146.871-1.529,1.576-.384.706-.575,1.564-.575,2.576,0,1.028.188,1.894.563,2.599.375.706.878,1.23,1.507,1.576.628.345,1.318.518,2.07.518s1.457-.176,2.116-.529Z" fill="#fff"/>
    <path d="M300.477,126.683v12.604h-2.093v-1.863c-.399.644-.955,1.146-1.667,1.506-.713.36-1.499.541-2.357.541-.981,0-1.863-.203-2.645-.609-.782-.406-1.399-1.016-1.852-1.829-.453-.812-.679-1.802-.679-2.967v-7.383h2.07v7.107c0,1.242.314,2.197.943,2.864.628.667,1.487,1,2.576,1,1.119,0,2.001-.345,2.645-1.035s.966-1.694.966-3.013v-6.923h2.093Z" fill="#fff"/>
    <path d="M309.412,127.051c.682-.399,1.514-.598,2.496-.598v2.162h-.552c-2.346,0-3.519,1.273-3.519,3.818v6.854h-2.093v-12.604h2.093v2.047c.368-.72.893-1.28,1.576-1.679Z" fill="#fff"/>
    <path d="M333.539,131.743c.483.383.866.859,1.15,1.426.284.567.426,1.173.426,1.817,0,.812-.207,1.545-.621,2.196-.414.652-1.016,1.166-1.806,1.541-.79.376-1.721.563-2.794.563h-5.98v-16.031h5.75c1.088,0,2.016.18,2.783.54.766.361,1.341.848,1.725,1.461s.575,1.303.575,2.07c0,.951-.257,1.736-.771,2.357s-1.192,1.069-2.036,1.346c.583.092,1.116.33,1.599.713ZM326.006,130.179h3.519c.981,0,1.74-.23,2.277-.69.537-.46.805-1.096.805-1.909s-.268-1.449-.805-1.909c-.537-.46-1.311-.69-2.323-.69h-3.473v5.198ZM332.147,136.826c.583-.491.874-1.173.874-2.047,0-.889-.307-1.591-.92-2.104s-1.434-.771-2.461-.771h-3.634v5.658h3.703c1.042,0,1.855-.245,2.438-.736Z" fill="#fff"/>
    <path d="M339.737,129.546c.521-.973,1.238-1.729,2.15-2.265s1.928-.805,3.048-.805c1.104,0,2.062.238,2.875.713.812.476,1.418,1.074,1.817,1.794v-2.3h2.116v12.604h-2.116v-2.346c-.414.736-1.032,1.346-1.852,1.829-.82.483-1.775.725-2.864.725-1.119,0-2.131-.276-3.036-.828-.905-.552-1.618-1.326-2.139-2.323-.521-.997-.782-2.131-.782-3.404,0-1.288.261-2.418.782-3.393ZM349.052,130.478c-.383-.705-.901-1.246-1.552-1.622-.652-.375-1.369-.563-2.151-.563s-1.495.184-2.139.552c-.644.368-1.158.905-1.541,1.61-.384.706-.575,1.534-.575,2.484,0,.966.191,1.806.575,2.519.383.713.897,1.257,1.541,1.633.644.375,1.357.563,2.139.563s1.499-.188,2.151-.563c.651-.376,1.169-.92,1.552-1.633s.575-1.544.575-2.496-.192-1.778-.575-2.484Z" fill="#fff"/>
    <path d="M366.877,127.844c.95.928,1.426,2.266,1.426,4.013v7.429h-2.07v-7.13c0-1.257-.314-2.22-.943-2.887s-1.487-1-2.576-1c-1.104,0-1.982.345-2.634,1.035s-.978,1.694-.978,3.013v6.969h-2.093v-12.604h2.093v1.794c.414-.644.978-1.142,1.691-1.495.713-.353,1.499-.529,2.357-.529,1.533,0,2.775.464,3.726,1.392Z" fill="#fff"/>
    <path d="M373.455,129.546c.521-.973,1.238-1.729,2.15-2.265s1.936-.805,3.071-.805c.981,0,1.894.227,2.737.679s1.487,1.046,1.932,1.782v-6.67h2.116v17.02h-2.116v-2.369c-.414.751-1.027,1.369-1.84,1.852-.812.483-1.763.725-2.852.725-1.12,0-2.136-.276-3.048-.828-.912-.552-1.629-1.326-2.15-2.323-.521-.997-.782-2.131-.782-3.404,0-1.288.261-2.418.782-3.393ZM382.77,130.478c-.383-.705-.901-1.246-1.552-1.622-.652-.375-1.369-.563-2.151-.563s-1.495.184-2.139.552c-.644.368-1.158.905-1.541,1.61-.384.706-.575,1.534-.575,2.484,0,.966.191,1.806.575,2.519.383.713.897,1.257,1.541,1.633.644.375,1.357.563,2.139.563s1.499-.188,2.151-.563c.651-.376,1.169-.92,1.552-1.633s.575-1.544.575-2.496-.192-1.778-.575-2.484Z" fill="#fff"/>
    <path d="M398.663,124.222c-.276-.276-.414-.613-.414-1.012s.138-.736.414-1.012.613-.414,1.012-.414c.383,0,.709.138.978.414.268.276.402.613.402,1.012s-.134.736-.402,1.012c-.269.276-.595.414-.978.414-.399,0-.736-.138-1.012-.414ZM400.687,126.683v12.604h-2.093v-12.604h2.093Z" fill="#fff"/>
    <path d="M415.843,127.844c.95.928,1.426,2.266,1.426,4.013v7.429h-2.07v-7.13c0-1.257-.314-2.22-.943-2.887s-1.487-1-2.576-1c-1.104,0-1.982.345-2.634,1.035s-.978,1.694-.978,3.013v6.969h-2.093v-12.604h2.093v1.794c.414-.644.978-1.142,1.691-1.495.713-.353,1.499-.529,2.357-.529,1.533,0,2.775.464,3.726,1.392Z" fill="#fff"/>
    <path d="M440.154,123.256v1.702h-4.37v14.329h-2.093v-14.329h-4.393v-1.702h10.856Z" fill="#fff"/>
    <path d="M455.633,126.683v12.604h-2.093v-1.863c-.399.644-.955,1.146-1.667,1.506-.713.36-1.499.541-2.357.541-.981,0-1.863-.203-2.645-.609-.782-.406-1.399-1.016-1.852-1.829-.453-.812-.679-1.802-.679-2.967v-7.383h2.07v7.107c0,1.242.314,2.197.943,2.864.628.667,1.487,1,2.576,1,1.119,0,2.001-.345,2.645-1.035s.966-1.694.966-3.013v-6.923h2.093Z" fill="#fff"/>
    <path d="M470.767,127.844c.95.928,1.426,2.266,1.426,4.013v7.429h-2.07v-7.13c0-1.257-.314-2.22-.943-2.887s-1.487-1-2.576-1c-1.104,0-1.982.345-2.634,1.035s-.978,1.694-.978,3.013v6.969h-2.093v-12.604h2.093v1.794c.414-.644.978-1.142,1.691-1.495.713-.353,1.499-.529,2.357-.529,1.533,0,2.775.464,3.726,1.392Z" fill="#fff"/>
    <path d="M488.776,133.767h-10.074c.077,1.242.502,2.212,1.276,2.91s1.714,1.046,2.818,1.046c.904,0,1.66-.21,2.265-.632.606-.422,1.031-.985,1.277-1.691h2.254c-.337,1.211-1.012,2.197-2.024,2.956-1.012.759-2.27,1.139-3.772,1.139-1.196,0-2.266-.268-3.208-.805-.943-.537-1.683-1.299-2.22-2.289-.537-.989-.805-2.135-.805-3.438s.261-2.445.782-3.427c.521-.981,1.253-1.736,2.196-2.266.943-.529,2.028-.793,3.255-.793,1.196,0,2.254.261,3.174.782s1.629,1.238,2.127,2.15c.498.913.748,1.943.748,3.093,0,.399-.023.821-.069,1.265ZM486.154,130.006c-.353-.575-.832-1.012-1.438-1.311-.606-.299-1.276-.449-2.013-.449-1.058,0-1.959.337-2.702,1.012-.744.675-1.169,1.61-1.277,2.806h7.958c0-.797-.176-1.483-.529-2.058Z" fill="#fff"/>
    <path d="M492.984,139.011c-.276-.276-.414-.613-.414-1.012s.138-.736.414-1.012.613-.414,1.012-.414c.383,0,.709.138.978.414.268.276.402.613.402,1.012s-.134.736-.402,1.012c-.269.276-.594.414-.978.414-.399,0-.736-.138-1.012-.414Z" fill="#fff"/>
    <path d="M499.54,139.011c-.276-.276-.414-.613-.414-1.012s.138-.736.414-1.012.613-.414,1.012-.414c.383,0,.709.138.978.414.268.276.402.613.402,1.012s-.134.736-.402,1.012c-.269.276-.594.414-.978.414-.399,0-.736-.138-1.012-.414Z" fill="#fff"/>
    <path d="M506.094,139.011c-.276-.276-.414-.613-.414-1.012s.138-.736.414-1.012.613-.414,1.012-.414c.383,0,.709.138.978.414.268.276.402.613.402,1.012s-.134.736-.402,1.012c-.269.276-.594.414-.978.414-.399,0-.736-.138-1.012-.414Z" fill="#fff"/>
    <path d="M524.057,138.401c-1.227-.697-2.196-1.671-2.909-2.921-.713-1.25-1.07-2.656-1.07-4.22s.357-2.971,1.07-4.221c.713-1.25,1.683-2.223,2.909-2.921s2.584-1.046,4.071-1.046c1.502,0,2.867.349,4.094,1.046s2.193,1.667,2.898,2.91c.706,1.242,1.058,2.653,1.058,4.232s-.353,2.99-1.058,4.232c-.705,1.242-1.671,2.212-2.898,2.909-1.227.698-2.591,1.047-4.094,1.047-1.487,0-2.845-.349-4.071-1.047ZM531.153,136.849c.897-.521,1.602-1.265,2.116-2.231.513-.966.771-2.085.771-3.358,0-1.288-.257-2.411-.771-3.37-.514-.958-1.216-1.698-2.104-2.22-.89-.521-1.902-.782-3.036-.782s-2.147.261-3.036.782c-.889.521-1.591,1.262-2.104,2.22-.514.958-.771,2.082-.771,3.37,0,1.273.257,2.392.771,3.358s1.219,1.71,2.116,2.231c.897.521,1.905.782,3.024.782s2.127-.261,3.024-.782Z" fill="#fff"/>
    <path d="M550.53,127.844c.95.928,1.426,2.266,1.426,4.013v7.429h-2.07v-7.13c0-1.257-.314-2.22-.943-2.887s-1.487-1-2.576-1c-1.104,0-1.982.345-2.634,1.035s-.978,1.694-.978,3.013v6.969h-2.093v-12.604h2.093v1.794c.414-.644.978-1.142,1.691-1.495.713-.353,1.499-.529,2.357-.529,1.533,0,2.775.464,3.726,1.392Z" fill="#fff"/>
    <path d="M567.217,138.884c-.836-.375-1.492-.897-1.967-1.564s-.721-1.438-.736-2.312h2.231c.077.751.387,1.384.932,1.897.544.514,1.337.771,2.38.771.997,0,1.783-.249,2.357-.748.575-.498.863-1.139.863-1.92,0-.613-.169-1.112-.506-1.495s-.759-.675-1.265-.874c-.506-.199-1.188-.414-2.047-.644-1.058-.276-1.905-.552-2.542-.828-.636-.276-1.181-.709-1.633-1.299-.453-.59-.679-1.384-.679-2.38,0-.874.222-1.648.667-2.323.445-.674,1.07-1.196,1.875-1.564.805-.368,1.729-.552,2.771-.552,1.503,0,2.733.375,3.692,1.127.958.751,1.499,1.748,1.621,2.99h-2.3c-.077-.613-.399-1.153-.966-1.622-.568-.467-1.319-.701-2.254-.701-.874,0-1.587.226-2.139.678-.552.453-.828,1.085-.828,1.897,0,.583.165,1.058.495,1.426.33.368.736.648,1.219.839.483.192,1.162.411,2.036.656,1.058.291,1.909.579,2.553.862.644.284,1.196.721,1.656,1.311s.69,1.392.69,2.403c0,.782-.207,1.518-.621,2.208s-1.027,1.25-1.84,1.679c-.813.429-1.771.644-2.875.644-1.058,0-2.005-.188-2.84-.563Z" fill="#fff"/>
    <path d="M582.753,128.408v7.429c0,.614.13,1.047.391,1.3s.713.379,1.357.379h1.541v1.771h-1.886c-1.166,0-2.04-.268-2.622-.805-.583-.536-.874-1.418-.874-2.645v-7.429h-1.633v-1.725h1.633v-3.174h2.093v3.174h3.289v1.725h-3.289Z" fill="#fff"/>
    <path d="M590.297,129.546c.521-.973,1.238-1.729,2.15-2.265s1.928-.805,3.048-.805c1.104,0,2.062.238,2.875.713.812.476,1.418,1.074,1.817,1.794v-2.3h2.116v12.604h-2.116v-2.346c-.414.736-1.032,1.346-1.852,1.829-.82.483-1.775.725-2.864.725-1.119,0-2.131-.276-3.036-.828-.905-.552-1.618-1.326-2.139-2.323-.521-.997-.782-2.131-.782-3.404,0-1.288.261-2.418.782-3.393ZM599.612,130.478c-.383-.705-.901-1.246-1.552-1.622-.652-.375-1.369-.563-2.151-.563s-1.495.184-2.139.552c-.644.368-1.158.905-1.541,1.61-.384.706-.575,1.534-.575,2.484,0,.966.191,1.806.575,2.519.383.713.897,1.257,1.541,1.633.644.375,1.357.563,2.139.563s1.499-.188,2.151-.563c.651-.376,1.169-.92,1.552-1.633s.575-1.544.575-2.496-.192-1.778-.575-2.484Z" fill="#fff"/>
    <path d="M615.631,127.188c.82.476,1.43,1.074,1.828,1.794v-2.3h2.117v12.88c0,1.15-.246,2.174-.736,3.071-.492.897-1.193,1.598-2.105,2.104-.912.506-1.974.759-3.185.759-1.656,0-3.036-.391-4.14-1.173-1.104-.782-1.756-1.848-1.955-3.197h2.07c.23.767.705,1.384,1.426,1.852s1.587.702,2.599.702c1.15,0,2.089-.36,2.817-1.081.729-.721,1.092-1.733,1.092-3.036v-2.645c-.414.736-1.027,1.35-1.84,1.84-.812.491-1.763.736-2.852.736-1.12,0-2.136-.276-3.048-.828-.912-.552-1.629-1.326-2.15-2.323-.521-.997-.782-2.131-.782-3.404,0-1.288.261-2.418.782-3.393.521-.973,1.238-1.729,2.15-2.265s1.928-.805,3.048-.805c1.088,0,2.043.238,2.863.713ZM616.885,130.478c-.384-.705-.901-1.246-1.553-1.622-.652-.375-1.369-.563-2.151-.563s-1.495.184-2.139.552c-.644.368-1.158.905-1.541,1.61-.384.706-.575,1.534-.575,2.484,0,.966.191,1.806.575,2.519.383.713.897,1.257,1.541,1.633.644.375,1.357.563,2.139.563s1.499-.188,2.151-.563c.651-.376,1.169-.92,1.553-1.633.383-.713.574-1.544.574-2.496s-.191-1.778-.574-2.484Z" fill="#fff"/>
    <path d="M636.273,133.767h-10.074c.076,1.242.502,2.212,1.276,2.91s1.714,1.046,2.817,1.046c.905,0,1.66-.21,2.266-.632s1.031-.985,1.276-1.691h2.254c-.337,1.211-1.012,2.197-2.023,2.956-1.012.759-2.27,1.139-3.772,1.139-1.195,0-2.266-.268-3.208-.805-.943-.537-1.684-1.299-2.22-2.289-.537-.989-.805-2.135-.805-3.438s.261-2.445.782-3.427c.521-.981,1.253-1.736,2.196-2.266.942-.529,2.027-.793,3.254-.793,1.196,0,2.254.261,3.175.782.92.521,1.629,1.238,2.127,2.15.498.913.748,1.943.748,3.093,0,.399-.023.821-.069,1.265ZM633.651,130.006c-.353-.575-.832-1.012-1.438-1.311-.606-.299-1.276-.449-2.013-.449-1.058,0-1.959.337-2.702,1.012-.744.675-1.17,1.61-1.276,2.806h7.958c0-.797-.177-1.483-.529-2.058Z" fill="#fff"/>
    <path d="M648.693,129.546c.521-.973,1.237-1.729,2.15-2.265.912-.537,1.928-.805,3.047-.805,1.104,0,2.062.238,2.875.713.812.476,1.418,1.074,1.817,1.794v-2.3h2.116v12.604h-2.116v-2.346c-.414.736-1.031,1.346-1.852,1.829s-1.775.725-2.863.725c-1.12,0-2.132-.276-3.036-.828-.905-.552-1.618-1.326-2.139-2.323-.521-.997-.782-2.131-.782-3.404,0-1.288.261-2.418.782-3.393ZM658.007,130.478c-.384-.705-.901-1.246-1.553-1.622-.651-.375-1.368-.563-2.15-.563s-1.495.184-2.139.552c-.645.368-1.158.905-1.541,1.61-.384.706-.575,1.534-.575,2.484,0,.966.191,1.806.575,2.519.383.713.896,1.257,1.541,1.633.644.375,1.356.563,2.139.563s1.499-.188,2.15-.563c.651-.376,1.169-.92,1.553-1.633.383-.713.575-1.544.575-2.496s-.192-1.778-.575-2.484Z" fill="#fff"/>
    <path d="M675.833,127.844c.951.928,1.427,2.266,1.427,4.013v7.429h-2.07v-7.13c0-1.257-.314-2.22-.943-2.887s-1.487-1-2.576-1c-1.104,0-1.981.345-2.633,1.035-.652.69-.978,1.694-.978,3.013v6.969h-2.093v-12.604h2.093v1.794c.414-.644.978-1.142,1.69-1.495.713-.353,1.498-.529,2.357-.529,1.533,0,2.775.464,3.726,1.392Z" fill="#fff"/>
    <path d="M682.412,129.546c.521-.973,1.237-1.729,2.15-2.265.912-.537,1.936-.805,3.07-.805.98,0,1.894.227,2.736.679.844.452,1.487,1.046,1.933,1.782v-6.67h2.116v17.02h-2.116v-2.369c-.414.751-1.027,1.369-1.84,1.852-.813.483-1.764.725-2.853.725-1.119,0-2.135-.276-3.047-.828-.913-.552-1.63-1.326-2.15-2.323-.521-.997-.782-2.131-.782-3.404,0-1.288.261-2.418.782-3.393ZM691.726,130.478c-.384-.705-.901-1.246-1.553-1.622-.651-.375-1.368-.563-2.15-.563s-1.495.184-2.139.552c-.645.368-1.158.905-1.541,1.61-.384.706-.575,1.534-.575,2.484,0,.966.191,1.806.575,2.519.383.713.896,1.257,1.541,1.633.644.375,1.356.563,2.139.563s1.499-.188,2.15-.563c.651-.376,1.169-.92,1.553-1.633.383-.713.575-1.544.575-2.496s-.192-1.778-.575-2.484Z" fill="#fff"/>
    <path d="M710.747,138.401c-1.227-.697-2.196-1.671-2.909-2.921-.713-1.25-1.069-2.656-1.069-4.22s.356-2.971,1.069-4.221c.713-1.25,1.683-2.223,2.909-2.921s2.584-1.046,4.071-1.046c1.503,0,2.867.349,4.094,1.046s2.192,1.667,2.898,2.91c.705,1.242,1.058,2.653,1.058,4.232s-.353,2.99-1.058,4.232c-.706,1.242-1.672,2.212-2.898,2.909-1.227.698-2.591,1.047-4.094,1.047-1.487,0-2.845-.349-4.071-1.047ZM717.842,136.849c.897-.521,1.603-1.265,2.116-2.231s.771-2.085.771-3.358c0-1.288-.257-2.411-.771-3.37-.514-.958-1.216-1.698-2.104-2.22-.89-.521-1.901-.782-3.036-.782s-2.146.261-3.036.782c-.89.521-1.591,1.262-2.104,2.22-.514.958-.771,2.082-.771,3.37,0,1.273.257,2.392.771,3.358s1.219,1.71,2.116,2.231c.896.521,1.905.782,3.024.782s2.127-.261,3.024-.782Z" fill="#fff"/>
    <path d="M732.482,128.408h-2.646v10.879h-2.093v-10.879h-1.633v-1.725h1.633v-.897c0-1.411.364-2.441,1.093-3.094.728-.651,1.897-.977,3.507-.977v1.748c-.92,0-1.567.181-1.943.541-.376.361-.563.955-.563,1.783v.897h2.646v1.725Z" fill="#fff"/>
    <path d="M741.774,128.408h-2.646v10.879h-2.093v-10.879h-1.633v-1.725h1.633v-.897c0-1.411.364-2.441,1.093-3.094.728-.651,1.897-.977,3.507-.977v1.748c-.92,0-1.567.181-1.943.541-.376.361-.563.955-.563,1.783v.897h2.646v1.725Z" fill="#fff"/>
    <path d="M745.591,139.011c-.275-.276-.414-.613-.414-1.012s.139-.736.414-1.012c.276-.276.613-.414,1.013-.414.383,0,.709.138.977.414.269.276.403.613.403,1.012s-.135.736-.403,1.012c-.268.276-.594.414-.977.414-.399,0-.736-.138-1.013-.414Z" fill="#fff"/>
  </g>
</svg>