<?xml version="1.0" encoding="UTF-8"?>
<svg id="Layer_1" xmlns="http://www.w3.org/2000/svg" xmlns:xlink="http://www.w3.org/1999/xlink" version="1.1" viewBox="0 0 500 55.475">
  <!-- Generator: Adobe Illustrator 30.1.0, SVG Export Plug-In . SVG Version: 2.1.1 Build 136)  -->
  <defs>
    <linearGradient id="linear-gradient" x1="1.796" y1="27.65" x2="60.864" y2="27.65" gradientUnits="userSpaceOnUse">
      <stop offset="0" stop-color="#d40080"/>
      <stop offset=".518" stop-color="#ff0041"/>
      <stop offset="1" stop-color="#ff7200"/>
    </linearGradient>
    <linearGradient id="linear-gradient1" x1="12.584" y1="38.68" x2="44.259" y2="38.68" xlink:href="#linear-gradient"/>
    <linearGradient id="linear-gradient2" x1="107.055" y1="27.684" x2="165.202" y2="27.684" xlink:href="#linear-gradient"/>
    <linearGradient id="linear-gradient3" x1="57.791" y1="27.566" x2="109.541" y2="27.566" xlink:href="#linear-gradient"/>
    <linearGradient id="linear-gradient4" x1="73.885" y1="17.028" x2="99.712" y2="17.028" xlink:href="#linear-gradient"/>
    <linearGradient id="linear-gradient5" x1="160.5" y1="27.722" x2="216.024" y2="27.722" xlink:href="#linear-gradient"/>
    <linearGradient id="linear-gradient6" x1="330.934" y1="27.746" x2="382.371" y2="27.746" xlink:href="#linear-gradient"/>
    <linearGradient id="linear-gradient7" x1="347.067" y1="17.254" x2="372.553" y2="17.254" xlink:href="#linear-gradient"/>
    <linearGradient id="linear-gradient8" x1="281.332" y1="27.938" x2="333.713" y2="27.938" xlink:href="#linear-gradient"/>
    <linearGradient id="linear-gradient9" x1="291.219" y1="27.959" x2="323.996" y2="27.959" xlink:href="#linear-gradient"/>
    <linearGradient id="linear-gradient10" x1="380.038" y1="27.699" x2="433.275" y2="27.699" xlink:href="#linear-gradient"/>
    <linearGradient id="linear-gradient11" x1="448.449" y1="28.073" x2="498.205" y2="28.073" xlink:href="#linear-gradient"/>
    <linearGradient id="linear-gradient12" x1="240.599" y1="27.777" x2="282.577" y2="27.777" xlink:href="#linear-gradient"/>
    <linearGradient id="linear-gradient13" x1="428.91" y1="27.72" x2="452.845" y2="27.72" xlink:href="#linear-gradient"/>
    <linearGradient id="linear-gradient14" x1="217.62" y1="27.7" x2="239.01" y2="27.7" xlink:href="#linear-gradient"/>
  </defs>
  <path d="M60.203,15.055c1.917-6.789-.402-12.407-6.117-14.686-2.43-.787-5.163-1.169-8.357-1.169l-20.151.038c-3.522.007-6.519,2.026-7.635,5.144-.583,1.627-.676,3.977.43,5.557.717,1.025,1.844,1.593,3.172,1.601l22.545.127c1.282.007,2.414.622,2.691,1.462.497,1.499-.13,3.438-1.676,5.187-1.043,1.18-3.209,2.469-4.889,2.494l-20.158.299c-5.117.077-11.792,3.802-13.571,9.225-1.873,5.701-3.105,11.05-4.522,17.449-.431,1.953-.028,3.79,1.166,5.312,1.369,1.746,3.686,2.823,6.198,2.881,3.671.082,7.38.124,11.026.124.015,0,.03,0,.044,0,5.239,0,10.499-.082,16.081-.249,8.907-.27,15.409-7.639,17.229-14.779,1.576-6.184.914-10.663-2.028-13.638,4.004-2.667,7.006-7.01,8.524-12.379ZM50.73,40.314c-1.537,6.026-6.958,12.245-14.347,12.468-9.379.283-18.206.323-26.986.124h-.022c-.016,0-.032,0-.048,0-1.573-.053-2.983-.688-3.781-1.704-.618-.788-.814-1.714-.584-2.753,1.396-6.312,2.61-11.583,4.44-17.155,1.352-4.119,6.724-7.054,10.7-7.113l20.158-.299c2.646-.04,5.656-1.849,7.145-3.532,2.277-2.578,3.133-5.638,2.29-8.186-.691-2.086-2.989-3.553-5.588-3.567l-22.544-.127c-.438-.003-.579-.152-.677-.292-.432-.617-.366-1.888-.054-2.761.674-1.885,2.538-3.105,4.75-3.109l20.147-.038c2.862,0,5.275.33,7.312.986,4.17,1.665,5.702,5.661,4.203,10.964-1.533,5.428-4.712,9.556-8.95,11.623l-.863.42c-.326.159-.541.481-.561.844s.158.707.465.901l.812.513c3.238,2.045,4.083,5.902,2.583,11.793Z" fill="url(#linear-gradient)"/>
  <path d="M43.69,33.728c-.052-.165-.146-.314-.273-.433l-.108-.101c-1.385-1.279-3.313-2.748-5.955-2.755l-18.433-.049c-1.58,0-3.23,1.587-3.596,2.951l-2.621,9.763c-.443,1.651.36,3.166,1.991,3.766l.093.035c.113.043.231.064.352.064h.006l21.041-.129c3.303-.02,6.066-2.526,7.09-4.994,1.138-2.744,1.284-5.278.456-7.982l-.043-.137ZM40.443,40.671c-.629,1.515-2.4,3.089-4.273,3.102l-20.498.125,2.615-9.741c.08-.205.529-.641.635-.694l18.426.048c1.438.004,2.645.851,3.564,1.657.477,1.832.325,3.589-.469,5.504Z" fill="url(#linear-gradient1)"/>
  <path d="M163.178,13.168c.835-3.097,1.625-6.021,1.993-9.09.204-1.7-.601-3.182-2.207-4.067-2.427-1.338-6.229-1.05-8.302.632-1.221.992-2.231,2.7-2.634,4.458-2.417,10.521-4.682,19.538-7.058,28.1l-11.317-29.647c-1.288-3.375-5.009-4.238-8.049-3.918-3.516.363-6.449,2.863-7.3,6.221l-10.942,43.182c-.594,2.344-.323,4.245.783,5.499,1.056,1.198,3.133,1.642,4.616,1.66.027.002.054.003.082.003,3.571,0,6.422-2.27,7.26-5.776l2.917-11.812,4.143-15.458,11.699,28.589c1.354,3.308,4.854,4.931,8.711,4.036,3.136-.728,5.587-3.17,6.398-6.376l8.406-33.202c.258-1.016.528-2.021.801-3.032ZM162.122,3.709c-.342,2.845-1.109,5.69-1.922,8.703-.271,1.002-.543,2.012-.8,3.03l-8.406,33.203c-.529,2.087-2.106,3.673-4.118,4.14-2.329.544-4.411-.342-5.174-2.209l-14.024-34.274c-.162-.397-.562-.646-.988-.619-.429.027-.792.325-.903.739l-5.741,21.419-2.927,11.854c-.506,2.116-2.159,3.431-4.307,3.431-1.132-.008-2.14-.367-2.365-.622-.394-.446-.434-1.435-.11-2.712l10.942-43.183c.536-2.115,2.4-3.691,4.639-3.922.284-.029.573-.044.857-.044h0c.975,0,3.318.194,4.008,2.002l13.54,35.473c.153.401.547.671.976.643.43-.019.8-.31.919-.723l.443-1.541c2.854-9.923,5.509-20.317,8.357-32.712.254-1.104.874-2.189,1.578-2.762,1.118-.908,3.537-1.07,4.882-.328.629.348.681.694.643,1.015Z" fill="url(#linear-gradient2)"/>
  <path d="M99.64.217c-4.615-1.579-9.56-1.621-15.115-.126-8.996,2.42-16.24,9.567-18.454,18.209l-8.078,31.531c-.441,1.722-.155,3.258.827,4.444.993,1.196,2.561,1.855,4.415,1.855h0c.161,0,.326-.005.492-.015,3.313-.207,5.946-2.239,6.708-5.177l3.991-15.402,17.668.003-3.606,14.281c-.437,1.573-.269,2.998.488,4.121.778,1.155,2.089,1.868,3.781,2.061,1.268.162,3.676-.097,5.069-1.152.915-.692,2.421-2.304,2.824-3.903l8.414-33.538c1.901-7.576-1.973-14.646-9.422-17.193ZM106.084,16.661l-8.415,33.541c-.149.599-1.074,1.73-1.698,2.202-.525.398-2.047.646-2.855.551-.771-.088-1.337-.347-1.595-.728-.303-.45-.208-1.118-.068-1.62l4.267-16.894c.075-.299.009-.616-.181-.859s-.48-.386-.789-.386l-21.928-.003c-.456,0-.854.308-.968.749l-4.394,16.954c-.421,1.628-1.963,2.759-3.925,2.882-1.038.06-1.917-.211-2.351-.732-.334-.404-.407-.985-.217-1.727l8.078-31.531c1.944-7.587,8.333-13.87,16.277-16.006,2.422-.652,4.745-.983,6.903-.983h0c2.255,0,4.354.343,6.419,1.049,5.875,2.01,8.934,7.578,7.438,13.541Z" fill="url(#linear-gradient3)"/>
  <path d="M90.241,8.024c-6.699-.21-12.855,4.264-14.745,10.601-.438,1.471-.791,2.913-1.199,4.58l-.384,1.562c-.073.298-.005.613.184.855.189.242.479.383.786.384l22.027.033h.001c.453,0,.851-.304.967-.741l.115-.433c.523-1.954,1.064-3.975,1.469-5.918.605-2.901.099-5.483-1.465-7.464-1.681-2.132-4.436-3.36-7.758-3.458ZM96.457,18.317c-.31,1.482-.697,2.998-1.135,4.647l-17.798-.026c.299-1.211.582-2.317.915-3.438,1.496-5.017,6.431-8.564,11.711-8.408,2.397.07,4.328.883,5.437,2.289.983,1.245,1.284,2.952.87,4.935Z" fill="url(#linear-gradient4)"/>
  <path d="M202.227.629c-2.183-.59-4.44-1.2-6.937-1.2l-16.744.029c-3.124.004-5.965,2.269-6.908,5.508-.561,1.926-.352,3.743.573,4.985.81,1.09,2.065,1.672,3.629,1.686l16.655.139c5.798.049,10.031,3.912,10.294,9.393.178,3.722-.977,7.85-3.433,12.268-3.12,5.612-8.947,9.509-15.208,10.169-2.938.31-5.753.276-8.736.236l-.296-.003,4.75-18.829c.426-1.69.198-3.188-.661-4.334-.903-1.205-2.453-1.908-4.371-1.98-3.783-.124-6.888,2.144-7.764,5.616l-6.391,25.393c-.41,1.63-.108,3.256.828,4.461.893,1.15,2.243,1.787,3.802,1.793l13.827.058s.002,0,.003,0c6.57,0,12.251-1.336,17.37-4.085,13.604-7.306,20.181-23.11,19.462-34.271-.547-8.487-5.684-14.854-13.744-17.031ZM195.058,49.226c-4.659,2.502-9.866,3.719-15.914,3.719l-13.823-.059c-.421-.002-1.003-.108-1.388-.605-.354-.455-.454-1.122-.275-1.83h0s6.39-25.391,6.39-25.391c.528-2.099,2.355-3.395,4.681-3.295.951.035,1.687.309,2.019.752.288.384.336.97.141,1.742l-5.395,21.381c-.075.299-.009.614.179.857.188.243.478.386.785.388l.685.004c.556.002,1.105.009,1.647.016l.583.007c3.08.039,5.987.075,9.098-.254,7.239-.763,13.971-5.257,17.568-11.729,2.738-4.927,4.022-9.605,3.817-13.908-.344-7.188-5.827-12.253-13.336-12.317l-16.654-.139c-.863-.007-1.109-.338-1.191-.448-.334-.449-.368-1.328-.087-2.294.461-1.584,1.898-3.291,3.965-3.295l16.764-.029c2.067,0,4.125.556,6.115,1.094,6.829,1.846,11.012,7.045,11.477,14.264.658,10.206-5.375,24.669-17.85,31.369Z" fill="url(#linear-gradient5)"/>
  <path d="M371.827.324c-4.538-1.372-9.644-1.263-15.175.326-8.224,2.362-15.123,9.235-17.169,17.102l-8.338,32.068c-.483,1.854-.131,3.542.994,4.75.922.991,2.263,1.541,3.779,1.552.016,0,.032,0,.048,0,.38,0,.769-.034,1.13-.099,2.961-.063,5.443-1.975,6.517-5.086l3.885-15.387,17.646.026-3.603,14.26c-.47,1.769-.188,3.384.794,4.547,1.019,1.208,2.626,1.777,4.51,1.615,2.712.014,5.993-1.712,6.864-5.058.609-2.35,1.227-4.686,1.843-7.016l.09-.34c2.259-8.541,4.595-17.372,6.403-26.266,1.566-7.715-2.636-14.704-10.219-16.997ZM379.037,16.709c-1.783,8.783-4.105,17.563-6.369,26.121l-.062.235c-.624,2.359-1.25,4.726-1.867,7.103-.469,1.803-2.375,2.765-4.037,2.765h-.021c-.909.086-1.643-.107-1.997-.529-.406-.482-.318-1.236-.169-1.797l4.256-16.853c.075-.299.009-.616-.181-.859-.188-.243-.479-.386-.787-.386l-21.916-.033h-.002c-.458,0-.857.312-.97.755l-4.241,16.826c-.624,1.797-2.042,2.883-3.793,2.904-.058,0-.115.007-.172.017-.974.183-1.863-.009-2.32-.5-.518-.556-.391-1.419-.27-1.885l8.338-32.068c1.781-6.852,7.827-12.85,15.044-14.923,2.683-.77,5.263-1.161,7.67-1.161h.003c2.023,0,3.964.276,5.769.821,6.007,1.817,9.336,7.346,8.096,13.447Z" fill="url(#linear-gradient6)"/>
  <path d="M363.605,8.426c-6.703-.34-12.836,3.827-14.913,10.141-.607,1.847-1.021,3.66-1.461,5.67l-.142.651c-.064.296.009.605.199.84s.476.372.778.372h0l21.732-.031c.45,0,.845-.302.964-.735l.343-1.252c.592-2.146,1.102-4,1.346-5.833.35-2.64-.225-4.948-1.659-6.673-1.58-1.899-4.065-2.988-7.188-3.15ZM369.409,17.848c-.202,1.53-.65,3.197-1.188,5.155l-17.568.024c.272-1.161.581-2.352.958-3.499,1.582-4.814,6.091-8.049,11.219-8.05.206,0,.413.005.619.016,2.244.116,3.968.824,4.985,2.047.885,1.063,1.213,2.513.976,4.308Z" fill="url(#linear-gradient7)"/>
  <path d="M324.213,1.355c-6.241-2.671-14.287-2.599-21.52.197-8.503,3.287-15.421,11.354-18.053,21.052-.73,2.684-1.435,5.349-2.034,8.428-3.311,10.475-.027,19.937,8.18,23.557,2.837,1.252,6.069,1.887,9.607,1.887h0c2.634,0,5.42-.355,8.279-1.056,7.662-1.878,14.424-7.228,18.551-14.678,3.211-5.794,6.239-17.235,6.466-22.537.337-7.984-3.117-14.126-9.478-16.85ZM330.62,18.073c-.209,4.972-3.058,15.722-6.083,21.18-3.715,6.703-9.764,11.508-16.597,13.182-5.98,1.465-11.633,1.232-15.916-.656-6.711-2.962-9.307-10.973-6.459-19.935.012-.036.021-.074.028-.111.59-3.029,1.286-5.667,2.008-8.327,2.381-8.772,8.588-16.049,16.199-18.991,3.299-1.274,6.86-1.947,10.299-1.947h0c3.213,0,6.291.59,8.902,1.708,5.124,2.193,7.901,7.259,7.619,13.897Z" fill="url(#linear-gradient8)"/>
  <path d="M311.87,8.734c-7.771,0-14.491,4.712-17.123,12.005-1.394,3.865-2.512,8.286-3.324,13.141-.799,4.77.791,9.106,4.149,11.319,1.999,1.317,4.455,1.985,7.299,1.985,1.82,0,3.785-.273,5.841-.813,8.909-2.339,11.731-10.604,13.679-18.166l.093-.362c.992-3.847,2.019-7.824,1.235-11.52-.734-3.45-3.385-7.566-11.849-7.589ZM319.51,27.081l-.093.36c-1.729,6.717-4.185,14.044-11.482,15.962-3.102.813-7.473,1.344-10.674-.769-2.329-1.533-3.405-4.693-2.81-8.246.784-4.684,1.856-8.925,3.186-12.606,2.188-6.061,7.774-9.977,14.234-9.977.008,0,.016,0,.023,0,.007,0,.014,0,.021,0,5.115.013,8.075,1.748,8.8,5.156.636,2.993-.3,6.615-1.205,10.119Z" fill="url(#linear-gradient9)"/>
  <path d="M433.05,21.354c.79-5.869-.505-11.067-3.745-15.035-3.195-3.911-8.146-6.281-13.943-6.673-5.922-.4-11.835-.28-17.382-.124-3.653.104-6.008,3.146-6.65,5.928-.426,1.852-.176,3.433.722,4.572.81,1.03,2.067,1.584,3.636,1.602,1.666.019,3.348.006,4.991-.005h.186c3.467-.028,7.057-.058,10.598.202,2.959.215,5.474,1.418,7.079,3.387,1.505,1.845,2.116,4.226,1.77,6.885-.389,2.984-1.238,6.215-2.675,10.169-2.199,6.048-8.095,10.71-14.337,11.337-2.969.3-5.783.249-8.817.195h-.05s4.796-18.819,4.796-18.819c.479-1.875.098-3.831-.948-4.869-.985-.977-2.537-1.445-4.687-1.392-3.21.071-6.164,2.302-6.871,5.188l-5.202,21.183c-.147.598-.356,1.25-.564,1.9-.452,1.419-.919,2.886-.916,4.31.006,2.79,1.981,4.539,5.156,4.563,1.559.012,3.093.046,4.618.08,0,0,.13.003.131.003,1.898.042,3.693.081,5.52.081h0c2.486,0,4.591-.074,6.622-.232,12.197-.938,23.601-9.867,27.731-21.715,1.691-4.848,2.719-8.891,3.232-12.722ZM401.85,52.73c-4.053.312-7.883.229-11.969.139-1.539-.034-3.089-.068-4.663-.08-1.943-.015-2.107-.749-2.109-1.499-.002-.95.399-2.205.787-3.419.202-.633.432-1.35.604-2.053l5.202-21.184c.004-.015.007-.029.01-.044.406-1.535,2.129-2.762,3.954-2.803,1.39-.043,2.179.233,2.449.501.17.169.372,1.004.136,1.932l-5.444,21.359c-.076.297-.011.613.176.856s.475.387.781.391l.681.008c.597.007,1.188.018,1.774.028l.305.006c3.056.053,5.945.102,9.08-.213,7.374-.741,14.33-6.229,16.915-13.343,1.514-4.162,2.414-7.602,2.835-10.823.459-3.516-.384-6.705-2.435-9.222-2.145-2.629-5.424-4.23-9.235-4.509-3.632-.265-7.296-.237-10.838-.21h-.183c-1.619.012-3.296.025-4.944.006-.614-.007-1.037-.152-1.257-.431-.299-.379-.349-1.084-.142-1.985.384-1.668,1.72-3.49,3.745-3.548,5.471-.155,11.298-.273,17.087.118,4.94.334,9.121,2.306,11.772,5.552,2.688,3.292,3.755,7.679,3.082,12.685-.488,3.624-1.47,7.475-3.089,12.119-3.741,10.731-14.049,18.818-25.067,19.666Z" fill="url(#linear-gradient10)"/>
  <path d="M497.189,1.73c-.881-1.076-2.501-1.621-4.623-1.64l-16.42.272c-12.269.203-20.688,10.855-23.317,20.667l-.083.309c-1.404,5.241-2.729,10.191-3.81,15.382-1.275,6.111-.027,11.407,3.512,14.91,2.631,2.607,6.418,3.994,11.576,4.241,2.579.124,5.316.183,8.41.185,3.255,0,6.41-.068,8.794-.127,2.873-.071,5.171-2.395,5.956-4.654.725-2.087.699-3.809-.073-5.118-.811-1.376-2.561-2.165-4.804-2.165l-6.006.016-6.171-.044c-2.051-.015-3.739-.16-5.162-.445-1.357-.271-2.278-.875-2.814-1.845-1.099-1.984-.465-4.957.161-6.9l20.987-.178c2.906-.024,5.524-2.055,6.517-5.053.641-1.938.453-3.823-.515-5.173-.883-1.23-2.264-1.887-3.991-1.899l-19.79-.148.804-2.659c1.202-3.976,4.946-7.011,8.71-7.06l14.001-.179c.968-.013,2.062-.139,3.026-.25l.715-.082c2.806-.304,4.494-2.911,5.088-5.051.616-2.225.389-4.013-.678-5.312ZM494.907,6.221c-.352,1.268-1.271,2.691-2.467,2.82l-.736.084c-.937.107-1.904.218-2.708.229l-14.001.179c-5.046.065-10.036,4.039-11.608,9.243l-1.604,5.307c-.092.301-.035.628.152.882.187.253.482.404.797.407l22.556.168c.718.005,1.229.213,1.52.618.383.535.419,1.439.095,2.419-.578,1.749-2.036,2.934-3.627,2.947l-22.433.188c-.412.004-.779.26-.926.645l-.131.343c-.927,2.448-2.2,7.061-.322,10.457.985,1.783,2.633,2.917,4.896,3.37,1.61.323,3.49.488,5.745.506l6.186.044,6.041-.017c1.287,0,1.953.353,2.131.655.285.483.221,1.389-.184,2.55-.428,1.229-1.67,2.557-3.131,2.593-5.424.135-11.234.22-16.977-.054-4.364-.209-7.492-1.307-9.562-3.356-2.773-2.745-3.722-7.044-2.668-12.103,1.063-5.101,2.377-10.005,3.784-15.263l.07-.259c2.34-8.734,9.721-18.214,20.399-18.392l16.54-.274h0c1.214,0,1.908.31,2.079.519.494.602.323,1.716.093,2.544Z" fill="url(#linear-gradient11)"/>
  <path d="M271.465,30.51c1.552-1.038,3.157-2.111,4.547-3.487,4.659-4.612,7.185-11.101,6.435-16.532-.767-5.564-5.916-11.178-15.692-11.178l-17.281.044c-3.589.009-6.656,2.517-7.458,6.1-.4,1.792-.113,3.414.809,4.567.833,1.041,2.081,1.592,3.608,1.594l17.926.031c1.733.002,3.531.619,4.582,1.57.882.799.974,2.257.252,4-.611,1.474-2.218,2.975-3.998,3.735-3.982,1.701-8.2,1.452-11.918,1.234-5.145-.308-10.965-.652-12.464,6.287-.438,2.015-.2,3.528.726,4.625,1.584,1.879,4.443,1.752,7.757,1.604,5.805-.259,9.696-.036,10.688,5.166l2.35,12.313c.414,2.183,2.355,3.643,4.063,3.957.342.062.693.095,1.045.099.022,0,.046.002.068.002,1.56,0,3.194-.56,4.728-1.621,2.159-1.494,2.822-4.159,2.525-6.004l-1.595-9.902c-.433-2.686-1.224-5.15-2.471-7.688.204-.138.41-.276.616-.414l.152-.102ZM267.138,30.852l.227.413c1.448,2.662,2.329,5.184,2.772,7.935l1.594,9.902c.153.953-.224,2.287-1.241,2.992-1.238.854-2.494,1.219-3.541,1.024-.659-.121-1.443-.691-1.6-1.51l-2.35-12.313c-1.309-6.861-6.579-7.741-11.024-7.741h0c-.938,0-1.869.041-2.836.085-2.177.094-4.645.205-5.254-.517-.259-.308-.285-1.017-.073-1.996.907-4.193,3.347-4.22,9.29-3.873,4.055.239,8.651.509,13.297-1.476,2.509-1.069,4.719-3.182,5.63-5.383,1.249-3.014.874-5.73-1.027-7.452-1.605-1.455-4.149-2.361-6.637-2.366l-17.926-.031c-.395,0-.925-.078-1.217-.443-.324-.404-.4-1.125-.209-1.978.486-2.173,2.324-3.695,4.468-3.701l17.268-.044c5.715,0,11.846,2.637,12.659,8.528.621,4.505-1.559,9.973-5.553,13.929-1.188,1.177-2.674,2.168-4.109,3.126-.605.404-1.292.863-1.927,1.319l-.385.276c-.41.295-.536.849-.295,1.292Z" fill="url(#linear-gradient12)"/>
  <path d="M451.958,1.044c-.943-1.05-2.616-1.702-4.367-1.702-3.435.005-6.286,2.152-7.097,5.344l-11.543,45.539c-.016.064-.025.13-.029.196-.172,3.456,1.494,5.412,4.821,5.657.158.012.318.018.479.018h0c2.777,0,6.037-1.758,6.894-5.116l11.498-45.118c.391-1.533.352-3.695-.657-4.818ZM449.639,5.105l-11.498,45.117c-.468,1.833-2.527,2.922-4.175,2.795-1.625-.12-2.049-.591-1.99-2.269l11.493-45.307c.46-1.808,2.118-3.025,4.132-3.028.947,0,1.774.352,2.033.632.1.181.252,1.087.005,2.06Z" fill="url(#linear-gradient13)"/>
  <path d="M237.284,23.226l-4.351-.018,2.683-9.645c.264-.941-.142-1.532-.406-1.799-.327-.332-.816-.511-1.324-.502-.465.017-.896.224-1.185.567l-14.688,17.51c-.454.547-.522,1.385-.163,1.996.3.505.904.845,1.502.845l4.335.002-2.716,9.771c-.228.818.175,1.673.957,2.031.218.101.453.151.698.151.51,0,1.011-.234,1.343-.629l14.648-17.465c.474-.568.522-1.407.123-2.033-.274-.438-.789-.73-1.458-.784ZM224.83,38.239l2.088-7.512c.084-.301.022-.624-.167-.872-.189-.249-.483-.396-.796-.396h-4.489s10.326-12.311,10.326-12.311l-2.089,7.505c-.083.3-.022.623.166.872.188.249.481.396.793.396l4.487.017-10.32,12.3Z" fill="url(#linear-gradient14)"/>
</svg>