<?xml version="1.0" encoding="UTF-8"?>
<svg id="Layer_1" xmlns="http://www.w3.org/2000/svg" version="1.1" viewBox="78 420 850 180">
  <!-- Generator: Adobe Illustrator 30.1.0, SVG Export Plug-In . SVG Version: 2.1.1 Build 136)  -->
  <path d="M385.346,558.116l.288,4.446c.243,3.749,2.103,7.194,5.101,9.451,2.249,1.693,4.924,2.588,7.738,2.588s5.506-.901,7.76-2.605l2.467-1.866,1.035-.054c2.319-.124,4.562-.875,6.488-2.171l1.072-.721,1.279.176c3.417.468,6.812-.424,9.534-2.482l29.595-22.386.247,6.488c.133,3.487,1.357,6.719,3.541,9.348,3.025,3.646,7.491,5.653,12.577,5.653h17.648c4.531,0,8.591-1.545,11.742-4.467l2.321-2.152,2.302,2.17c3.09,2.911,7.133,4.449,11.69,4.449h17.497c5.436,0,10.319-2.321,13.395-6.367l1.927-2.536,2.649,1.769c8.905,5.951,19.792,9.095,31.486,9.095,10.587,0,21.406-2.67,31.287-7.72l2.312-1.181,1.74,1.925c2.924,3.233,7.144,5.015,11.884,5.015h24.285c7.58,0,13.596-3.999,16.504-10.971l4.168-9.468,2.605,8.916c2.046,7.001,8.244,11.523,15.789,11.523h.136l24.084-.302c.348-.001.664-.011.977-.029l.399-.022.393.071c1.039.186,2.12.282,3.208.282h22.928c9.267,0,23.135-1.465,36.571-8.442l2.753-1.43,1.664,2.617c.397.624.774,1.148,1.152,1.604,3.026,3.643,7.491,5.651,12.577,5.651h21.57c1.677,0,3.34-.227,4.94-.674l.915-.257.915.258c1.586.447,3.209.673,4.827.673h64.257c8.58,0,15.419-5.733,17.018-14.263l.036-.194,2.696-15.587c.906-5.003-.242-9.725-3.225-13.321-1.509-1.816-3.362-3.22-5.505-4.173l-2.42-1.075,1.944-10.969c.435-2.378.395-4.7-.114-6.923l-.893-3.889,3.982-.247c8.083-.503,14.52-6.215,16.018-14.214l.036-.194,2.696-15.591c.897-4.952-.261-9.651-3.252-13.255-3.026-3.645-7.491-5.652-12.576-5.652h-26.396c-2.411,0-4.73.457-6.894,1.358l-1.316.547-1.312-.558c-2.1-.894-4.377-1.348-6.769-1.348h-21.57c-1.986,0-3.929.313-5.771.932l-.883.296-.91-.197c-2.04-.441-4.176-.475-6.34-.12l-21.939,3.284c-3.717.508-7.06,2.077-9.709,4.543l-1.949,1.816-2.223-1.468c-6.32-4.173-14.304-6.891-23.733-8.079-2.724-.344-5.447-.048-7.936.856l-1.329.483-1.277-.606c-2.223-1.054-4.697-1.589-7.355-1.589h-19.458c-6.369,0-11.783,3.043-14.856,8.348l-2.962,5.114-2.912-5.142c-2.952-5.21-8.429-8.32-14.652-8.32h-26.849c-6.814,0-12.852,3.656-16.152,9.78l-.126.239-9.858,19.244-3.092-5.483c-1.579-2.8-3.397-5.431-5.406-7.82-10.119-12.043-25.036-18.675-42.002-18.675-2.926,0-5.867.196-8.508.567-3.449.459-6.611,1.846-9.167,4.015l-1.158.983-1.505-.212c-3.207-.455-6.611.129-9.803,1.714-4.553,2.238-8.962,5.003-13.118,8.221l-2.555,1.98-2.096-2.462c-10.287-12.091-27.543-12.091-44.232-12.091h-14.841l.737-3.998c.902-4.9-1.143-9.931-5.211-12.816-2.187-1.551-4.761-2.371-7.442-2.371-2.57,0-5.052.757-7.179,2.189l-1.073.723-1.281-.177c-3.426-.477-6.953.477-9.661,2.583l-2.273,1.765-1.064.054c-2.642.134-5.144,1.064-7.236,2.688l-36.48,28.337-2.092-2.538c-1.845-2.238-3.961-4.269-6.289-6.037-6.687-5.077-15.13-8.199-25.811-9.544-2.737-.344-5.446-.047-7.937.856l-1.329.482-1.277-.606c-2.222-1.055-4.697-1.589-7.355-1.589h-19.458c-1.716,0-3.421.241-5.068.715l-.942.271-.942-.274c-1.622-.473-3.295-.712-4.974-.712h-19.307c-6.211,0-11.554,2.932-14.658,8.046l-2.93,4.825-2.877-4.857c-3.018-5.094-8.313-8.015-14.529-8.015h-25.038c-6.369,0-11.784,3.042-14.855,8.346l-2.962,5.115-2.914-5.142c-2.951-5.21-8.428-8.319-14.652-8.319h-26.849c-6.818,0-12.858,3.658-16.155,9.786l-.127.241-9.384,18.319-2.513-7.764c-1.1-3.398-2.782-6.455-4.999-9.088-9.683-11.495-26.241-11.495-40.85-11.495h-21.419c-8.58,0-15.419,5.733-17.018,14.267l-15.249,86.206c-.903,4.955.252,9.663,3.249,13.273,3.025,3.645,7.491,5.652,12.577,5.652h21.419c10.095,0,20.854-.418,31.141-3.451l1.592-.471,1.347.972c2.673,1.931,6.003,2.95,9.629,2.95h24.285c7.582,0,13.598-3.999,16.505-10.971l4.167-9.468,2.606,8.916c2.047,6.999,8.244,11.523,15.789,11.523h.137l24.084-.302c.348-.001.665-.011.978-.029l.401-.022.394.071c1.032.186,2.111.282,3.205.282h19.458c7.739,0,14.021-4.524,16.392-11.805l1.256-3.855,3.569,1.923c.544.294,1.177.569,1.934.842l1.566.565.509,1.584c.61,1.899,1.542,3.613,2.771,5.094,3.025,3.645,7.491,5.652,12.577,5.652h19.307c1.717,0,3.422-.241,5.068-.714l.942-.271.941.274c1.623.472,3.297.711,4.975.711h22.927c9.751,0,18.928-1.478,27.275-4.396l4.207-1.469Z" fill="#231f20"/>
  <g>
    <g>
      <g opacity=".2">
        <path d="M398.474,581.372c-4.296,0-8.379-1.366-11.81-3.95-3.431-2.583-5.885-6.182-7.054-10.234-8.027,2.367-16.667,3.564-25.744,3.564h-22.927c-1.994,0-3.983-.245-5.925-.727-1.961.483-3.975.727-6,.727h-19.307c-7.136,0-13.453-2.876-17.788-8.098-.856-1.031-1.612-2.138-2.264-3.311-4.252,7.071-11.835,11.41-20.524,11.41h-19.458c-1.36,0-2.709-.108-4.015-.321-.302.012-.605.019-.908.02l-24.275.302c-8.076,0-15.067-3.716-19.236-9.87-4.518,6.256-11.603,9.87-19.831,9.87h-24.285c-4.454,0-8.631-1.135-12.183-3.295-10.621,2.884-21.41,3.295-31.527,3.295h-21.419c-7.136,0-13.453-2.876-17.788-8.098-4.297-5.177-5.968-11.851-4.703-18.794l15.265-86.288c2.211-11.805,11.724-19.758,23.666-19.758h21.419c16.085,0,34.317,0,46.029,13.904,1.209,1.436,2.291,2.97,3.24,4.593l2.637-5.139c4.503-8.367,12.771-13.358,22.122-13.358h26.849c6.945,0,13.242,2.803,17.62,7.682,4.438-4.879,10.787-7.682,17.762-7.682h25.038c6.96,0,13.114,2.663,17.478,7.441,4.431-4.724,10.696-7.441,17.516-7.441h19.307c1.995,0,3.984.245,5.926.728,1.962-.483,3.976-.728,6-.728h19.458c3.177,0,6.189.565,8.976,1.682,3.114-.924,6.435-1.191,9.767-.773,11.895,1.498,21.4,5.053,29.06,10.869,1.866,1.417,3.617,2.977,5.231,4.661l31.383-24.377c2.898-2.252,6.315-3.629,9.94-4.017l.632-.491c3.801-2.952,8.639-4.432,13.47-4.076,2.995-1.746,6.384-2.664,9.878-2.664,4.093,0,8.02,1.252,11.359,3.619,5.102,3.619,8.12,9.451,8.269,15.566h7.129c17.187,0,34.927,0,47.22,12.138,3.778-2.716,7.728-5.092,11.78-7.084,3.929-1.951,8.114-2.803,12.255-2.508,3.321-2.478,7.252-4.07,11.461-4.63,2.923-.411,6.19-.63,9.426-.63,19,0,35.758,7.49,47.186,21.09.996,1.185,1.949,2.421,2.856,3.701l4.491-8.754c4.49-8.334,12.756-13.321,22.103-13.321h26.849c6.945,0,13.242,2.803,17.621,7.683,4.438-4.879,10.788-7.683,17.761-7.683h19.458c3.176,0,6.189.565,8.975,1.682,3.116-.924,6.459-1.19,9.769-.773,9.45,1.19,17.666,3.813,24.467,7.807,3.291-2.454,7.165-4.033,11.341-4.604l21.849-3.27c2.589-.426,5.316-.436,7.908.014,2.272-.668,4.638-1.007,7.046-1.007h21.57c2.822,0,5.542.462,8.108,1.375,2.608-.913,5.354-1.375,8.183-1.375h26.396c7.134,0,13.451,2.876,17.786,8.098h0c4.29,5.169,5.963,11.831,4.709,18.759l-2.752,15.886c-1.843,9.846-9.126,17.207-18.621,19.202.131,1.972.012,3.976-.357,5.991l-1.046,5.899c2.107,1.263,3.974,2.868,5.573,4.792,4.283,5.161,5.947,11.847,4.684,18.827l-2.751,15.875c-2.212,11.808-11.726,19.759-23.667,19.759h-64.257c-1.925,0-3.855-.231-5.748-.688-1.91.456-3.872.688-5.849.688h-21.57c-7.051,0-13.303-2.809-17.633-7.913-13.805,6.501-27.657,7.913-37.084,7.913h-22.928c-1.354,0-2.702-.108-4.013-.321-.303.012-.606.019-.91.02l-24.274.302c-8.077,0-15.067-3.716-19.237-9.872-4.519,6.258-11.603,9.872-19.829,9.872h-24.285c-5.752,0-11.004-1.908-15.049-5.422-10.23,4.836-21.303,7.383-32.174,7.383-11.965,0-23.216-2.982-32.733-8.648-4.316,4.282-10.255,6.687-16.723,6.687h-17.497c-5.172,0-10.05-1.542-14.024-4.392-4.007,2.85-8.89,4.392-14.031,4.392h-17.648c-7.136,0-13.453-2.876-17.787-8.098-1.859-2.237-3.234-4.774-4.088-7.505l-20.002,15.13c-3.816,2.885-8.467,4.27-13.271,3.922-2.374,1.382-5.015,2.251-7.748,2.548l-.856.648c-3.439,2.6-7.534,3.975-11.844,3.975ZM385.346,558.117l.288,4.446c.243,3.749,2.103,7.194,5.101,9.451,2.249,1.693,4.924,2.588,7.738,2.588s5.506-.901,7.76-2.605l2.467-1.866,1.035-.054c2.319-.124,4.562-.875,6.488-2.171l1.072-.721,1.279.176c3.417.468,6.812-.424,9.534-2.482l29.595-22.386.247,6.488c.133,3.487,1.357,6.719,3.541,9.348,3.025,3.646,7.491,5.653,12.577,5.653h17.648c4.531,0,8.591-1.545,11.742-4.467l2.321-2.152,2.302,2.17c3.09,2.911,7.133,4.449,11.69,4.449h17.497c5.436,0,10.319-2.321,13.395-6.367l1.927-2.536,2.649,1.769c8.905,5.951,19.792,9.095,31.486,9.095,10.587,0,21.406-2.67,31.287-7.72l2.312-1.181,1.74,1.925c2.924,3.233,7.144,5.015,11.884,5.015h24.285c7.58,0,13.596-3.999,16.504-10.971l4.168-9.468,2.605,8.916c2.046,7.001,8.244,11.523,15.789,11.523h.136l24.084-.302c.348-.001.664-.011.977-.029l.399-.022.393.071c1.039.186,2.12.282,3.208.282h22.928c9.267,0,23.135-1.465,36.571-8.442l2.753-1.43,1.664,2.617c.397.624.774,1.148,1.152,1.604,3.026,3.643,7.491,5.651,12.577,5.651h21.57c1.677,0,3.34-.227,4.94-.674l.915-.257.915.258c1.586.447,3.209.673,4.827.673h64.257c8.58,0,15.419-5.733,17.018-14.263l.036-.194,2.696-15.587c.906-5.003-.242-9.725-3.225-13.321-1.509-1.816-3.362-3.22-5.505-4.173l-2.42-1.075,1.944-10.969c.435-2.378.395-4.7-.114-6.923l-.893-3.889,3.982-.247c8.083-.503,14.52-6.215,16.018-14.214l.036-.194,2.696-15.591c.897-4.952-.261-9.651-3.252-13.255-3.026-3.645-7.491-5.652-12.576-5.652h-26.396c-2.411,0-4.73.457-6.894,1.358l-1.316.547-1.312-.558c-2.1-.894-4.377-1.348-6.769-1.348h-21.57c-1.986,0-3.929.313-5.771.932l-.883.296-.91-.197c-2.04-.441-4.176-.475-6.34-.12l-21.939,3.284c-3.717.508-7.06,2.077-9.709,4.543l-1.949,1.816-2.223-1.468c-6.32-4.173-14.304-6.891-23.733-8.079-2.724-.344-5.447-.048-7.936.856l-1.329.483-1.277-.606c-2.223-1.054-4.697-1.589-7.355-1.589h-19.458c-6.369,0-11.783,3.043-14.856,8.348l-2.962,5.114-2.912-5.142c-2.952-5.21-8.429-8.32-14.652-8.32h-26.849c-6.814,0-12.852,3.656-16.152,9.78l-.126.239-9.858,19.244-3.092-5.483c-1.579-2.8-3.397-5.431-5.406-7.82-10.119-12.043-25.036-18.675-42.002-18.675-2.926,0-5.867.196-8.508.567-3.449.459-6.611,1.846-9.167,4.015l-1.158.983-1.505-.212c-3.207-.455-6.611.129-9.803,1.714-4.553,2.238-8.962,5.003-13.118,8.221l-2.555,1.98-2.096-2.462c-10.287-12.091-27.543-12.091-44.232-12.091h-14.841l.737-3.998c.902-4.9-1.143-9.931-5.211-12.816-2.187-1.551-4.761-2.371-7.442-2.371-2.57,0-5.052.757-7.179,2.189l-1.073.723-1.281-.177c-3.426-.477-6.953.477-9.661,2.583l-2.273,1.765-1.064.054c-2.642.134-5.144,1.064-7.236,2.688l-36.48,28.337-2.092-2.538c-1.845-2.238-3.961-4.269-6.289-6.037-6.687-5.077-15.13-8.199-25.811-9.544-2.737-.344-5.446-.047-7.937.856l-1.329.482-1.277-.606c-2.222-1.055-4.697-1.589-7.355-1.589h-19.458c-1.716,0-3.421.241-5.068.715l-.942.271-.942-.274c-1.622-.473-3.295-.712-4.974-.712h-19.307c-6.211,0-11.554,2.932-14.658,8.046l-2.93,4.825-2.877-4.857c-3.018-5.094-8.313-8.015-14.529-8.015h-25.038c-6.369,0-11.784,3.042-14.855,8.346l-2.962,5.115-2.914-5.142c-2.951-5.21-8.428-8.319-14.652-8.319h-26.849c-6.818,0-12.858,3.658-16.155,9.786l-.127.241-9.384,18.319-2.513-7.764c-1.1-3.398-2.782-6.455-4.999-9.088-9.683-11.495-26.241-11.495-40.85-11.495h-21.419c-8.58,0-15.419,5.733-17.018,14.267l-15.249,86.206c-.903,4.955.252,9.663,3.249,13.273,3.025,3.645,7.491,5.652,12.577,5.652h21.419c10.095,0,20.854-.418,31.141-3.451l1.592-.471,1.347.972c2.673,1.931,6.003,2.95,9.629,2.95h24.285c7.582,0,13.598-3.999,16.505-10.971l4.167-9.468,2.606,8.916c2.047,6.999,8.244,11.523,15.789,11.523h.137l24.084-.302c.348-.001.665-.011.978-.029l.401-.022.394.071c1.032.186,2.111.282,3.205.282h19.458c7.739,0,14.021-4.524,16.392-11.805l1.256-3.855,3.569,1.923c.544.294,1.177.569,1.934.842l1.566.565.509,1.584c.61,1.899,1.542,3.613,2.771,5.094,3.025,3.645,7.491,5.652,12.577,5.652h19.307c1.717,0,3.422-.241,5.068-.714l.942-.271.941.274c1.623.472,3.297.711,4.975.711h22.927c9.751,0,18.928-1.478,27.275-4.396l4.207-1.469Z" fill="none" stroke="#7ed1e2" stroke-linecap="round" stroke-linejoin="round" stroke-width="5"/>
      </g>
      <g opacity=".25">
        <path d="M398.474,581.372c-4.296,0-8.379-1.366-11.81-3.95-3.431-2.583-5.885-6.182-7.054-10.234-8.027,2.367-16.667,3.564-25.744,3.564h-22.927c-1.994,0-3.983-.245-5.925-.727-1.961.483-3.975.727-6,.727h-19.307c-7.136,0-13.453-2.876-17.788-8.098-.856-1.031-1.612-2.138-2.264-3.311-4.252,7.071-11.835,11.41-20.524,11.41h-19.458c-1.36,0-2.709-.108-4.015-.321-.302.012-.605.019-.908.02l-24.275.302c-8.076,0-15.067-3.716-19.236-9.87-4.518,6.256-11.603,9.87-19.831,9.87h-24.285c-4.454,0-8.631-1.135-12.183-3.295-10.621,2.884-21.41,3.295-31.527,3.295h-21.419c-7.136,0-13.453-2.876-17.788-8.098-4.297-5.177-5.968-11.851-4.703-18.794l15.265-86.288c2.211-11.805,11.724-19.758,23.666-19.758h21.419c16.085,0,34.317,0,46.029,13.904,1.209,1.436,2.291,2.97,3.24,4.593l2.637-5.139c4.503-8.367,12.771-13.358,22.122-13.358h26.849c6.945,0,13.242,2.803,17.62,7.682,4.438-4.879,10.787-7.682,17.762-7.682h25.038c6.96,0,13.114,2.663,17.478,7.441,4.431-4.724,10.696-7.441,17.516-7.441h19.307c1.995,0,3.984.245,5.926.728,1.962-.483,3.976-.728,6-.728h19.458c3.177,0,6.189.565,8.976,1.682,3.114-.924,6.435-1.191,9.767-.773,11.895,1.498,21.4,5.053,29.06,10.869,1.866,1.417,3.617,2.977,5.231,4.661l31.383-24.377c2.898-2.252,6.315-3.629,9.94-4.017l.632-.491c3.801-2.952,8.639-4.432,13.47-4.076,2.995-1.746,6.384-2.664,9.878-2.664,4.093,0,8.02,1.252,11.359,3.619,5.102,3.619,8.12,9.451,8.269,15.566h7.129c17.187,0,34.927,0,47.22,12.138,3.778-2.716,7.728-5.092,11.78-7.084,3.929-1.951,8.114-2.803,12.255-2.508,3.321-2.478,7.252-4.07,11.461-4.63,2.923-.411,6.19-.63,9.426-.63,19,0,35.758,7.49,47.186,21.09.996,1.185,1.949,2.421,2.856,3.701l4.491-8.754c4.49-8.334,12.756-13.321,22.103-13.321h26.849c6.945,0,13.242,2.803,17.621,7.683,4.438-4.879,10.788-7.683,17.761-7.683h19.458c3.176,0,6.189.565,8.975,1.682,3.116-.924,6.459-1.19,9.769-.773,9.45,1.19,17.666,3.813,24.467,7.807,3.291-2.454,7.165-4.033,11.341-4.604l21.849-3.27c2.589-.426,5.316-.436,7.908.014,2.272-.668,4.638-1.007,7.046-1.007h21.57c2.822,0,5.542.462,8.108,1.375,2.608-.913,5.354-1.375,8.183-1.375h26.396c7.134,0,13.451,2.876,17.786,8.098h0c4.29,5.169,5.963,11.831,4.709,18.759l-2.752,15.886c-1.843,9.846-9.126,17.207-18.621,19.202.131,1.972.012,3.976-.357,5.991l-1.046,5.899c2.107,1.263,3.974,2.868,5.573,4.792,4.283,5.161,5.947,11.847,4.684,18.827l-2.751,15.875c-2.212,11.808-11.726,19.759-23.667,19.759h-64.257c-1.925,0-3.855-.231-5.748-.688-1.91.456-3.872.688-5.849.688h-21.57c-7.051,0-13.303-2.809-17.633-7.913-13.805,6.501-27.657,7.913-37.084,7.913h-22.928c-1.354,0-2.702-.108-4.013-.321-.303.012-.606.019-.91.02l-24.274.302c-8.077,0-15.067-3.716-19.237-9.872-4.519,6.258-11.603,9.872-19.829,9.872h-24.285c-5.752,0-11.004-1.908-15.049-5.422-10.23,4.836-21.303,7.383-32.174,7.383-11.965,0-23.216-2.982-32.733-8.648-4.316,4.282-10.255,6.687-16.723,6.687h-17.497c-5.172,0-10.05-1.542-14.024-4.392-4.007,2.85-8.89,4.392-14.031,4.392h-17.648c-7.136,0-13.453-2.876-17.787-8.098-1.859-2.237-3.234-4.774-4.088-7.505l-20.002,15.13c-3.816,2.885-8.467,4.27-13.271,3.922-2.374,1.382-5.015,2.251-7.748,2.548l-.856.648c-3.439,2.6-7.534,3.975-11.844,3.975ZM385.346,558.117l.288,4.446c.243,3.749,2.103,7.194,5.101,9.451,2.249,1.693,4.924,2.588,7.738,2.588s5.506-.901,7.76-2.605l2.467-1.866,1.035-.054c2.319-.124,4.562-.875,6.488-2.171l1.072-.721,1.279.176c3.417.468,6.812-.424,9.534-2.482l29.595-22.386.247,6.488c.133,3.487,1.357,6.719,3.541,9.348,3.025,3.646,7.491,5.653,12.577,5.653h17.648c4.531,0,8.591-1.545,11.742-4.467l2.321-2.152,2.302,2.17c3.09,2.911,7.133,4.449,11.69,4.449h17.497c5.436,0,10.319-2.321,13.395-6.367l1.927-2.536,2.649,1.769c8.905,5.951,19.792,9.095,31.486,9.095,10.587,0,21.406-2.67,31.287-7.72l2.312-1.181,1.74,1.925c2.924,3.233,7.144,5.015,11.884,5.015h24.285c7.58,0,13.596-3.999,16.504-10.971l4.168-9.468,2.605,8.916c2.046,7.001,8.244,11.523,15.789,11.523h.136l24.084-.302c.348-.001.664-.011.977-.029l.399-.022.393.071c1.039.186,2.12.282,3.208.282h22.928c9.267,0,23.135-1.465,36.571-8.442l2.753-1.43,1.664,2.617c.397.624.774,1.148,1.152,1.604,3.026,3.643,7.491,5.651,12.577,5.651h21.57c1.677,0,3.34-.227,4.94-.674l.915-.257.915.258c1.586.447,3.209.673,4.827.673h64.257c8.58,0,15.419-5.733,17.018-14.263l.036-.194,2.696-15.587c.906-5.003-.242-9.725-3.225-13.321-1.509-1.816-3.362-3.22-5.505-4.173l-2.42-1.075,1.944-10.969c.435-2.378.395-4.7-.114-6.923l-.893-3.889,3.982-.247c8.083-.503,14.52-6.215,16.018-14.214l.036-.194,2.696-15.591c.897-4.952-.261-9.651-3.252-13.255-3.026-3.645-7.491-5.652-12.576-5.652h-26.396c-2.411,0-4.73.457-6.894,1.358l-1.316.547-1.312-.558c-2.1-.894-4.377-1.348-6.769-1.348h-21.57c-1.986,0-3.929.313-5.771.932l-.883.296-.91-.197c-2.04-.441-4.176-.475-6.34-.12l-21.939,3.284c-3.717.508-7.06,2.077-9.709,4.543l-1.949,1.816-2.223-1.468c-6.32-4.173-14.304-6.891-23.733-8.079-2.724-.344-5.447-.048-7.936.856l-1.329.483-1.277-.606c-2.223-1.054-4.697-1.589-7.355-1.589h-19.458c-6.369,0-11.783,3.043-14.856,8.348l-2.962,5.114-2.912-5.142c-2.952-5.21-8.429-8.32-14.652-8.32h-26.849c-6.814,0-12.852,3.656-16.152,9.78l-.126.239-9.858,19.244-3.092-5.483c-1.579-2.8-3.397-5.431-5.406-7.82-10.119-12.043-25.036-18.675-42.002-18.675-2.926,0-5.867.196-8.508.567-3.449.459-6.611,1.846-9.167,4.015l-1.158.983-1.505-.212c-3.207-.455-6.611.129-9.803,1.714-4.553,2.238-8.962,5.003-13.118,8.221l-2.555,1.98-2.096-2.462c-10.287-12.091-27.543-12.091-44.232-12.091h-14.841l.737-3.998c.902-4.9-1.143-9.931-5.211-12.816-2.187-1.551-4.761-2.371-7.442-2.371-2.57,0-5.052.757-7.179,2.189l-1.073.723-1.281-.177c-3.426-.477-6.953.477-9.661,2.583l-2.273,1.765-1.064.054c-2.642.134-5.144,1.064-7.236,2.688l-36.48,28.337-2.092-2.538c-1.845-2.238-3.961-4.269-6.289-6.037-6.687-5.077-15.13-8.199-25.811-9.544-2.737-.344-5.446-.047-7.937.856l-1.329.482-1.277-.606c-2.222-1.055-4.697-1.589-7.355-1.589h-19.458c-1.716,0-3.421.241-5.068.715l-.942.271-.942-.274c-1.622-.473-3.295-.712-4.974-.712h-19.307c-6.211,0-11.554,2.932-14.658,8.046l-2.93,4.825-2.877-4.857c-3.018-5.094-8.313-8.015-14.529-8.015h-25.038c-6.369,0-11.784,3.042-14.855,8.346l-2.962,5.115-2.914-5.142c-2.951-5.21-8.428-8.319-14.652-8.319h-26.849c-6.818,0-12.858,3.658-16.155,9.786l-.127.241-9.384,18.319-2.513-7.764c-1.1-3.398-2.782-6.455-4.999-9.088-9.683-11.495-26.241-11.495-40.85-11.495h-21.419c-8.58,0-15.419,5.733-17.018,14.267l-15.249,86.206c-.903,4.955.252,9.663,3.249,13.273,3.025,3.645,7.491,5.652,12.577,5.652h21.419c10.095,0,20.854-.418,31.141-3.451l1.592-.471,1.347.972c2.673,1.931,6.003,2.95,9.629,2.95h24.285c7.582,0,13.598-3.999,16.505-10.971l4.167-9.468,2.606,8.916c2.047,6.999,8.244,11.523,15.789,11.523h.137l24.084-.302c.348-.001.665-.011.978-.029l.401-.022.394.071c1.032.186,2.111.282,3.205.282h19.458c7.739,0,14.021-4.524,16.392-11.805l1.256-3.855,3.569,1.923c.544.294,1.177.569,1.934.842l1.566.565.509,1.584c.61,1.899,1.542,3.613,2.771,5.094,3.025,3.645,7.491,5.652,12.577,5.652h19.307c1.717,0,3.422-.241,5.068-.714l.942-.271.941.274c1.623.472,3.297.711,4.975.711h22.927c9.751,0,18.928-1.478,27.275-4.396l4.207-1.469Z" fill="none" stroke="#64cade" stroke-linecap="round" stroke-linejoin="round" stroke-width="4"/>
      </g>
      <g opacity=".3">
        <path d="M398.474,581.372c-4.296,0-8.379-1.366-11.81-3.95-3.431-2.583-5.885-6.182-7.054-10.234-8.027,2.367-16.667,3.564-25.744,3.564h-22.927c-1.994,0-3.983-.245-5.925-.727-1.961.483-3.975.727-6,.727h-19.307c-7.136,0-13.453-2.876-17.788-8.098-.856-1.031-1.612-2.138-2.264-3.311-4.252,7.071-11.835,11.41-20.524,11.41h-19.458c-1.36,0-2.709-.108-4.015-.321-.302.012-.605.019-.908.02l-24.275.302c-8.076,0-15.067-3.716-19.236-9.87-4.518,6.256-11.603,9.87-19.831,9.87h-24.285c-4.454,0-8.631-1.135-12.183-3.295-10.621,2.884-21.41,3.295-31.527,3.295h-21.419c-7.136,0-13.453-2.876-17.788-8.098-4.297-5.177-5.968-11.851-4.703-18.794l15.265-86.288c2.211-11.805,11.724-19.758,23.666-19.758h21.419c16.085,0,34.317,0,46.029,13.904,1.209,1.436,2.291,2.97,3.24,4.593l2.637-5.139c4.503-8.367,12.771-13.358,22.122-13.358h26.849c6.945,0,13.242,2.803,17.62,7.682,4.438-4.879,10.787-7.682,17.762-7.682h25.038c6.96,0,13.114,2.663,17.478,7.441,4.431-4.724,10.696-7.441,17.516-7.441h19.307c1.995,0,3.984.245,5.926.728,1.962-.483,3.976-.728,6-.728h19.458c3.177,0,6.189.565,8.976,1.682,3.114-.924,6.435-1.191,9.767-.773,11.895,1.498,21.4,5.053,29.06,10.869,1.866,1.417,3.617,2.977,5.231,4.661l31.383-24.377c2.898-2.252,6.315-3.629,9.94-4.017l.632-.491c3.801-2.952,8.639-4.432,13.47-4.076,2.995-1.746,6.384-2.664,9.878-2.664,4.093,0,8.02,1.252,11.359,3.619,5.102,3.619,8.12,9.451,8.269,15.566h7.129c17.187,0,34.927,0,47.22,12.138,3.778-2.716,7.728-5.092,11.78-7.084,3.929-1.951,8.114-2.803,12.255-2.508,3.321-2.478,7.252-4.07,11.461-4.63,2.923-.411,6.19-.63,9.426-.63,19,0,35.758,7.49,47.186,21.09.996,1.185,1.949,2.421,2.856,3.701l4.491-8.754c4.49-8.334,12.756-13.321,22.103-13.321h26.849c6.945,0,13.242,2.803,17.621,7.683,4.438-4.879,10.788-7.683,17.761-7.683h19.458c3.176,0,6.189.565,8.975,1.682,3.116-.924,6.459-1.19,9.769-.773,9.45,1.19,17.666,3.813,24.467,7.807,3.291-2.454,7.165-4.033,11.341-4.604l21.849-3.27c2.589-.426,5.316-.436,7.908.014,2.272-.668,4.638-1.007,7.046-1.007h21.57c2.822,0,5.542.462,8.108,1.375,2.608-.913,5.354-1.375,8.183-1.375h26.396c7.134,0,13.451,2.876,17.786,8.098h0c4.29,5.169,5.963,11.831,4.709,18.759l-2.752,15.886c-1.843,9.846-9.126,17.207-18.621,19.202.131,1.972.012,3.976-.357,5.991l-1.046,5.899c2.107,1.263,3.974,2.868,5.573,4.792,4.283,5.161,5.947,11.847,4.684,18.827l-2.751,15.875c-2.212,11.808-11.726,19.759-23.667,19.759h-64.257c-1.925,0-3.855-.231-5.748-.688-1.91.456-3.872.688-5.849.688h-21.57c-7.051,0-13.303-2.809-17.633-7.913-13.805,6.501-27.657,7.913-37.084,7.913h-22.928c-1.354,0-2.702-.108-4.013-.321-.303.012-.606.019-.91.02l-24.274.302c-8.077,0-15.067-3.716-19.237-9.872-4.519,6.258-11.603,9.872-19.829,9.872h-24.285c-5.752,0-11.004-1.908-15.049-5.422-10.23,4.836-21.303,7.383-32.174,7.383-11.965,0-23.216-2.982-32.733-8.648-4.316,4.282-10.255,6.687-16.723,6.687h-17.497c-5.172,0-10.05-1.542-14.024-4.392-4.007,2.85-8.89,4.392-14.031,4.392h-17.648c-7.136,0-13.453-2.876-17.787-8.098-1.859-2.237-3.234-4.774-4.088-7.505l-20.002,15.13c-3.816,2.885-8.467,4.27-13.271,3.922-2.374,1.382-5.015,2.251-7.748,2.548l-.856.648c-3.439,2.6-7.534,3.975-11.844,3.975ZM385.346,558.117l.288,4.446c.243,3.749,2.103,7.194,5.101,9.451,2.249,1.693,4.924,2.588,7.738,2.588s5.506-.901,7.76-2.605l2.467-1.866,1.035-.054c2.319-.124,4.562-.875,6.488-2.171l1.072-.721,1.279.176c3.417.468,6.812-.424,9.534-2.482l29.595-22.386.247,6.488c.133,3.487,1.357,6.719,3.541,9.348,3.025,3.646,7.491,5.653,12.577,5.653h17.648c4.531,0,8.591-1.545,11.742-4.467l2.321-2.152,2.302,2.17c3.09,2.911,7.133,4.449,11.69,4.449h17.497c5.436,0,10.319-2.321,13.395-6.367l1.927-2.536,2.649,1.769c8.905,5.951,19.792,9.095,31.486,9.095,10.587,0,21.406-2.67,31.287-7.72l2.312-1.181,1.74,1.925c2.924,3.233,7.144,5.015,11.884,5.015h24.285c7.58,0,13.596-3.999,16.504-10.971l4.168-9.468,2.605,8.916c2.046,7.001,8.244,11.523,15.789,11.523h.136l24.084-.302c.348-.001.664-.011.977-.029l.399-.022.393.071c1.039.186,2.12.282,3.208.282h22.928c9.267,0,23.135-1.465,36.571-8.442l2.753-1.43,1.664,2.617c.397.624.774,1.148,1.152,1.604,3.026,3.643,7.491,5.651,12.577,5.651h21.57c1.677,0,3.34-.227,4.94-.674l.915-.257.915.258c1.586.447,3.209.673,4.827.673h64.257c8.58,0,15.419-5.733,17.018-14.263l.036-.194,2.696-15.587c.906-5.003-.242-9.725-3.225-13.321-1.509-1.816-3.362-3.22-5.505-4.173l-2.42-1.075,1.944-10.969c.435-2.378.395-4.7-.114-6.923l-.893-3.889,3.982-.247c8.083-.503,14.52-6.215,16.018-14.214l.036-.194,2.696-15.591c.897-4.952-.261-9.651-3.252-13.255-3.026-3.645-7.491-5.652-12.576-5.652h-26.396c-2.411,0-4.73.457-6.894,1.358l-1.316.547-1.312-.558c-2.1-.894-4.377-1.348-6.769-1.348h-21.57c-1.986,0-3.929.313-5.771.932l-.883.296-.91-.197c-2.04-.441-4.176-.475-6.34-.12l-21.939,3.284c-3.717.508-7.06,2.077-9.709,4.543l-1.949,1.816-2.223-1.468c-6.32-4.173-14.304-6.891-23.733-8.079-2.724-.344-5.447-.048-7.936.856l-1.329.483-1.277-.606c-2.223-1.054-4.697-1.589-7.355-1.589h-19.458c-6.369,0-11.783,3.043-14.856,8.348l-2.962,5.114-2.912-5.142c-2.952-5.21-8.429-8.32-14.652-8.32h-26.849c-6.814,0-12.852,3.656-16.152,9.78l-.126.239-9.858,19.244-3.092-5.483c-1.579-2.8-3.397-5.431-5.406-7.82-10.119-12.043-25.036-18.675-42.002-18.675-2.926,0-5.867.196-8.508.567-3.449.459-6.611,1.846-9.167,4.015l-1.158.983-1.505-.212c-3.207-.455-6.611.129-9.803,1.714-4.553,2.238-8.962,5.003-13.118,8.221l-2.555,1.98-2.096-2.462c-10.287-12.091-27.543-12.091-44.232-12.091h-14.841l.737-3.998c.902-4.9-1.143-9.931-5.211-12.816-2.187-1.551-4.761-2.371-7.442-2.371-2.57,0-5.052.757-7.179,2.189l-1.073.723-1.281-.177c-3.426-.477-6.953.477-9.661,2.583l-2.273,1.765-1.064.054c-2.642.134-5.144,1.064-7.236,2.688l-36.48,28.337-2.092-2.538c-1.845-2.238-3.961-4.269-6.289-6.037-6.687-5.077-15.13-8.199-25.811-9.544-2.737-.344-5.446-.047-7.937.856l-1.329.482-1.277-.606c-2.222-1.055-4.697-1.589-7.355-1.589h-19.458c-1.716,0-3.421.241-5.068.715l-.942.271-.942-.274c-1.622-.473-3.295-.712-4.974-.712h-19.307c-6.211,0-11.554,2.932-14.658,8.046l-2.93,4.825-2.877-4.857c-3.018-5.094-8.313-8.015-14.529-8.015h-25.038c-6.369,0-11.784,3.042-14.855,8.346l-2.962,5.115-2.914-5.142c-2.951-5.21-8.428-8.319-14.652-8.319h-26.849c-6.818,0-12.858,3.658-16.155,9.786l-.127.241-9.384,18.319-2.513-7.764c-1.1-3.398-2.782-6.455-4.999-9.088-9.683-11.495-26.241-11.495-40.85-11.495h-21.419c-8.58,0-15.419,5.733-17.018,14.267l-15.249,86.206c-.903,4.955.252,9.663,3.249,13.273,3.025,3.645,7.491,5.652,12.577,5.652h21.419c10.095,0,20.854-.418,31.141-3.451l1.592-.471,1.347.972c2.673,1.931,6.003,2.95,9.629,2.95h24.285c7.582,0,13.598-3.999,16.505-10.971l4.167-9.468,2.606,8.916c2.047,6.999,8.244,11.523,15.789,11.523h.137l24.084-.302c.348-.001.665-.011.978-.029l.401-.022.394.071c1.032.186,2.111.282,3.205.282h19.458c7.739,0,14.021-4.524,16.392-11.805l1.256-3.855,3.569,1.923c.544.294,1.177.569,1.934.842l1.566.565.509,1.584c.61,1.899,1.542,3.613,2.771,5.094,3.025,3.645,7.491,5.652,12.577,5.652h19.307c1.717,0,3.422-.241,5.068-.714l.942-.271.941.274c1.623.472,3.297.711,4.975.711h22.927c9.751,0,18.928-1.478,27.275-4.396l4.207-1.469Z" fill="none" stroke="#00bad5" stroke-linecap="round" stroke-linejoin="round" stroke-width="3.15"/>
      </g>
      <path d="M398.474,581.372c-4.296,0-8.379-1.366-11.81-3.95-3.431-2.583-5.885-6.182-7.054-10.234-8.027,2.367-16.667,3.564-25.744,3.564h-22.927c-1.994,0-3.983-.245-5.925-.727-1.961.483-3.975.727-6,.727h-19.307c-7.136,0-13.453-2.876-17.788-8.098-.856-1.031-1.612-2.138-2.264-3.311-4.252,7.071-11.835,11.41-20.524,11.41h-19.458c-1.36,0-2.709-.108-4.015-.321-.302.012-.605.019-.908.02l-24.275.302c-8.076,0-15.067-3.716-19.236-9.87-4.518,6.256-11.603,9.87-19.831,9.87h-24.285c-4.454,0-8.631-1.135-12.183-3.295-10.621,2.884-21.41,3.295-31.527,3.295h-21.419c-7.136,0-13.453-2.876-17.788-8.098-4.297-5.177-5.968-11.851-4.703-18.794l15.265-86.288c2.211-11.805,11.724-19.758,23.666-19.758h21.419c16.085,0,34.317,0,46.029,13.904,1.209,1.436,2.291,2.97,3.24,4.593l2.637-5.139c4.503-8.367,12.771-13.358,22.122-13.358h26.849c6.945,0,13.242,2.803,17.62,7.682,4.438-4.879,10.787-7.682,17.762-7.682h25.038c6.96,0,13.114,2.663,17.478,7.441,4.431-4.724,10.696-7.441,17.516-7.441h19.307c1.995,0,3.984.245,5.926.728,1.962-.483,3.976-.728,6-.728h19.458c3.177,0,6.189.565,8.976,1.682,3.114-.924,6.435-1.191,9.767-.773,11.895,1.498,21.4,5.053,29.06,10.869,1.866,1.417,3.617,2.977,5.231,4.661l31.383-24.377c2.898-2.252,6.315-3.629,9.94-4.017l.632-.491c3.801-2.952,8.639-4.432,13.47-4.076,2.995-1.746,6.384-2.664,9.878-2.664,4.093,0,8.02,1.252,11.359,3.619,5.102,3.619,8.12,9.451,8.269,15.566h7.129c17.187,0,34.927,0,47.22,12.138,3.778-2.716,7.728-5.092,11.78-7.084,3.929-1.951,8.114-2.803,12.255-2.508,3.321-2.478,7.252-4.07,11.461-4.63,2.923-.411,6.19-.63,9.426-.63,19,0,35.758,7.49,47.186,21.09.996,1.185,1.949,2.421,2.856,3.701l4.491-8.754c4.49-8.334,12.756-13.321,22.103-13.321h26.849c6.945,0,13.242,2.803,17.621,7.683,4.438-4.879,10.788-7.683,17.761-7.683h19.458c3.176,0,6.189.565,8.975,1.682,3.116-.924,6.459-1.19,9.769-.773,9.45,1.19,17.666,3.813,24.467,7.807,3.291-2.454,7.165-4.033,11.341-4.604l21.849-3.27c2.589-.426,5.316-.436,7.908.014,2.272-.668,4.638-1.007,7.046-1.007h21.57c2.822,0,5.542.462,8.108,1.375,2.608-.913,5.354-1.375,8.183-1.375h26.396c7.134,0,13.451,2.876,17.786,8.098h0c4.29,5.169,5.963,11.831,4.709,18.759l-2.752,15.886c-1.843,9.846-9.126,17.207-18.621,19.202.131,1.972.012,3.976-.357,5.991l-1.046,5.899c2.107,1.263,3.974,2.868,5.573,4.792,4.283,5.161,5.947,11.847,4.684,18.827l-2.751,15.875c-2.212,11.808-11.726,19.759-23.667,19.759h-64.257c-1.925,0-3.855-.231-5.748-.688-1.91.456-3.872.688-5.849.688h-21.57c-7.051,0-13.303-2.809-17.633-7.913-13.805,6.501-27.657,7.913-37.084,7.913h-22.928c-1.354,0-2.702-.108-4.013-.321-.303.012-.606.019-.91.02l-24.274.302c-8.077,0-15.067-3.716-19.237-9.872-4.519,6.258-11.603,9.872-19.829,9.872h-24.285c-5.752,0-11.004-1.908-15.049-5.422-10.23,4.836-21.303,7.383-32.174,7.383-11.965,0-23.216-2.982-32.733-8.648-4.316,4.282-10.255,6.687-16.723,6.687h-17.497c-5.172,0-10.05-1.542-14.024-4.392-4.007,2.85-8.89,4.392-14.031,4.392h-17.648c-7.136,0-13.453-2.876-17.787-8.098-1.859-2.237-3.234-4.774-4.088-7.505l-20.002,15.13c-3.816,2.885-8.467,4.27-13.271,3.922-2.374,1.382-5.015,2.251-7.748,2.548l-.856.648c-3.439,2.6-7.534,3.975-11.844,3.975ZM385.346,558.117l.288,4.446c.243,3.749,2.103,7.194,5.101,9.451,2.249,1.693,4.924,2.588,7.738,2.588s5.506-.901,7.76-2.605l2.467-1.866,1.035-.054c2.319-.124,4.562-.875,6.488-2.171l1.072-.721,1.279.176c3.417.468,6.812-.424,9.534-2.482l29.595-22.386.247,6.488c.133,3.487,1.357,6.719,3.541,9.348,3.025,3.646,7.491,5.653,12.577,5.653h17.648c4.531,0,8.591-1.545,11.742-4.467l2.321-2.152,2.302,2.17c3.09,2.911,7.133,4.449,11.69,4.449h17.497c5.436,0,10.319-2.321,13.395-6.367l1.927-2.536,2.649,1.769c8.905,5.951,19.792,9.095,31.486,9.095,10.587,0,21.406-2.67,31.287-7.72l2.312-1.181,1.74,1.925c2.924,3.233,7.144,5.015,11.884,5.015h24.285c7.58,0,13.596-3.999,16.504-10.971l4.168-9.468,2.605,8.916c2.046,7.001,8.244,11.523,15.789,11.523h.136l24.084-.302c.348-.001.664-.011.977-.029l.399-.022.393.071c1.039.186,2.12.282,3.208.282h22.928c9.267,0,23.135-1.465,36.571-8.442l2.753-1.43,1.664,2.617c.397.624.774,1.148,1.152,1.604,3.026,3.643,7.491,5.651,12.577,5.651h21.57c1.677,0,3.34-.227,4.94-.674l.915-.257.915.258c1.586.447,3.209.673,4.827.673h64.257c8.58,0,15.419-5.733,17.018-14.263l.036-.194,2.696-15.587c.906-5.003-.242-9.725-3.225-13.321-1.509-1.816-3.362-3.22-5.505-4.173l-2.42-1.075,1.944-10.969c.435-2.378.395-4.7-.114-6.923l-.893-3.889,3.982-.247c8.083-.503,14.52-6.215,16.018-14.214l.036-.194,2.696-15.591c.897-4.952-.261-9.651-3.252-13.255-3.026-3.645-7.491-5.652-12.576-5.652h-26.396c-2.411,0-4.73.457-6.894,1.358l-1.316.547-1.312-.558c-2.1-.894-4.377-1.348-6.769-1.348h-21.57c-1.986,0-3.929.313-5.771.932l-.883.296-.91-.197c-2.04-.441-4.176-.475-6.34-.12l-21.939,3.284c-3.717.508-7.06,2.077-9.709,4.543l-1.949,1.816-2.223-1.468c-6.32-4.173-14.304-6.891-23.733-8.079-2.724-.344-5.447-.048-7.936.856l-1.329.483-1.277-.606c-2.223-1.054-4.697-1.589-7.355-1.589h-19.458c-6.369,0-11.783,3.043-14.856,8.348l-2.962,5.114-2.912-5.142c-2.952-5.21-8.429-8.32-14.652-8.32h-26.849c-6.814,0-12.852,3.656-16.152,9.78l-.126.239-9.858,19.244-3.092-5.483c-1.579-2.8-3.397-5.431-5.406-7.82-10.119-12.043-25.036-18.675-42.002-18.675-2.926,0-5.867.196-8.508.567-3.449.459-6.611,1.846-9.167,4.015l-1.158.983-1.505-.212c-3.207-.455-6.611.129-9.803,1.714-4.553,2.238-8.962,5.003-13.118,8.221l-2.555,1.98-2.096-2.462c-10.287-12.091-27.543-12.091-44.232-12.091h-14.841l.737-3.998c.902-4.9-1.143-9.931-5.211-12.816-2.187-1.551-4.761-2.371-7.442-2.371-2.57,0-5.052.757-7.179,2.189l-1.073.723-1.281-.177c-3.426-.477-6.953.477-9.661,2.583l-2.273,1.765-1.064.054c-2.642.134-5.144,1.064-7.236,2.688l-36.48,28.337-2.092-2.538c-1.845-2.238-3.961-4.269-6.289-6.037-6.687-5.077-15.13-8.199-25.811-9.544-2.737-.344-5.446-.047-7.937.856l-1.329.482-1.277-.606c-2.222-1.055-4.697-1.589-7.355-1.589h-19.458c-1.716,0-3.421.241-5.068.715l-.942.271-.942-.274c-1.622-.473-3.295-.712-4.974-.712h-19.307c-6.211,0-11.554,2.932-14.658,8.046l-2.93,4.825-2.877-4.857c-3.018-5.094-8.313-8.015-14.529-8.015h-25.038c-6.369,0-11.784,3.042-14.855,8.346l-2.962,5.115-2.914-5.142c-2.951-5.21-8.428-8.319-14.652-8.319h-26.849c-6.818,0-12.858,3.658-16.155,9.786l-.127.241-9.384,18.319-2.513-7.764c-1.1-3.398-2.782-6.455-4.999-9.088-9.683-11.495-26.241-11.495-40.85-11.495h-21.419c-8.58,0-15.419,5.733-17.018,14.267l-15.249,86.206c-.903,4.955.252,9.663,3.249,13.273,3.025,3.645,7.491,5.652,12.577,5.652h21.419c10.095,0,20.854-.418,31.141-3.451l1.592-.471,1.347.972c2.673,1.931,6.003,2.95,9.629,2.95h24.285c7.582,0,13.598-3.999,16.505-10.971l4.167-9.468,2.606,8.916c2.047,6.999,8.244,11.523,15.789,11.523h.137l24.084-.302c.348-.001.665-.011.978-.029l.401-.022.394.071c1.032.186,2.111.282,3.205.282h19.458c7.739,0,14.021-4.524,16.392-11.805l1.256-3.855,3.569,1.923c.544.294,1.177.569,1.934.842l1.566.565.509,1.584c.61,1.899,1.542,3.613,2.771,5.094,3.025,3.645,7.491,5.652,12.577,5.652h19.307c1.717,0,3.422-.241,5.068-.714l.942-.271.941.274c1.623.472,3.297.711,4.975.711h22.927c9.751,0,18.928-1.478,27.275-4.396l4.207-1.469Z" fill="none" stroke="#00bad5" stroke-linecap="round" stroke-linejoin="round" stroke-width="2.5"/>
      <path d="M398.474,581.372c-4.296,0-8.379-1.366-11.81-3.95-3.431-2.583-5.885-6.182-7.054-10.234-8.027,2.367-16.667,3.564-25.744,3.564h-22.927c-1.994,0-3.983-.245-5.925-.727-1.961.483-3.975.727-6,.727h-19.307c-7.136,0-13.453-2.876-17.788-8.098-.856-1.031-1.612-2.138-2.264-3.311-4.252,7.071-11.835,11.41-20.524,11.41h-19.458c-1.36,0-2.709-.108-4.015-.321-.302.012-.605.019-.908.02l-24.275.302c-8.076,0-15.067-3.716-19.236-9.87-4.518,6.256-11.603,9.87-19.831,9.87h-24.285c-4.454,0-8.631-1.135-12.183-3.295-10.621,2.884-21.41,3.295-31.527,3.295h-21.419c-7.136,0-13.453-2.876-17.788-8.098-4.297-5.177-5.968-11.851-4.703-18.794l15.265-86.288c2.211-11.805,11.724-19.758,23.666-19.758h21.419c16.085,0,34.317,0,46.029,13.904,1.209,1.436,2.291,2.97,3.24,4.593l2.637-5.139c4.503-8.367,12.771-13.358,22.122-13.358h26.849c6.945,0,13.242,2.803,17.62,7.682,4.438-4.879,10.787-7.682,17.762-7.682h25.038c6.96,0,13.114,2.663,17.478,7.441,4.431-4.724,10.696-7.441,17.516-7.441h19.307c1.995,0,3.984.245,5.926.728,1.962-.483,3.976-.728,6-.728h19.458c3.177,0,6.189.565,8.976,1.682,3.114-.924,6.435-1.191,9.767-.773,11.895,1.498,21.4,5.053,29.06,10.869,1.866,1.417,3.617,2.977,5.231,4.661l31.383-24.377c2.898-2.252,6.315-3.629,9.94-4.017l.632-.491c3.801-2.952,8.639-4.432,13.47-4.076,2.995-1.746,6.384-2.664,9.878-2.664,4.093,0,8.02,1.252,11.359,3.619,5.102,3.619,8.12,9.451,8.269,15.566h7.129c17.187,0,34.927,0,47.22,12.138,3.778-2.716,7.728-5.092,11.78-7.084,3.929-1.951,8.114-2.803,12.255-2.508,3.321-2.478,7.252-4.07,11.461-4.63,2.923-.411,6.19-.63,9.426-.63,19,0,35.758,7.49,47.186,21.09.996,1.185,1.949,2.421,2.856,3.701l4.491-8.754c4.49-8.334,12.756-13.321,22.103-13.321h26.849c6.945,0,13.242,2.803,17.621,7.683,4.438-4.879,10.788-7.683,17.761-7.683h19.458c3.176,0,6.189.565,8.975,1.682,3.116-.924,6.459-1.19,9.769-.773,9.45,1.19,17.666,3.813,24.467,7.807,3.291-2.454,7.165-4.033,11.341-4.604l21.849-3.27c2.589-.426,5.316-.436,7.908.014,2.272-.668,4.638-1.007,7.046-1.007h21.57c2.822,0,5.542.462,8.108,1.375,2.608-.913,5.354-1.375,8.183-1.375h26.396c7.134,0,13.451,2.876,17.786,8.098h0c4.29,5.169,5.963,11.831,4.709,18.759l-2.752,15.886c-1.843,9.846-9.126,17.207-18.621,19.202.131,1.972.012,3.976-.357,5.991l-1.046,5.899c2.107,1.263,3.974,2.868,5.573,4.792,4.283,5.161,5.947,11.847,4.684,18.827l-2.751,15.875c-2.212,11.808-11.726,19.759-23.667,19.759h-64.257c-1.925,0-3.855-.231-5.748-.688-1.91.456-3.872.688-5.849.688h-21.57c-7.051,0-13.303-2.809-17.633-7.913-13.805,6.501-27.657,7.913-37.084,7.913h-22.928c-1.354,0-2.702-.108-4.013-.321-.303.012-.606.019-.91.02l-24.274.302c-8.077,0-15.067-3.716-19.237-9.872-4.519,6.258-11.603,9.872-19.829,9.872h-24.285c-5.752,0-11.004-1.908-15.049-5.422-10.23,4.836-21.303,7.383-32.174,7.383-11.965,0-23.216-2.982-32.733-8.648-4.316,4.282-10.255,6.687-16.723,6.687h-17.497c-5.172,0-10.05-1.542-14.024-4.392-4.007,2.85-8.89,4.392-14.031,4.392h-17.648c-7.136,0-13.453-2.876-17.787-8.098-1.859-2.237-3.234-4.774-4.088-7.505l-20.002,15.13c-3.816,2.885-8.467,4.27-13.271,3.922-2.374,1.382-5.015,2.251-7.748,2.548l-.856.648c-3.439,2.6-7.534,3.975-11.844,3.975ZM385.346,558.117l.288,4.446c.243,3.749,2.103,7.194,5.101,9.451,2.249,1.693,4.924,2.588,7.738,2.588s5.506-.901,7.76-2.605l2.467-1.866,1.035-.054c2.319-.124,4.562-.875,6.488-2.171l1.072-.721,1.279.176c3.417.468,6.812-.424,9.534-2.482l29.595-22.386.247,6.488c.133,3.487,1.357,6.719,3.541,9.348,3.025,3.646,7.491,5.653,12.577,5.653h17.648c4.531,0,8.591-1.545,11.742-4.467l2.321-2.152,2.302,2.17c3.09,2.911,7.133,4.449,11.69,4.449h17.497c5.436,0,10.319-2.321,13.395-6.367l1.927-2.536,2.649,1.769c8.905,5.951,19.792,9.095,31.486,9.095,10.587,0,21.406-2.67,31.287-7.72l2.312-1.181,1.74,1.925c2.924,3.233,7.144,5.015,11.884,5.015h24.285c7.58,0,13.596-3.999,16.504-10.971l4.168-9.468,2.605,8.916c2.046,7.001,8.244,11.523,15.789,11.523h.136l24.084-.302c.348-.001.664-.011.977-.029l.399-.022.393.071c1.039.186,2.12.282,3.208.282h22.928c9.267,0,23.135-1.465,36.571-8.442l2.753-1.43,1.664,2.617c.397.624.774,1.148,1.152,1.604,3.026,3.643,7.491,5.651,12.577,5.651h21.57c1.677,0,3.34-.227,4.94-.674l.915-.257.915.258c1.586.447,3.209.673,4.827.673h64.257c8.58,0,15.419-5.733,17.018-14.263l.036-.194,2.696-15.587c.906-5.003-.242-9.725-3.225-13.321-1.509-1.816-3.362-3.22-5.505-4.173l-2.42-1.075,1.944-10.969c.435-2.378.395-4.7-.114-6.923l-.893-3.889,3.982-.247c8.083-.503,14.52-6.215,16.018-14.214l.036-.194,2.696-15.591c.897-4.952-.261-9.651-3.252-13.255-3.026-3.645-7.491-5.652-12.576-5.652h-26.396c-2.411,0-4.73.457-6.894,1.358l-1.316.547-1.312-.558c-2.1-.894-4.377-1.348-6.769-1.348h-21.57c-1.986,0-3.929.313-5.771.932l-.883.296-.91-.197c-2.04-.441-4.176-.475-6.34-.12l-21.939,3.284c-3.717.508-7.06,2.077-9.709,4.543l-1.949,1.816-2.223-1.468c-6.32-4.173-14.304-6.891-23.733-8.079-2.724-.344-5.447-.048-7.936.856l-1.329.483-1.277-.606c-2.223-1.054-4.697-1.589-7.355-1.589h-19.458c-6.369,0-11.783,3.043-14.856,8.348l-2.962,5.114-2.912-5.142c-2.952-5.21-8.429-8.32-14.652-8.32h-26.849c-6.814,0-12.852,3.656-16.152,9.78l-.126.239-9.858,19.244-3.092-5.483c-1.579-2.8-3.397-5.431-5.406-7.82-10.119-12.043-25.036-18.675-42.002-18.675-2.926,0-5.867.196-8.508.567-3.449.459-6.611,1.846-9.167,4.015l-1.158.983-1.505-.212c-3.207-.455-6.611.129-9.803,1.714-4.553,2.238-8.962,5.003-13.118,8.221l-2.555,1.98-2.096-2.462c-10.287-12.091-27.543-12.091-44.232-12.091h-14.841l.737-3.998c.902-4.9-1.143-9.931-5.211-12.816-2.187-1.551-4.761-2.371-7.442-2.371-2.57,0-5.052.757-7.179,2.189l-1.073.723-1.281-.177c-3.426-.477-6.953.477-9.661,2.583l-2.273,1.765-1.064.054c-2.642.134-5.144,1.064-7.236,2.688l-36.48,28.337-2.092-2.538c-1.845-2.238-3.961-4.269-6.289-6.037-6.687-5.077-15.13-8.199-25.811-9.544-2.737-.344-5.446-.047-7.937.856l-1.329.482-1.277-.606c-2.222-1.055-4.697-1.589-7.355-1.589h-19.458c-1.716,0-3.421.241-5.068.715l-.942.271-.942-.274c-1.622-.473-3.295-.712-4.974-.712h-19.307c-6.211,0-11.554,2.932-14.658,8.046l-2.93,4.825-2.877-4.857c-3.018-5.094-8.313-8.015-14.529-8.015h-25.038c-6.369,0-11.784,3.042-14.855,8.346l-2.962,5.115-2.914-5.142c-2.951-5.21-8.428-8.319-14.652-8.319h-26.849c-6.818,0-12.858,3.658-16.155,9.786l-.127.241-9.384,18.319-2.513-7.764c-1.1-3.398-2.782-6.455-4.999-9.088-9.683-11.495-26.241-11.495-40.85-11.495h-21.419c-8.58,0-15.419,5.733-17.018,14.267l-15.249,86.206c-.903,4.955.252,9.663,3.249,13.273,3.025,3.645,7.491,5.652,12.577,5.652h21.419c10.095,0,20.854-.418,31.141-3.451l1.592-.471,1.347.972c2.673,1.931,6.003,2.95,9.629,2.95h24.285c7.582,0,13.598-3.999,16.505-10.971l4.167-9.468,2.606,8.916c2.047,6.999,8.244,11.523,15.789,11.523h.137l24.084-.302c.348-.001.665-.011.978-.029l.401-.022.394.071c1.032.186,2.111.282,3.205.282h19.458c7.739,0,14.021-4.524,16.392-11.805l1.256-3.855,3.569,1.923c.544.294,1.177.569,1.934.842l1.566.565.509,1.584c.61,1.899,1.542,3.613,2.771,5.094,3.025,3.645,7.491,5.652,12.577,5.652h19.307c1.717,0,3.422-.241,5.068-.714l.942-.271.941.274c1.623.472,3.297.711,4.975.711h22.927c9.751,0,18.928-1.478,27.275-4.396l4.207-1.469Z" fill="none" stroke="#58c7dd" stroke-linecap="round" stroke-linejoin="round" stroke-width="1.95"/>
      <path d="M398.474,581.372c-4.296,0-8.379-1.366-11.81-3.95-3.431-2.583-5.885-6.182-7.054-10.234-8.027,2.367-16.667,3.564-25.744,3.564h-22.927c-1.994,0-3.983-.245-5.925-.727-1.961.483-3.975.727-6,.727h-19.307c-7.136,0-13.453-2.876-17.788-8.098-.856-1.031-1.612-2.138-2.264-3.311-4.252,7.071-11.835,11.41-20.524,11.41h-19.458c-1.36,0-2.709-.108-4.015-.321-.302.012-.605.019-.908.02l-24.275.302c-8.076,0-15.067-3.716-19.236-9.87-4.518,6.256-11.603,9.87-19.831,9.87h-24.285c-4.454,0-8.631-1.135-12.183-3.295-10.621,2.884-21.41,3.295-31.527,3.295h-21.419c-7.136,0-13.453-2.876-17.788-8.098-4.297-5.177-5.968-11.851-4.703-18.794l15.265-86.288c2.211-11.805,11.724-19.758,23.666-19.758h21.419c16.085,0,34.317,0,46.029,13.904,1.209,1.436,2.291,2.97,3.24,4.593l2.637-5.139c4.503-8.367,12.771-13.358,22.122-13.358h26.849c6.945,0,13.242,2.803,17.62,7.682,4.438-4.879,10.787-7.682,17.762-7.682h25.038c6.96,0,13.114,2.663,17.478,7.441,4.431-4.724,10.696-7.441,17.516-7.441h19.307c1.995,0,3.984.245,5.926.728,1.962-.483,3.976-.728,6-.728h19.458c3.177,0,6.189.565,8.976,1.682,3.114-.924,6.435-1.191,9.767-.773,11.895,1.498,21.4,5.053,29.06,10.869,1.866,1.417,3.617,2.977,5.231,4.661l31.383-24.377c2.898-2.252,6.315-3.629,9.94-4.017l.632-.491c3.801-2.952,8.639-4.432,13.47-4.076,2.995-1.746,6.384-2.664,9.878-2.664,4.093,0,8.02,1.252,11.359,3.619,5.102,3.619,8.12,9.451,8.269,15.566h7.129c17.187,0,34.927,0,47.22,12.138,3.778-2.716,7.728-5.092,11.78-7.084,3.929-1.951,8.114-2.803,12.255-2.508,3.321-2.478,7.252-4.07,11.461-4.63,2.923-.411,6.19-.63,9.426-.63,19,0,35.758,7.49,47.186,21.09.996,1.185,1.949,2.421,2.856,3.701l4.491-8.754c4.49-8.334,12.756-13.321,22.103-13.321h26.849c6.945,0,13.242,2.803,17.621,7.683,4.438-4.879,10.788-7.683,17.761-7.683h19.458c3.176,0,6.189.565,8.975,1.682,3.116-.924,6.459-1.19,9.769-.773,9.45,1.19,17.666,3.813,24.467,7.807,3.291-2.454,7.165-4.033,11.341-4.604l21.849-3.27c2.589-.426,5.316-.436,7.908.014,2.272-.668,4.638-1.007,7.046-1.007h21.57c2.822,0,5.542.462,8.108,1.375,2.608-.913,5.354-1.375,8.183-1.375h26.396c7.134,0,13.451,2.876,17.786,8.098h0c4.29,5.169,5.963,11.831,4.709,18.759l-2.752,15.886c-1.843,9.846-9.126,17.207-18.621,19.202.131,1.972.012,3.976-.357,5.991l-1.046,5.899c2.107,1.263,3.974,2.868,5.573,4.792,4.283,5.161,5.947,11.847,4.684,18.827l-2.751,15.875c-2.212,11.808-11.726,19.759-23.667,19.759h-64.257c-1.925,0-3.855-.231-5.748-.688-1.91.456-3.872.688-5.849.688h-21.57c-7.051,0-13.303-2.809-17.633-7.913-13.805,6.501-27.657,7.913-37.084,7.913h-22.928c-1.354,0-2.702-.108-4.013-.321-.303.012-.606.019-.91.02l-24.274.302c-8.077,0-15.067-3.716-19.237-9.872-4.519,6.258-11.603,9.872-19.829,9.872h-24.285c-5.752,0-11.004-1.908-15.049-5.422-10.23,4.836-21.303,7.383-32.174,7.383-11.965,0-23.216-2.982-32.733-8.648-4.316,4.282-10.255,6.687-16.723,6.687h-17.497c-5.172,0-10.05-1.542-14.024-4.392-4.007,2.85-8.89,4.392-14.031,4.392h-17.648c-7.136,0-13.453-2.876-17.787-8.098-1.859-2.237-3.234-4.774-4.088-7.505l-20.002,15.13c-3.816,2.885-8.467,4.27-13.271,3.922-2.374,1.382-5.015,2.251-7.748,2.548l-.856.648c-3.439,2.6-7.534,3.975-11.844,3.975ZM385.346,558.117l.288,4.446c.243,3.749,2.103,7.194,5.101,9.451,2.249,1.693,4.924,2.588,7.738,2.588s5.506-.901,7.76-2.605l2.467-1.866,1.035-.054c2.319-.124,4.562-.875,6.488-2.171l1.072-.721,1.279.176c3.417.468,6.812-.424,9.534-2.482l29.595-22.386.247,6.488c.133,3.487,1.357,6.719,3.541,9.348,3.025,3.646,7.491,5.653,12.577,5.653h17.648c4.531,0,8.591-1.545,11.742-4.467l2.321-2.152,2.302,2.17c3.09,2.911,7.133,4.449,11.69,4.449h17.497c5.436,0,10.319-2.321,13.395-6.367l1.927-2.536,2.649,1.769c8.905,5.951,19.792,9.095,31.486,9.095,10.587,0,21.406-2.67,31.287-7.72l2.312-1.181,1.74,1.925c2.924,3.233,7.144,5.015,11.884,5.015h24.285c7.58,0,13.596-3.999,16.504-10.971l4.168-9.468,2.605,8.916c2.046,7.001,8.244,11.523,15.789,11.523h.136l24.084-.302c.348-.001.664-.011.977-.029l.399-.022.393.071c1.039.186,2.12.282,3.208.282h22.928c9.267,0,23.135-1.465,36.571-8.442l2.753-1.43,1.664,2.617c.397.624.774,1.148,1.152,1.604,3.026,3.643,7.491,5.651,12.577,5.651h21.57c1.677,0,3.34-.227,4.94-.674l.915-.257.915.258c1.586.447,3.209.673,4.827.673h64.257c8.58,0,15.419-5.733,17.018-14.263l.036-.194,2.696-15.587c.906-5.003-.242-9.725-3.225-13.321-1.509-1.816-3.362-3.22-5.505-4.173l-2.42-1.075,1.944-10.969c.435-2.378.395-4.7-.114-6.923l-.893-3.889,3.982-.247c8.083-.503,14.52-6.215,16.018-14.214l.036-.194,2.696-15.591c.897-4.952-.261-9.651-3.252-13.255-3.026-3.645-7.491-5.652-12.576-5.652h-26.396c-2.411,0-4.73.457-6.894,1.358l-1.316.547-1.312-.558c-2.1-.894-4.377-1.348-6.769-1.348h-21.57c-1.986,0-3.929.313-5.771.932l-.883.296-.91-.197c-2.04-.441-4.176-.475-6.34-.12l-21.939,3.284c-3.717.508-7.06,2.077-9.709,4.543l-1.949,1.816-2.223-1.468c-6.32-4.173-14.304-6.891-23.733-8.079-2.724-.344-5.447-.048-7.936.856l-1.329.483-1.277-.606c-2.223-1.054-4.697-1.589-7.355-1.589h-19.458c-6.369,0-11.783,3.043-14.856,8.348l-2.962,5.114-2.912-5.142c-2.952-5.21-8.429-8.32-14.652-8.32h-26.849c-6.814,0-12.852,3.656-16.152,9.78l-.126.239-9.858,19.244-3.092-5.483c-1.579-2.8-3.397-5.431-5.406-7.82-10.119-12.043-25.036-18.675-42.002-18.675-2.926,0-5.867.196-8.508.567-3.449.459-6.611,1.846-9.167,4.015l-1.158.983-1.505-.212c-3.207-.455-6.611.129-9.803,1.714-4.553,2.238-8.962,5.003-13.118,8.221l-2.555,1.98-2.096-2.462c-10.287-12.091-27.543-12.091-44.232-12.091h-14.841l.737-3.998c.902-4.9-1.143-9.931-5.211-12.816-2.187-1.551-4.761-2.371-7.442-2.371-2.57,0-5.052.757-7.179,2.189l-1.073.723-1.281-.177c-3.426-.477-6.953.477-9.661,2.583l-2.273,1.765-1.064.054c-2.642.134-5.144,1.064-7.236,2.688l-36.48,28.337-2.092-2.538c-1.845-2.238-3.961-4.269-6.289-6.037-6.687-5.077-15.13-8.199-25.811-9.544-2.737-.344-5.446-.047-7.937.856l-1.329.482-1.277-.606c-2.222-1.055-4.697-1.589-7.355-1.589h-19.458c-1.716,0-3.421.241-5.068.715l-.942.271-.942-.274c-1.622-.473-3.295-.712-4.974-.712h-19.307c-6.211,0-11.554,2.932-14.658,8.046l-2.93,4.825-2.877-4.857c-3.018-5.094-8.313-8.015-14.529-8.015h-25.038c-6.369,0-11.784,3.042-14.855,8.346l-2.962,5.115-2.914-5.142c-2.951-5.21-8.428-8.319-14.652-8.319h-26.849c-6.818,0-12.858,3.658-16.155,9.786l-.127.241-9.384,18.319-2.513-7.764c-1.1-3.398-2.782-6.455-4.999-9.088-9.683-11.495-26.241-11.495-40.85-11.495h-21.419c-8.58,0-15.419,5.733-17.018,14.267l-15.249,86.206c-.903,4.955.252,9.663,3.249,13.273,3.025,3.645,7.491,5.652,12.577,5.652h21.419c10.095,0,20.854-.418,31.141-3.451l1.592-.471,1.347.972c2.673,1.931,6.003,2.95,9.629,2.95h24.285c7.582,0,13.598-3.999,16.505-10.971l4.167-9.468,2.606,8.916c2.047,6.999,8.244,11.523,15.789,11.523h.137l24.084-.302c.348-.001.665-.011.978-.029l.401-.022.394.071c1.032.186,2.111.282,3.205.282h19.458c7.739,0,14.021-4.524,16.392-11.805l1.256-3.855,3.569,1.923c.544.294,1.177.569,1.934.842l1.566.565.509,1.584c.61,1.899,1.542,3.613,2.771,5.094,3.025,3.645,7.491,5.652,12.577,5.652h19.307c1.717,0,3.422-.241,5.068-.714l.942-.271.941.274c1.623.472,3.297.711,4.975.711h22.927c9.751,0,18.928-1.478,27.275-4.396l4.207-1.469Z" fill="none" stroke="#8fd6e5" stroke-linecap="round" stroke-linejoin="round" stroke-width="1.25"/>
    </g>
    <path d="M398.474,581.622c-4.351,0-8.486-1.383-11.961-4-3.354-2.525-5.859-6.113-7.073-10.124-7.974,2.325-16.577,3.504-25.576,3.504h-22.927c-1.992,0-3.985-.242-5.926-.72-1.959.478-3.977.72-6,.72h-19.307c-7.211,0-13.597-2.908-17.98-8.188-.771-.93-1.47-1.931-2.08-2.98-4.38,7.002-12.017,11.168-20.515,11.168h-19.458c-1.37,0-2.734-.109-4.055-.324-.255.015-.561.021-.867.023l-24.273.301c-7.938,0-14.931-3.526-19.245-9.688-4.647,6.251-11.673,9.688-19.824,9.688h-24.285c-4.433,0-8.656-1.133-12.221-3.275-10.659,2.878-21.432,3.275-31.488,3.275h-21.419c-7.211,0-13.597-2.908-17.98-8.188-4.345-5.236-6.035-11.983-4.757-18.999l15.265-86.288c2.237-11.942,11.846-19.964,23.913-19.964h21.418c16.14,0,34.433,0,46.22,13.993,1.114,1.324,2.133,2.747,3.033,4.237l2.431-4.737c4.547-8.451,12.9-13.493,22.345-13.493h26.849c6.894,0,13.14,2.683,17.622,7.562,4.541-4.879,10.837-7.562,17.76-7.562h25.039c6.865,0,13.061,2.599,17.48,7.325,4.533-4.726,10.741-7.325,17.513-7.325h19.307c1.992,0,3.985.242,5.926.721,1.962-.478,3.98-.721,6-.721h19.458c3.172,0,6.196.561,8.988,1.668,3.149-.921,6.44-1.176,9.786-.757,11.939,1.503,21.484,5.074,29.181,10.917,1.811,1.375,3.527,2.897,5.104,4.525l31.205-24.239c2.901-2.255,6.356-3.658,9.996-4.061l.577-.447c3.872-3.007,8.688-4.473,13.564-4.134,3.011-1.74,6.446-2.659,9.937-2.659,4.144,0,8.122,1.268,11.503,3.666,5.025,3.564,8.141,9.352,8.367,15.52h6.887c17.152,0,34.885,0,47.245,12.062,3.734-2.67,7.65-5.019,11.645-6.982,3.907-1.939,8.159-2.814,12.29-2.54,3.333-2.466,7.308-4.064,11.503-4.623,2.939-.413,6.211-.632,9.459-.632,19.075,0,35.9,7.521,47.377,21.179.906,1.078,1.79,2.214,2.63,3.382l4.304-8.389c4.54-8.428,12.885-13.457,22.325-13.457h26.849c6.894,0,13.141,2.683,17.622,7.562,4.541-4.879,10.837-7.562,17.76-7.562h19.458c3.171,0,6.194.561,8.987,1.668,3.113-.911,6.496-1.173,9.788-.757,9.405,1.185,17.62,3.793,24.419,7.755,3.287-2.415,7.198-3.988,11.323-4.552l21.846-3.269c2.631-.433,5.374-.431,7.931.005,2.277-.664,4.652-1.001,7.061-1.001h21.569c2.813,0,5.541.458,8.108,1.36,2.607-.903,5.36-1.36,8.182-1.36h26.396c7.211,0,13.596,2.908,17.979,8.189,4.337,5.227,6.028,11.961,4.763,18.963l-2.752,15.884c-1.844,9.85-8.964,17.248-18.604,19.359.109,1.92-.017,3.882-.374,5.836l-1.016,5.729c2.066,1.261,3.913,2.861,5.489,4.758,4.331,5.219,6.014,11.978,4.737,19.031l-2.751,15.874c-2.237,11.943-11.847,19.966-23.913,19.966h-64.256c-1.921,0-3.854-.229-5.749-.681-1.911.452-3.878.681-5.849.681h-21.57c-7.05,0-13.327-2.788-17.699-7.855-13.871,6.489-27.778,7.855-37.018,7.855h-22.928c-1.362,0-2.727-.109-4.053-.324-.257.015-.562.021-.868.023l-24.273.301c-7.938,0-14.932-3.527-19.245-9.689-4.648,6.252-11.674,9.689-19.823,9.689h-24.285c-5.765,0-10.979-1.858-15.089-5.377-10.21,4.802-21.317,7.338-32.134,7.338-11.888,0-23.188-2.968-32.695-8.585-4.382,4.273-10.325,6.624-16.761,6.624h-17.497c-5.158,0-10.003-1.498-14.025-4.335-4.053,2.837-8.9,4.335-14.03,4.335h-17.648c-7.212,0-13.597-2.908-17.979-8.188-1.798-2.165-3.151-4.604-4.025-7.253l-19.721,14.916c-3.828,2.896-8.571,4.308-13.363,3.979-2.384,1.375-4.978,2.228-7.711,2.534l-.802.606c-3.483,2.634-7.631,4.025-11.995,4.025ZM379.609,566.938c.042,0,.083.011.12.03.059.032.102.087.12.15,1.156,4.005,3.629,7.593,6.964,10.104,3.387,2.551,7.419,3.899,11.66,3.899s8.297-1.357,11.693-3.924l.856-.648c.036-.027.079-.045.124-.05,2.714-.294,5.288-1.141,7.649-2.515.043-.025.091-.041.144-.033,4.697.335,9.35-1.036,13.102-3.873l20.002-15.129c.065-.05.148-.064.227-.039.078.025.138.086.163.164.849,2.717,2.209,5.213,4.041,7.419,4.286,5.164,10.534,8.008,17.595,8.008h17.648c5.087,0,9.889-1.503,13.886-4.346.086-.061.204-.062.29,0,3.965,2.843,8.764,4.345,13.879,4.345h17.497c6.37,0,12.247-2.35,16.547-6.615.08-.08.205-.095.304-.037,9.464,5.635,20.738,8.613,32.605,8.613,10.795,0,21.884-2.545,32.067-7.358.087-.043.195-.029.271.037,4.037,3.507,9.185,5.36,14.885,5.36h24.285c8.107,0,15.078-3.469,19.626-9.768.048-.066.116-.126.207-.104.081,0,.157.042.203.109,4.201,6.204,11.138,9.762,19.029,9.762l24.271-.301c.303-.002.603-.009.903-.021,1.35.214,2.687.321,4.022.321h22.928c9.227,0,23.132-1.369,36.978-7.89.101-.047.223-.021.297.064,4.28,5.046,10.475,7.825,17.442,7.825h21.57c1.951,0,3.899-.229,5.791-.681.037-.01.077-.01.116,0,1.875.452,3.789.681,5.69.681h64.256c11.818,0,21.23-7.858,23.421-19.555l2.751-15.873c1.249-6.907-.395-13.521-4.63-18.624-1.577-1.897-3.432-3.492-5.51-4.737-.089-.054-.136-.156-.117-.259l1.046-5.899c.364-1.988.483-3.982.354-5.93-.009-.125.076-.236.197-.261,9.547-2.006,16.607-9.288,18.427-19.003l2.752-15.882c1.239-6.855-.414-13.445-4.655-18.557-4.287-5.164-10.535-8.008-17.595-8.008h-26.396c-2.795,0-5.521.458-8.1,1.361-.055.019-.112.019-.167,0-2.537-.903-5.236-1.361-8.023-1.361h-21.569c-2.38,0-4.727.335-6.976.997-.037.011-.075.012-.113.006-2.519-.437-5.225-.441-7.824-.014l-21.853,3.27c-4.101.561-7.982,2.137-11.229,4.557-.081.061-.188.066-.276.016-6.768-3.975-14.968-6.59-24.371-7.774-3.256-.41-6.597-.146-9.666.765-.056.015-.112.013-.164-.008-2.757-1.104-5.745-1.664-8.883-1.664h-19.458c-6.876,0-13.117,2.7-17.576,7.601-.047.052-.114.082-.185.082h0c-.07,0-.138-.03-.185-.083-4.398-4.901-10.591-7.6-17.436-7.6h-26.849c-9.253,0-17.434,4.931-21.883,13.19l-4.488,8.75c-.04.078-.117.129-.205.135-.092.002-.172-.034-.222-.105-.903-1.275-1.86-2.515-2.844-3.685-11.38-13.542-28.069-21-46.994-21-3.226,0-6.473.217-9.391.627-4.145.551-8.067,2.136-11.347,4.583-.047.036-.105.058-.167.049-4.072-.29-8.27.568-12.126,2.483-4.031,1.982-7.982,4.358-11.746,7.063-.098.07-.234.061-.321-.025-12.221-12.065-29.924-12.065-47.044-12.065h-7.129c-.136,0-.247-.108-.25-.244-.149-6.103-3.201-11.848-8.164-15.368-3.296-2.338-7.174-3.574-11.214-3.574-3.429,0-6.801.909-9.752,2.63-.044.026-.097.037-.144.034-4.785-.355-9.503,1.078-13.298,4.024l-.632.491c-.037.028-.081.046-.127.051-3.574.382-6.967,1.753-9.813,3.966l-31.382,24.377c-.101.08-.245.069-.334-.024-1.602-1.671-3.352-3.23-5.202-4.635-7.624-5.789-17.091-9.328-28.94-10.82-3.304-.414-6.556-.158-9.664.765-.054.017-.111.014-.165-.008-2.755-1.104-5.744-1.664-8.882-1.664h-19.458c-2,0-3.999.243-5.941.721-.039.01-.08.01-.12,0-1.92-.479-3.894-.721-5.865-.721h-19.307c-6.725,0-12.881,2.615-17.333,7.362-.047.051-.113.079-.182.079h-.001c-.07,0-.136-.03-.183-.082-4.334-4.746-10.476-7.359-17.293-7.359h-25.039c-6.876,0-13.118,2.699-17.577,7.601-.047.052-.115.082-.185.082-.083-.026-.139-.03-.186-.083-4.397-4.901-10.589-7.6-17.434-7.6h-26.849c-9.258,0-17.445,4.944-21.902,13.226l-2.634,5.135c-.042.081-.125.133-.216.136-.104-.015-.176-.045-.223-.124-.94-1.608-2.022-3.142-3.216-4.558-11.637-13.815-29.807-13.815-45.837-13.815h-21.418c-11.818,0-21.23,7.858-23.421,19.554l-15.265,86.287c-1.251,6.868.4,13.471,4.649,18.591,4.287,5.163,10.536,8.007,17.595,8.007h21.419c10.054,0,20.824-.398,31.461-3.286.065-.019.136-.008.195.027,3.505,2.132,7.673,3.259,12.053,3.259h24.285c8.109,0,15.08-3.469,19.628-9.767.048-.066.126-.102.207-.104.082,0,.157.042.203.109,4.202,6.203,11.138,9.761,19.029,9.761l24.271-.301c.302-.002.603-.009.902-.021,1.344.214,2.681.321,4.024.321h19.458c8.467,0,16.059-4.22,20.309-11.288.046-.076.141-.117.219-.121.089.002.171.051.214.129.643,1.157,1.396,2.259,2.238,3.273,4.286,5.163,10.535,8.007,17.595,8.007h19.307c2.003,0,4.002-.242,5.941-.721.039-.011.08-.009.12,0,1.919.478,3.893.72,5.865.72h22.927c9.041,0,17.679-1.195,25.674-3.554.023-.007.047-.01.071-.01ZM398.474,574.852c-2.867,0-5.595-.912-7.889-2.638-3.057-2.301-4.952-5.812-5.2-9.635l-.267-4.118-3.896,1.361c-8.373,2.926-17.577,4.409-27.358,4.409h-22.927c-1.702,0-3.399-.242-5.045-.721l-.872-.254-.872.251c-1.669.48-3.397.724-5.138.724h-19.307c-5.162,0-9.697-2.039-12.77-5.741-1.25-1.507-2.197-3.249-2.817-5.179l-.471-1.467-1.451-.522c-.771-.279-1.415-.56-1.967-.858l-3.306-1.78-1.163,3.57c-2.406,7.388-8.779,11.978-16.63,11.978h-19.458c-1.109,0-2.202-.096-3.249-.285l-.394-.071-.342.026c-.317.019-.638.027-.991.028l-24.221.302c-7.658,0-13.95-4.594-16.029-11.703l-2.413-8.257-3.891,8.84c-2.946,7.065-9.046,11.12-16.734,11.12h-24.285c-3.68,0-7.06-1.036-9.775-2.997l-1.247-.9-1.475.436c-10.318,3.043-21.099,3.462-31.212,3.462h-21.419c-5.162,0-9.696-2.039-12.77-5.741-3.045-3.668-4.218-8.454-3.303-13.479l15.25-86.204c1.622-8.658,8.56-14.474,17.264-14.474h21.418c14.664,0,31.283,0,41.042,11.584,2.238,2.657,3.935,5.743,5.045,9.171l2.328,7.19,9.237-18.025c3.343-6.213,9.464-9.92,16.376-9.92h26.849c6.314,0,11.873,3.157,14.869,8.446l2.699,4.762,2.743-4.737c3.117-5.384,8.61-8.472,15.071-8.472h25.039c6.306,0,11.68,2.966,14.744,8.138l2.665,4.498,2.713-4.469c3.151-5.19,8.571-8.167,14.872-8.167h19.307c1.702,0,3.399.243,5.044.722l.872.253.873-.251c1.67-.481,3.399-.725,5.138-.725h19.458c2.696,0,5.207.542,7.462,1.613l1.182.562,1.231-.446c2.521-.915,5.308-1.214,8.053-.87,10.726,1.351,19.208,4.488,25.931,9.593,2.344,1.779,4.474,3.824,6.331,6.077l1.938,2.351,36.288-28.188c2.132-1.656,4.683-2.604,7.376-2.741l.985-.049,2.21-1.717c2.776-2.158,6.365-3.116,9.849-2.633l1.187.164.994-.669c2.168-1.459,4.699-2.231,7.318-2.231,2.733,0,5.356.836,7.586,2.417,4.146,2.941,6.232,8.069,5.312,13.065l-.682,3.703h14.541c16.745,0,34.06,0,44.422,12.179l1.94,2.281,2.366-1.833c4.173-3.231,8.602-6.006,13.161-8.247,3.225-1.603,6.664-2.205,9.949-1.738l1.394.197,1.072-.91c2.592-2.2,5.807-3.608,9.296-4.073,2.651-.372,5.605-.569,8.541-.569,17.042,0,32.026,6.664,42.193,18.764,2.017,2.398,3.845,5.042,5.433,7.858l2.863,5.078,9.773-19.071c3.345-6.208,9.465-9.914,16.373-9.914h26.849c6.313,0,11.873,3.158,14.87,8.447l2.696,4.763,2.744-4.737c3.119-5.384,8.612-8.472,15.071-8.472h19.458c2.694,0,5.205.542,7.463,1.613l1.183.562,1.23-.448c2.52-.916,5.306-1.218,8.053-.869,9.468,1.192,17.488,3.924,23.84,8.118l2.059,1.359,1.806-1.682c2.686-2.5,6.09-4.094,9.845-4.607l21.936-3.283c2.21-.363,4.376-.32,6.43.123l.843.183.818-.274c1.865-.627,3.834-.945,5.851-.945h21.569c2.424,0,4.734.46,6.867,1.367l1.215.517,1.219-.507c2.193-.914,4.545-1.377,6.989-1.377h26.396c5.16,0,9.694,2.039,12.769,5.742,3.04,3.663,4.214,8.442,3.306,13.459l-2.732,15.786c-1.52,8.114-8.049,13.908-16.248,14.418l-3.688.229.827,3.601c.517,2.254.556,4.618.116,7.024l-1.91,10.774,2.241.996c2.181.971,4.063,2.398,5.597,4.242,3.032,3.654,4.196,8.458,3.278,13.525l-2.731,15.781c-1.622,8.654-8.56,14.469-17.265,14.469h-64.256c-1.643,0-3.29-.229-4.895-.683l-.848-.238-.848.237c-1.624.453-3.31.684-5.008.684h-21.57c-5.159,0-9.694-2.039-12.77-5.74-.388-.468-.771-1.001-1.17-1.631l-1.541-2.424-2.55,1.324c-13.48,7.001-27.391,8.471-36.687,8.471h-22.928c-1.103,0-2.197-.096-3.252-.285l-.394-.071-.341.026c-.317.019-.637.027-.99.028l-24.221.302c-7.659,0-13.951-4.594-16.029-11.703l-2.413-8.257-3.892,8.84c-2.947,7.065-9.046,11.12-16.731,11.12h-24.285c-4.811,0-9.097-1.811-12.069-5.097l-1.611-1.783-2.143,1.094c-9.916,5.068-20.774,7.747-31.399,7.747-11.743,0-22.68-3.159-31.625-9.137l-2.453-1.639-1.784,2.349c-3.124,4.109-8.078,6.466-13.594,6.466h-17.497c-4.622,0-8.724-1.562-11.862-4.517l-2.132-2.01-2.149,1.993c-3.198,2.966-7.317,4.533-11.912,4.533h-17.648c-5.163,0-9.697-2.04-12.77-5.744-2.219-2.672-3.463-5.956-3.598-9.497l-.229-6.01-29.213,22.097c-2.789,2.108-6.241,3.005-9.718,2.531l-1.185-.163-.993.667c-1.964,1.322-4.251,2.087-6.614,2.214l-.958.051-2.406,1.819c-2.297,1.737-5.033,2.655-7.911,2.655ZM385.346,557.866c.048,0,.097.014.138.042.065.043.106.114.111.191l.288,4.446c.238,3.677,2.062,7.055,5.002,9.268,2.206,1.66,4.83,2.538,7.588,2.538s5.4-.883,7.609-2.554l2.467-1.866c.04-.03.088-.048.138-.051l1.035-.055c2.273-.121,4.473-.857,6.361-2.128l1.072-.721c.051-.035.11-.047.174-.041l1.279.176c3.344.458,6.666-.406,9.349-2.434l29.595-22.386c.075-.057.174-.066.258-.026.084.039.139.123.143.216l.248,6.488c.13,3.431,1.335,6.611,3.483,9.197,2.976,3.588,7.375,5.563,12.385,5.563h17.648c4.466,0,8.468-1.521,11.572-4.4l2.321-2.151c.097-.088.244-.089.342.002l2.302,2.17c3.043,2.865,7.026,4.38,11.519,4.38h17.497c5.357,0,10.167-2.285,13.195-6.269l1.927-2.536c.079-.104.23-.129.338-.057l2.648,1.77c8.863,5.922,19.703,9.053,31.348,9.053,10.546,0,21.325-2.66,31.173-7.692l2.312-1.181c.101-.051.223-.029.299.055l1.74,1.925c2.876,3.181,7.03,4.933,11.698,4.933h24.285c7.474,0,13.404-3.942,16.272-10.817l4.17-9.472c.042-.097.14-.153.245-.149.104.008.193.079.224.18l2.605,8.915c2.014,6.891,8.117,11.344,15.549,11.344h.137l24.08-.302c.346,0,.657-.01.966-.028l.4-.022.451.075c1.025.184,2.09.277,3.163.277h22.928c9.24,0,23.065-1.46,36.456-8.414l2.753-1.43c.116-.062.257-.022.326.088l1.664,2.617c.389.611.759,1.128,1.133,1.579,2.979,3.585,7.376,5.56,12.385,5.56h21.57c1.653,0,3.293-.224,4.873-.666l.915-.256c.045-.012.092-.013.135,0l.915.258c1.562.439,3.163.663,4.76.663h64.256c8.456,0,15.197-5.65,16.772-14.06l.035-.193,2.696-15.585c.892-4.921-.235-9.579-3.171-13.117-1.483-1.785-3.306-3.166-5.415-4.105l-2.42-1.075c-.105-.047-.165-.159-.145-.272l1.944-10.969c.428-2.34.39-4.635-.111-6.823l-.894-3.888c-.016-.072,0-.147.044-.206.044-.059.111-.096.185-.1l3.982-.247c7.967-.496,14.311-6.126,15.787-14.011l.036-.193,2.696-15.588c.882-4.871-.254-9.506-3.198-13.053-2.978-3.586-7.375-5.562-12.384-5.562h-26.396c-2.378,0-4.665.45-6.798,1.339l-1.315.547c-.062.025-.132.024-.193,0l-1.312-.558c-2.07-.881-4.315-1.327-6.672-1.327h-21.569c-1.963,0-3.878.309-5.691.919l-.884.296c-.041.015-.086.018-.132.007l-.91-.197c-1.993-.431-4.096-.469-6.247-.118l-21.941,3.284c-3.655.5-6.966,2.049-9.576,4.479l-1.949,1.816c-.084.078-.211.089-.308.025l-2.223-1.468c-6.287-4.151-14.236-6.856-23.627-8.039-2.671-.337-5.374-.045-7.819.842l-1.329.483c-.062.023-.131.02-.192-.009l-1.277-.606c-2.189-1.038-4.629-1.564-7.248-1.564h-19.458c-6.275,0-11.611,2.997-14.639,8.223l-2.962,5.115c-.045.077-.128.125-.217.125h0c-.09,0-.173-.049-.217-.127l-2.912-5.143c-2.907-5.13-8.303-8.193-14.435-8.193h-26.849c-6.721,0-12.677,3.607-15.932,9.648l-.124.237-9.857,19.241c-.042.082-.126.134-.218.136-.093.006-.178-.046-.223-.127l-3.092-5.482c-1.573-2.789-3.383-5.408-5.38-7.783-10.07-11.985-24.919-18.585-41.811-18.585-2.913,0-5.843.195-8.473.565-3.396.452-6.521,1.821-9.04,3.958l-1.158.982c-.056.046-.128.066-.197.057l-1.505-.212c-3.181-.453-6.521.133-9.657,1.691-4.531,2.227-8.93,4.984-13.076,8.194l-2.555,1.979c-.106.082-.256.066-.344-.036l-2.096-2.462c-10.212-12.003-27.41-12.003-44.041-12.003h-14.841c-.074,0-.145-.033-.192-.09-.048-.057-.067-.132-.054-.206l.736-3.998c.885-4.805-1.121-9.738-5.109-12.566-2.145-1.521-4.667-2.325-7.297-2.325-2.52,0-4.954.742-7.039,2.146l-1.073.723c-.051.034-.113.047-.174.04l-1.281-.177c-3.35-.465-6.803.458-9.474,2.532l-2.272,1.765c-.041.032-.089.05-.141.052l-1.064.053c-2.591.132-5.044,1.043-7.095,2.636l-36.48,28.337c-.106.083-.261.066-.346-.038l-2.092-2.538c-1.833-2.224-3.935-4.241-6.248-5.997-6.651-5.05-15.054-8.156-25.69-9.495-2.668-.335-5.373-.044-7.82.843l-1.329.482c-.064.023-.132.019-.193-.009l-1.277-.606c-2.188-1.038-4.626-1.564-7.248-1.564h-19.458c-1.692,0-3.374.237-4.999.705l-.942.271c-.046.013-.093.013-.139,0l-.941-.273c-1.6-.466-3.25-.703-4.904-.703h-19.307c-6.122,0-11.387,2.889-14.444,7.926l-2.93,4.825c-.045.075-.126.12-.214.12h-.001c-.088,0-.169-.047-.214-.123l-2.876-4.856c-2.972-5.016-8.189-7.893-14.314-7.893h-25.039c-6.277,0-11.613,2.997-14.639,8.222l-2.961,5.115c-.045.077-.127.125-.216.125h0c-.09,0-.172-.049-.216-.127l-2.914-5.142c-2.906-5.13-8.302-8.192-14.434-8.192h-26.849c-6.725,0-12.682,3.609-15.935,9.655l-.126.239-9.382,18.316c-.046.09-.143.143-.243.135-.101-.008-.187-.076-.218-.172l-2.513-7.764c-1.09-3.367-2.756-6.396-4.952-9.003-9.608-11.406-26.105-11.406-40.659-11.406h-21.418c-8.456,0-15.197,5.651-16.772,14.063l-15.249,86.204c-.888,4.877.247,9.519,3.196,13.069,2.977,3.587,7.375,5.562,12.385,5.562h21.419c10.076,0,20.813-.417,31.07-3.441l1.592-.471c.074-.021.153-.007.217.037l1.347.972c2.629,1.899,5.908,2.903,9.482,2.903h24.285c7.476,0,13.407-3.942,16.274-10.816l4.169-9.473c.042-.096.144-.151.245-.149.105.008.194.079.224.18l2.606,8.915c2.015,6.891,8.119,11.344,15.549,11.344h.137l24.081-.302c.345,0,.657-.01.966-.028l.401-.022.453.075c1.018.184,2.081.277,3.16.277h19.458c7.627,0,13.817-4.457,16.154-11.632l1.256-3.855c.023-.07.076-.127.145-.155.068-.027.145-.023.211.013l3.569,1.923c.531.286,1.152.558,1.9.827l1.566.564c.073.026.129.085.153.159l.509,1.584c.6,1.868,1.517,3.555,2.726,5.012,2.977,3.586,7.375,5.561,12.385,5.561h19.307c1.693,0,3.375-.237,4.999-.704l.941-.271c.046-.014.094-.014.139,0l.941.274c1.601.465,3.251.701,4.905.701h22.927c9.724,0,18.874-1.474,27.193-4.382l4.207-1.47c.027-.009.055-.014.083-.014Z" fill="#c3e7f0"/>
  </g>
  <g>
    <path d="M78.827,547.347l15.235-86.128c.452-2.413,1.96-3.771,4.374-3.771h21.419c20.363,0,38.463,0,33.938,26.246-1.207,6.787-3.62,11.765-6.787,15.536-7.24,8.9-21.871,16.894-37.558,17.044l-2.564,15.083c8.145,0,16.139.302,17.647-7.692,0,0,1.207-2.715,3.62-3.469,8.598-2.866,16.139-7.391,21.419-12.067,2.112-1.961,4.223-2.112,4.978.452,1.056,3.619,1.357,8.145.302,13.877-4.827,27.301-32.581,28.659-51.435,28.659h-21.419c-2.413,0-3.62-1.358-3.168-3.771ZM131.319,485.052c1.357-7.995-6.788-7.542-14.933-7.542l-2.715,15.234c8.145,0,16.291.151,17.648-7.692Z" fill="#ed1765"/>
    <path d="M144.861,546.744l44.195-86.279c1.055-1.961,2.715-3.017,4.827-3.017h26.849c2.112,0,3.469,1.056,3.922,3.017l13.726,86.128c.453,2.715-1.055,4.222-3.771,4.222l-24.134.303c-2.263,0-3.469-1.057-3.62-3.319l-1.357-16.291-1.659-16.894-2.112-25.491-11.162,25.491h1.207c2.263,0,3.469.906,3.771,3.168l.905,9.503c.151,2.564-1.509,4.222-4.073,4.222h-9.05l-7.24,16.441c-.905,2.263-2.413,3.168-4.676,3.168h-24.285c-2.716,0-3.62-1.66-2.263-4.374Z" fill="#ed1765"/>
    <path d="M236.504,547.347l15.235-86.128c.452-2.413,1.961-3.771,4.374-3.771h25.038c2.112,0,3.319.905,3.922,2.715l11.162,33.335c.452,1.659.603,3.016.302,4.676l-6.636,37.709c-.754,3.771-3.771,4.374-4.827,1.057l-12.821-39.068-8.748,49.475c-.453,2.413-1.961,3.771-4.374,3.771h-19.458c-2.413,0-3.62-1.358-3.168-3.771ZM296.537,547.347l15.235-86.128c.452-2.413,1.96-3.771,4.374-3.771h19.307c2.413,0,3.62,1.357,3.168,3.771l-15.235,86.128c-.452,2.413-1.96,3.771-4.374,3.771h-19.307c-2.413,0-3.62-1.358-3.168-3.771Z" fill="#ed1765"/>
    <path d="M327.769,547.347l15.235-86.128c.452-2.413,1.961-3.771,4.374-3.771h19.458c2.413,0,3.62,1.357,3.167,3.771l-10.86,61.542c8.447,1.206,22.927-2.112,25.944-18.553,1.81-10.559-1.66-15.536-7.542-17.347-1.96-.754-3.016-1.96-2.564-4.223l3.62-20.815c.453-2.413,2.112-3.922,4.525-3.62,19.156,2.413,34.994,12.218,29.111,45.402-7.089,40.424-39.67,47.514-58.373,47.514h-22.927c-2.413,0-3.62-1.358-3.168-3.771Z" fill="#ed1765"/>
    <path d="M470.901,547.347l15.235-86.128c.452-2.413,1.96-3.771,4.374-3.771h21.42c23.983,0,43.29,0,37.71,31.525-2.565,15.235-9.956,23.229-18.855,27.603-6.939,3.47-17.799,4.827-23.983,4.827-2.112,0-4.073.151-6.185.151l-4.525,25.793c-.452,2.413-1.96,3.771-4.374,3.771h-17.648c-2.413,0-3.62-1.358-3.168-3.771ZM523.845,488.37c1.66-9.201-7.089-8.598-15.838-8.598l-3.016,17.497c8.749,0,17.195.302,18.855-8.899ZM514.343,529.095c6.033-.603,10.709-1.658,15.385-3.318,2.263-.905,4.073-.452,4.676,1.81l6.336,19.006c.905,2.715-.603,4.525-3.47,4.525h-17.497c-2.112,0-3.318-.906-3.921-2.716l-4.979-14.782c-.754-2.564.604-4.374,3.47-4.525Z" fill="#ed1765"/>
    <path d="M579.636,460.465c2.715-1.358,4.524,0,3.921,2.866l-7.089,40.424c-2.263,12.67,3.922,21.419,14.48,21.419,10.409,0,21.117-8.749,23.38-21.419,2.263-12.972-4.374-23.229-14.782-23.229-2.112,0-4.073.452-6.185,1.207-2.866,1.056-4.222.302-3.77-2.564l3.469-19.911c.452-2.262,1.81-3.771,4.224-4.072,2.112-.302,4.525-.452,6.788-.452,27.15,0,45.402,21.57,40.575,49.173-4.979,27.753-30.771,49.172-57.921,49.172-27.302,0-45.553-21.419-40.575-49.172,3.318-19.006,16.592-35.145,33.486-43.441Z" fill="#ed1765"/>
    <path d="M631.686,546.744l44.195-86.279c1.057-1.961,2.715-3.017,4.827-3.017h26.849c2.112,0,3.47,1.056,3.922,3.017l13.726,86.128c.452,2.715-1.057,4.222-3.771,4.222l-24.134.303c-2.263,0-3.469-1.057-3.619-3.319l-1.358-16.291-1.66-16.894-2.111-25.491-11.162,25.491h1.206c2.263,0,3.47.906,3.771,3.168l.905,9.503c.151,2.564-1.508,4.222-4.072,4.222h-9.05l-7.24,16.441c-.906,2.263-2.413,3.168-4.676,3.168h-24.285c-2.715,0-3.621-1.66-2.263-4.374Z" fill="#ed1765"/>
    <path d="M723.329,547.347l15.234-86.128c.454-2.413,1.961-3.771,4.374-3.771h19.458c2.413,0,3.621,1.357,3.168,3.771l-10.861,61.542c8.447,1.206,22.928-2.112,25.944-18.553,1.81-10.559-1.66-15.536-7.542-17.347-1.961-.754-3.018-1.96-2.564-4.223l3.619-20.815c.452-2.413,2.112-3.922,4.525-3.62,19.156,2.413,34.995,12.218,29.111,45.402-7.089,40.424-39.669,47.514-58.373,47.514h-22.928c-2.413,0-3.619-1.358-3.167-3.771Z" fill="#ed1765"/>
    <path d="M800.974,547.347l14.48-81.904c.452-2.263,1.81-3.771,4.224-4.073l22.173-3.318c2.564-.453,3.771.905,3.318,3.469l-15.083,85.826c-.452,2.413-1.961,3.771-4.374,3.771h-21.57c-2.413,0-3.619-1.358-3.167-3.771Z" fill="#ed1765"/>
    <path d="M834.141,547.347l15.234-86.279c.454-2.413,1.961-3.771,4.374-3.771h21.57c2.413,0,3.621,1.357,3.168,3.771l-6.637,37.257h24.435c2.413,0,3.619,1.357,3.167,3.771l-1.658,9.352c-.454,2.413-1.961,3.771-4.374,3.771h-24.435l-2.263,12.67h38.916c2.413,0,3.469,1.357,3.016,3.77l-2.715,15.688c-.452,2.413-1.961,3.771-4.374,3.771h-64.257c-2.413,0-3.619-1.358-3.167-3.771ZM884.52,476.755l2.715-15.687c.452-2.413,1.961-3.771,4.374-3.771h26.396c2.413,0,3.619,1.357,3.167,3.771l-2.715,15.687c-.452,2.413-2.112,3.771-4.525,3.771h-26.396c-2.413,0-3.469-1.357-3.016-3.771Z" fill="#ed1765"/>
  </g>
  <g>
    <polygon points="481.818 436.153 402.539 504.845 439.388 506.312 423.316 555.811 506.946 485.208 468.152 485.545 481.818 436.153" fill="#00a9ad"/>
    <polygon points="460.357 444.432 381.078 513.124 417.926 514.592 401.854 564.091 485.484 493.488 446.691 493.825 460.357 444.432" fill="#ed1765"/>
    <polygon points="470.672 439.366 391.393 508.058 428.241 509.525 412.17 559.024 495.8 488.422 457.006 488.759 470.672 439.366" fill="#fff"/>
  </g>
</svg>